<svg width="355" height="159" viewBox="0 0 355 159" fill="none" xmlns="http://www.w3.org/2000/svg">
<path d="M109.307 87.0286V86.0286H108.307H94.4375V2V1H93.4375H60.1472H59.6111L59.3144 1.44637L1.16724 88.9107L1 89.1622V89.4643V112.936V113.936H2H59.3691V157V158H60.3691H93.4375H94.4375V157V113.936H108.307H109.307V112.936V87.0286ZM231.99 130.921L232.289 130.627V130.207V27.9072V27.4923L231.995 27.1992L206.029 1.29209L205.736 1H205.323H150.726H150.313L150.02 1.29208L124.054 27.1992L123.76 27.4923V27.9072V130.207V130.624L124.057 130.918L151.133 157.711L151.425 158H151.836H203.991H204.4L204.691 157.714L231.99 130.921ZM354 87.0286V86.0286H353H339.13V2V1H338.13H304.84H304.304L304.007 1.44637L245.86 88.9107L245.693 89.1622V89.4643V112.936V113.936H246.693H304.062V157V158H305.062H338.13H339.13V157V113.936H353H354V112.936V87.0286ZM59.3691 47.7687V86.0286H33.4046L59.3691 47.7687ZM157.719 41.6078L164.456 34.8857H191.38L198.33 41.6165V116.958L191.141 124.336H164.908L157.719 116.958V41.6078ZM304.062 47.7687V86.0286H278.097L304.062 47.7687Z" stroke="#F6D351" stroke-width="2"/>
</svg>
