<svg width="133" height="56" viewBox="0 0 133 56" fill="none" xmlns="http://www.w3.org/2000/svg">
<path d="M84.5525 16.95L85.8044 15.974L87.0564 16.95V24.5711H84.5525V16.95ZM78.8353 17.573V18.2582V23.3043L76.2897 25.817H78.8353V27.5613V35.4316V35.9923L81.6939 38.1934L84.5525 35.9923V34.8294V27.8936V25.817H85.8044H87.0564V27.8936V34.8501V36.0338L89.915 38.2142L92.7735 36.1169V35.4524V27.5613V25.817H95.3192L92.7527 23.3043V18.2582V17.5522L85.8044 12.1323L78.8353 17.573Z" fill="#F5CE3E"/>
<path d="M17.3858 32.2544C16.7181 32.8566 15.8 33.4589 13.9638 32.9812C13.2127 32.7321 10.1454 31.4653 10.1454 31.4653L12.378 29.7418V12.0908L6.66084 16.7839V17.4899V30.8216L3.19714 33.5212L14.8402 38.1935L18.7003 35.224V30.0533C18.7003 30.0533 18.1787 31.5484 17.3858 32.2544Z" fill="#F5CE3E"/>
<path d="M27.861 16.95L29.1129 15.974L30.3648 16.95V24.5711H27.861V16.95ZM22.1646 17.573V18.2582V23.3043L19.619 25.817H22.1646V27.5613V35.4316V35.9923L25.0232 38.1934L27.8818 35.9923V34.8294V27.8936V25.817H29.1338H30.3857V27.8936V34.8501V36.0338L33.2443 38.2142L36.1029 36.1169V35.4524V27.5613V25.817H38.6485L36.082 23.3043V18.2582V17.5522L29.1129 12.1323L22.1646 17.573Z" fill="#F5CE3E"/>
<path d="M68.4855 23.0136L74.9747 18.0298L65.8356 12.0908L60.0349 14.7073V35.1824L65.7938 39.1279C65.7938 39.1279 74.1401 35.1824 74.5783 34.9748L74.5574 28.4335L68.4855 23.0136ZM68.4229 33.3966L65.9399 31.4653V24.405L68.4229 26.3154V33.3966ZM65.9399 21.7885V17.4069L69.1532 19.3173L65.9399 21.7885Z" fill="#F5CE3E"/>
<path d="M108.59 32.7733L102.977 27.9141V17.4274C102.977 17.4274 105.96 17.2197 107.984 19.5247C109.236 20.8329 110.008 22.8057 110.008 22.8057V15.9737L105.063 12.1528L97.2804 18.0919V18.8187V18.881V19.1509L97.2386 31.6312L105.794 38.2139L110.071 34.8914V30.8213L108.59 32.7733Z" fill="#F5CE3E"/>
<path d="M49.8531 14.271V14.8317V22.4319V29.1185L48.6011 30.0738L47.3492 29.1185V22.4319V20.8122V14.1256L44.4906 12.1113L41.632 14.2294V14.8317H41.6528V29.7623V30.323L46.0555 33.7078L49.8531 30.8006V38.3386L43.9063 33.7078L38.9403 37.5287L39.7749 38.1724L44.9079 42.1387L45.9929 42.9693L55.5494 35.5975V25.1523V22.7434V16.576V14.8317V14.1671L52.7116 12.1113L49.8531 14.271Z" fill="#F5CE3E"/>
<path d="M114.161 14.354V34.9537V35.4106V36.0335L116.999 38.214L119.857 36.0128V35.4106V28.2879L120.316 27.9349L123.446 30.3229L123.405 38.9615L119.336 42.1179L120.734 43.1978L129.164 36.7188V28.4332L124.406 24.7992L128.934 21.2898L128.35 20.8952L124.49 17.9257L119.857 21.4975V15.2885V14.354L116.999 12.1528L114.161 14.354Z" fill="#F5CE3E"/>
</svg>
