<svg width="293" height="130" viewBox="0 0 293 130" fill="none" xmlns="http://www.w3.org/2000/svg">
<path d="M292.346 45.7091C292.075 45.7065 291.803 45.7052 291.531 45.7052H128.285C84.3135 45.7052 48.5452 79.9492 48.5452 122.047C48.5452 124.596 48.6764 127.116 48.9326 129.602H39.3487C39.1225 127.127 39.007 124.622 39.007 122.092C39.007 74.9724 79.0675 36.6191 128.285 36.6191H291.531C291.803 36.6191 292.075 36.6203 292.346 36.6226V45.7091Z" fill="#121212"/>
<path d="M292.346 27.3537C292.077 27.3516 291.808 27.3506 291.539 27.3506H127.72C73.2094 27.3506 28.8568 69.8132 28.8568 122.001C28.8568 124.559 28.9633 127.094 29.1724 129.602H19.6025C19.4137 127.084 19.3185 124.55 19.3185 122.001C19.3185 94.2862 30.6213 68.2151 51.0808 48.6275C71.5402 28.9943 98.7718 18.2188 127.72 18.2188H291.539C291.808 18.2188 292.077 18.2198 292.346 18.2216V27.3537Z" fill="#121212"/>
<path d="M292.346 9.13231C292.219 9.13192 292.092 9.13173 291.965 9.13173H127.431C62.4278 9.13173 9.53839 59.7672 9.53839 122C9.53839 124.554 9.62747 127.089 9.80286 129.602H0.24176C0.0810852 127.082 0.000183105 124.547 0.000183105 122C0.000183105 89.3997 13.2583 58.7627 37.3423 35.7507C61.3785 12.6931 93.3792 0 127.431 0H291.965C292.092 0 292.219 0.000183105 292.346 0.000534058V9.13231Z" fill="#121212"/>
</svg>
