<svg width="293" height="130" viewBox="0 0 293 130" fill="none" xmlns="http://www.w3.org/2000/svg">
<path d="M0 45.7091C0.271423 45.7065 0.543152 45.7052 0.815186 45.7052H164.062C208.033 45.7052 243.801 79.9492 243.801 122.047C243.801 124.596 243.67 127.116 243.414 129.602H252.997C253.224 127.127 253.339 124.622 253.339 122.092C253.339 74.9724 213.279 36.6191 164.062 36.6191H0.815186C0.543182 36.6191 0.271454 36.6203 0 36.6226V45.7091Z" fill="#121212"/>
<path d="M0 27.3537C0.268829 27.3516 0.537903 27.3506 0.807251 27.3506H164.626C219.137 27.3506 263.489 69.8132 263.489 122.001C263.489 124.559 263.383 127.094 263.174 129.602H272.744C272.932 127.084 273.028 124.55 273.028 122.001C273.028 94.2862 261.725 68.2151 241.265 48.6275C220.806 28.9943 193.574 18.2188 164.626 18.2188H0.807251C0.538025 18.2188 0.268921 18.2198 0 18.2216V27.3537Z" fill="#121212"/>
<path d="M0 9.13231C0.127106 9.13192 0.254272 9.13173 0.3815 9.13173H164.916C229.918 9.13173 282.808 59.7672 282.808 122C282.808 124.554 282.719 127.089 282.543 129.602H292.104C292.265 127.082 292.346 124.547 292.346 122C292.346 89.3997 279.088 58.7627 255.004 35.7507C230.968 12.6931 198.967 0 164.916 0H0.3815C0.254303 0 0.127136 0.000183105 0 0.000534058V9.13231Z" fill="#121212"/>
</svg>
