<svg width="1118" height="130" viewBox="0 0 1118 130" fill="none" xmlns="http://www.w3.org/2000/svg">
<path d="M292.955 47.8725C292.685 47.8698 292.414 47.8684 292.143 47.8684H128.556C84.4934 47.8684 48.6506 83.7112 48.6506 127.774L48.6506 127.821H39.0925C39.0926 78.5019 79.2365 38.3581 128.556 38.3581H292.143C292.414 38.3581 292.685 38.3593 292.955 38.3618V47.8725Z" fill="#121212"/>
<path d="M292.955 28.6595C292.685 28.6573 292.414 28.6562 292.143 28.6562H127.983C73.3584 28.6562 28.9133 73.1012 28.9133 127.726L28.9133 127.821H19.3553L19.3552 127.726C19.3552 98.7169 30.6815 71.4286 51.1836 50.9265C71.6857 30.3766 98.974 19.0981 127.983 19.0981H292.143C292.414 19.0981 292.684 19.0991 292.955 19.1011V28.6595Z" fill="#121212"/>
<path d="M292.955 9.58841C292.828 9.58801 292.7 9.5878 292.573 9.5878H127.696C62.5576 9.5878 9.55808 62.5873 9.55808 127.726L9.55812 127.821H3.49222e-05L0 127.726C0 93.6033 13.2857 61.5359 37.4199 37.4496C61.5062 13.3154 93.5736 0.0297241 127.696 0.0297241H292.573C292.7 0.0297241 292.828 0.0299072 292.955 0.0302811V9.58841Z" fill="#121212"/>
<path d="M824.395 47.7706C824.667 47.7679 824.94 47.7665 825.212 47.7665H988.799C1032.86 47.7665 1068.7 83.5557 1068.7 127.553C1068.7 128.237 1068.7 128.92 1068.68 129.601H1078.24C1078.25 128.935 1078.26 128.269 1078.26 127.6C1078.26 78.3543 1038.12 38.2704 988.799 38.2704H825.212C824.94 38.2704 824.667 38.2717 824.395 38.2741V47.7706Z" fill="#121212"/>
<path d="M824.395 28.587C824.665 28.5848 824.934 28.5837 825.204 28.5837H989.364C1043.99 28.5837 1088.43 72.9623 1088.43 127.505C1088.43 128.205 1088.43 128.904 1088.41 129.601H1097.97C1097.99 128.903 1097.99 128.205 1097.99 127.505C1097.99 98.5396 1086.67 71.2921 1066.16 50.8207C1045.66 30.3016 1018.37 19.0399 989.364 19.0399H825.204C824.934 19.0399 824.665 19.0409 824.395 19.0428V28.587Z" fill="#121212"/>
<path d="M824.395 9.54439C824.523 9.54398 824.65 9.54378 824.778 9.54378H989.655C1054.79 9.54378 1107.79 62.4641 1107.79 127.505C1107.79 128.205 1107.79 128.903 1107.77 129.601H1117.33C1117.34 128.903 1117.35 128.204 1117.35 127.505C1117.35 93.4336 1104.06 61.4142 1079.93 37.3639C1055.84 13.2658 1023.78 0 989.655 0H824.778C824.65 0 824.523 0.000198364 824.395 0.000564575V9.54439Z" fill="#121212"/>
</svg>
