<svg width="360" height="320" viewBox="0 0 360 320" fill="none" xmlns="http://www.w3.org/2000/svg">
<mask id="mask0" mask-type="alpha" maskUnits="userSpaceOnUse" x="-1" y="0" width="361" height="320">
<rect x="-1" width="361" height="320" fill="#F6D351"/>
</mask>
<g mask="url(#mask0)">
<path fill-rule="evenodd" clip-rule="evenodd" d="M330.771 361.849L330.771 166.385C330.771 125.99 315.02 87.9732 286.409 59.3618C257.854 30.8071 219.781 15.0001 179.385 15.0001C138.989 15.0001 100.973 30.8071 72.3618 59.3618C43.7504 87.9166 28 125.933 28 166.385L28 361.849C28 402.245 43.7504 440.261 72.3618 468.873C100.917 497.484 138.933 513.235 179.385 513.235C219.838 513.235 257.854 497.484 286.409 468.873C315.02 440.318 330.771 402.302 330.771 361.849ZM179.385 501.903C102.163 501.903 39.3313 439.072 39.3313 361.849L39.3312 166.385C39.3312 89.163 102.163 26.3313 179.385 26.3313C256.608 26.3313 319.439 89.163 319.439 166.385L319.44 361.849C319.44 439.072 256.608 501.903 179.385 501.903ZM308.165 166.895L308.165 361.509C308.165 395.9 294.794 428.25 270.432 452.556C246.127 476.861 213.776 490.289 179.385 490.289C144.995 490.289 112.645 476.918 88.339 452.556C64.0335 428.25 50.606 395.9 50.606 361.509L50.606 166.895C50.606 132.505 63.9768 100.154 88.339 75.8489C112.644 51.5434 144.995 38.1159 179.385 38.1159C213.776 38.1159 246.126 51.4867 270.432 75.8489C294.794 100.154 308.165 132.448 308.165 166.895ZM61.9372 361.509C61.9372 426.267 114.627 478.958 179.385 478.958C244.144 478.958 296.834 426.267 296.834 361.509L296.834 166.895C296.834 102.137 244.144 49.4471 179.385 49.4471C114.627 49.4471 61.9372 102.137 61.9372 166.895L61.9372 361.509ZM285.332 166.895L285.332 360.829C285.332 419.299 237.741 466.89 179.272 466.89C120.803 466.89 73.2115 419.299 73.2115 360.829L73.2115 166.895C73.2115 108.426 120.803 60.8348 179.272 60.8348C237.741 60.8348 285.332 108.426 285.332 166.895ZM84.5994 360.829C84.5994 413.066 127.092 455.559 179.329 455.559C231.566 455.559 274.058 413.066 274.058 360.829L274.058 166.895C274.058 114.658 231.566 72.1661 179.329 72.1661C127.092 72.1661 84.5994 114.658 84.5994 166.895L84.5994 360.829Z" fill="#121212"/>
</g>
</svg>
