<svg width="303" height="305" viewBox="0 0 303 305" fill="none" xmlns="http://www.w3.org/2000/svg">
<path fill-rule="evenodd" clip-rule="evenodd" d="M302.771 346.849L302.771 151.385C302.771 110.99 287.02 72.9732 258.409 44.3618C229.854 15.8071 191.781 5.26521e-05 151.385 5.44179e-05C110.989 5.61837e-05 72.9732 15.8071 44.3618 44.3618C15.7504 72.9166 4.84903e-06 110.933 6.61726e-06 151.385L1.51613e-05 346.849C1.6927e-05 387.245 15.7504 425.261 44.3618 453.873C72.9165 482.484 110.933 498.235 151.385 498.235C191.838 498.235 229.854 482.484 258.409 453.873C287.02 425.318 302.771 387.302 302.771 346.849ZM151.385 486.903C74.163 486.903 11.3313 424.072 11.3313 346.849L11.3312 151.385C11.3312 74.163 74.163 11.3313 151.385 11.3313C228.608 11.3313 291.439 74.163 291.439 151.385L291.44 346.849C291.44 424.072 228.608 486.903 151.385 486.903ZM280.165 151.895L280.165 346.509C280.165 380.9 266.794 413.25 242.432 437.556C218.127 461.861 185.776 475.289 151.385 475.289C116.995 475.289 84.6445 461.918 60.339 437.556C36.0335 413.25 22.606 380.9 22.606 346.509L22.606 151.895C22.606 117.505 35.9768 85.1544 60.339 60.8489C84.6445 36.5434 116.995 23.1159 151.385 23.1159C185.776 23.1159 218.126 36.4867 242.432 60.8489C266.794 85.1544 280.165 117.448 280.165 151.895ZM33.9372 346.509C33.9372 411.267 86.6275 463.958 151.385 463.958C216.144 463.958 268.834 411.267 268.834 346.509L268.834 151.895C268.834 87.1373 216.144 34.4471 151.385 34.4471C86.6275 34.4471 33.9372 87.1374 33.9372 151.895L33.9372 346.509ZM257.332 151.895L257.332 345.829C257.332 404.299 209.741 451.89 151.272 451.89C92.8027 451.89 45.2115 404.299 45.2115 345.829L45.2115 151.895C45.2115 93.4261 92.8027 45.8348 151.272 45.8348C209.741 45.8348 257.332 93.426 257.332 151.895ZM56.5994 345.829C56.5994 398.066 99.0915 440.559 151.329 440.559C203.566 440.559 246.058 398.066 246.058 345.829L246.058 151.895C246.058 99.6582 203.566 57.1661 151.329 57.1661C99.0915 57.1661 56.5994 99.6582 56.5994 151.895L56.5994 345.829Z" fill="#121212"/>
</svg>
