<svg width="807" height="496" viewBox="0 0 807 496" fill="none" xmlns="http://www.w3.org/2000/svg">
<path fill-rule="evenodd" clip-rule="evenodd" d="M247.808 0H550.684V18.5485H247.808C121.4 18.5485 18.5485 121.4 18.5485 247.808C18.5485 374.216 121.4 477.067 247.808 477.067H545.658V476.968H821V495.517H550.684V495.616H247.808C181.59 495.616 119.36 469.833 72.6174 422.999C25.7824 376.256 0 314.026 0 247.808C0 181.59 25.7824 119.36 72.6174 72.6174C119.452 25.7824 181.683 0 247.808 0ZM248.365 37.0047H550.684V55.5532H248.365C142.36 55.5532 56.1093 141.804 56.1093 247.808C56.1093 353.813 142.36 440.064 248.365 440.064H545.658V439.964H821V458.513H550.684V458.612H248.365C192.07 458.612 139.114 436.725 99.3273 396.846C59.5408 357.059 37.5608 304.103 37.5608 247.808C37.5608 191.514 59.4481 138.558 99.3273 98.7712C139.114 58.9847 192.07 37.0047 248.365 37.0047ZM249.477 74.0083H550.684V92.6495H249.477C163.968 92.6495 94.4116 162.206 94.4116 247.715C94.4116 333.224 163.968 402.78 249.477 402.78H545.658V402.681H821V421.137H550.684V421.236H249.477C153.767 421.236 75.8631 343.332 75.8631 247.622C75.8631 151.912 153.767 74.0083 249.477 74.0083Z" fill="#F5CE3E"/>
</svg>