<svg width="1470" height="888" viewBox="0 0 1470 888" fill="none" xmlns="http://www.w3.org/2000/svg">
<path fill-rule="evenodd" clip-rule="evenodd" d="M443.7 0H986V33.2111H443.7C217.367 33.2111 33.2111 217.367 33.2111 443.7C33.2111 670.034 217.367 854.189 443.7 854.189H977V854.011H1470V887.222H986V887.4H443.7C325.136 887.4 213.713 841.237 130.021 757.379C46.1634 673.687 0 562.264 0 443.7C0 325.136 46.1634 213.713 130.021 130.021C213.879 46.1634 325.303 0 443.7 0ZM444.696 66.2568H986V99.4679H444.696C254.895 99.4679 100.464 253.899 100.464 443.701C100.464 633.502 254.895 787.934 444.696 787.934H977V787.755H1470V820.967H986V821.145H444.696C343.901 821.145 249.083 781.956 177.845 710.552C106.608 639.314 67.2524 544.496 67.2524 443.701C67.2524 342.905 106.442 248.087 177.845 176.85C249.083 105.612 343.901 66.2568 444.696 66.2568ZM446.689 132.512H986V165.889H446.689C293.586 165.889 169.044 290.43 169.044 443.533C169.044 596.637 293.586 721.178 446.689 721.178H977V721H1470V754.045H986V754.223H446.689C275.32 754.223 135.833 614.737 135.833 443.367C135.833 271.998 275.32 132.512 446.689 132.512Z" fill="#F6D351"/>
</svg>
