<svg width="96" height="138" viewBox="0 0 96 138" fill="none" xmlns="http://www.w3.org/2000/svg">
<path d="M29.4129 103H27.9729L27.2369 100.184H23.7489L23.0289 103H21.7489L24.7409 91.8H26.5009L29.4129 103ZM24.0209 99.16H26.9649L25.4769 93.512L24.0209 99.16ZM31.9989 101.624H37.2309V103H30.6069V91.8H31.9989V101.624ZM45.2868 93.384V95.544H43.9108V93.992L43.1108 93.192H40.5188L39.5108 94.216V100.552L40.5828 101.624H43.0468L43.9108 100.776V99H45.2868V101.336L43.6228 103H40.0868L38.1188 101.048V93.672L39.9908 91.8H43.7188L45.2868 93.384ZM46.4153 104.52H45.5353L49.0553 91.352H49.9353L46.4153 104.52ZM54.9991 103H53.2551L50.3431 91.8H51.7351L54.2311 101.304L56.6791 91.8H57.9911L54.9991 103ZM65.8843 101.192L64.0603 103H60.3803L58.5723 101.192V93.528L60.3003 91.8H64.1563L65.8843 93.528V101.192ZM60.8603 93.176L59.9483 94.088V100.648L60.9083 101.624H63.5323L64.4923 100.648V94.088L63.5803 93.176H60.8603ZM68.9208 101.624H74.1528V103H67.5288V91.8H68.9208V101.624Z" fill="#F5CE3E"/>
<path d="M29.7859 132.4H31.3859V130.26H24.3859V128.66L30.2259 119H33.2259V128.66H34.4859V130.26H33.2259V132.4H34.6259V134H29.7859V132.4ZM31.3859 128.66V120.42L26.4059 128.66H31.3859ZM37.5938 131.6H39.5938V133.4L38.3938 136.6H37.5938V131.6ZM49.7777 122.92V120.6H44.5777V124.94H49.7577L51.7777 127.06V131.8L49.6977 134H44.6577L42.5777 131.8V129.28H44.2377V131.04L45.4577 132.28H48.9177L49.9377 131.22V127.64L48.8577 126.54H42.9777V119H51.3777V122.92H49.7777ZM66.2855 134L64.9855 132.62V126.34L66.2855 124.96H69.7255L71.0055 126.34V132.62L69.7255 134H66.2855ZM66.8855 132.64H69.1255L69.6655 132.1V126.86L69.1255 126.32H66.8855L66.3455 126.86V132.1L66.8855 132.64ZM56.3055 128.04L55.0055 126.66V120.38L56.3055 119H59.7455L61.0255 120.38V126.66L59.7455 128.04H56.3055ZM56.9055 126.68H59.1455L59.6855 126.14V120.9L59.1455 120.36H56.9055L56.3655 120.9V126.14L56.9055 126.68ZM59.1855 134.7L65.2855 118.32H66.8255L60.7255 134.7H59.1855Z" fill="#F5CE3E"/>
<path d="M29.7859 132.4V131.9H29.2859V132.4H29.7859ZM31.3859 132.4V132.9H31.8859V132.4H31.3859ZM31.3859 130.26H31.8859V129.76H31.3859V130.26ZM24.3859 130.26H23.8859V130.76H24.3859V130.26ZM24.3859 128.66L23.9581 128.401L23.8859 128.521V128.66H24.3859ZM30.2259 119V118.5H29.9439L29.7981 118.741L30.2259 119ZM33.2259 119H33.7259V118.5H33.2259V119ZM33.2259 128.66H32.7259V129.16H33.2259V128.66ZM34.4859 128.66H34.9859V128.16H34.4859V128.66ZM34.4859 130.26V130.76H34.9859V130.26H34.4859ZM33.2259 130.26V129.76H32.7259V130.26H33.2259ZM33.2259 132.4H32.7259V132.9H33.2259V132.4ZM34.6259 132.4H35.1259V131.9H34.6259V132.4ZM34.6259 134V134.5H35.1259V134H34.6259ZM29.7859 134H29.2859V134.5H29.7859V134ZM31.3859 128.66V129.16H31.8859V128.66H31.3859ZM31.3859 120.42H31.8859V118.626L30.958 120.161L31.3859 120.42ZM26.4059 128.66L25.978 128.401L25.5195 129.16H26.4059V128.66ZM29.7859 132.9H31.3859V131.9H29.7859V132.9ZM31.8859 132.4V130.26H30.8859V132.4H31.8859ZM31.3859 129.76H24.3859V130.76H31.3859V129.76ZM24.8859 130.26V128.66H23.8859V130.26H24.8859ZM24.8138 128.919L30.6538 119.259L29.7981 118.741L23.9581 128.401L24.8138 128.919ZM30.2259 119.5H33.2259V118.5H30.2259V119.5ZM32.7259 119V128.66H33.7259V119H32.7259ZM33.2259 129.16H34.4859V128.16H33.2259V129.16ZM33.9859 128.66V130.26H34.9859V128.66H33.9859ZM34.4859 129.76H33.2259V130.76H34.4859V129.76ZM32.7259 130.26V132.4H33.7259V130.26H32.7259ZM33.2259 132.9H34.6259V131.9H33.2259V132.9ZM34.1259 132.4V134H35.1259V132.4H34.1259ZM34.6259 133.5H29.7859V134.5H34.6259V133.5ZM30.2859 134V132.4H29.2859V134H30.2859ZM31.8859 128.66V120.42H30.8859V128.66H31.8859ZM30.958 120.161L25.978 128.401L26.8339 128.919L31.8139 120.679L30.958 120.161ZM26.4059 129.16H31.3859V128.16H26.4059V129.16ZM37.5938 131.6V131.1H37.0938V131.6H37.5938ZM39.5938 131.6H40.0938V131.1H39.5938V131.6ZM39.5938 133.4L40.0619 133.576L40.0938 133.491V133.4H39.5938ZM38.3937 136.6V137.1H38.7402L38.8619 136.776L38.3937 136.6ZM37.5938 136.6H37.0938V137.1H37.5938V136.6ZM37.5938 132.1H39.5938V131.1H37.5938V132.1ZM39.0938 131.6V133.4H40.0938V131.6H39.0938ZM39.1256 133.224L37.9256 136.424L38.8619 136.776L40.0619 133.576L39.1256 133.224ZM38.3937 136.1H37.5938V137.1H38.3937V136.1ZM38.0938 136.6V131.6H37.0938V136.6H38.0938ZM49.7777 122.92H49.2777V123.42H49.7777V122.92ZM49.7777 120.6H50.2777V120.1H49.7777V120.6ZM44.5777 120.6V120.1H44.0777V120.6H44.5777ZM44.5777 124.94H44.0777V125.44H44.5777V124.94ZM49.7577 124.94L50.1196 124.595L49.9719 124.44H49.7577V124.94ZM51.7777 127.06H52.2777V126.86L52.1396 126.715L51.7777 127.06ZM51.7777 131.8L52.141 132.144L52.2777 131.999V131.8H51.7777ZM49.6977 134V134.5H49.913L50.061 134.344L49.6977 134ZM44.6577 134L44.2943 134.344L44.4423 134.5H44.6577V134ZM42.5777 131.8H42.0777V131.999L42.2143 132.144L42.5777 131.8ZM42.5777 129.28V128.78H42.0777V129.28H42.5777ZM44.2377 129.28H44.7377V128.78H44.2377V129.28ZM44.2377 131.04H43.7377V131.245L43.8812 131.391L44.2377 131.04ZM45.4577 132.28L45.1012 132.631L45.2482 132.78H45.4577V132.28ZM48.9177 132.28V132.78H49.1304L49.2779 132.627L48.9177 132.28ZM49.9377 131.22L50.2979 131.567L50.4377 131.421V131.22H49.9377ZM49.9377 127.64H50.4377V127.436L50.2944 127.29L49.9377 127.64ZM48.8577 126.54L49.2144 126.19L49.0675 126.04H48.8577V126.54ZM42.9777 126.54H42.4777V127.04H42.9777V126.54ZM42.9777 119V118.5H42.4777V119H42.9777ZM51.3777 119H51.8777V118.5H51.3777V119ZM51.3777 122.92V123.42H51.8777V122.92H51.3777ZM50.2777 122.92V120.6H49.2777V122.92H50.2777ZM49.7777 120.1H44.5777V121.1H49.7777V120.1ZM44.0777 120.6V124.94H45.0777V120.6H44.0777ZM44.5777 125.44H49.7577V124.44H44.5777V125.44ZM49.3957 125.285L51.4157 127.405L52.1396 126.715L50.1196 124.595L49.3957 125.285ZM51.2777 127.06V131.8H52.2777V127.06H51.2777ZM51.4143 131.456L49.3343 133.656L50.061 134.344L52.141 132.144L51.4143 131.456ZM49.6977 133.5H44.6577V134.5H49.6977V133.5ZM45.021 133.656L42.941 131.456L42.2143 132.144L44.2943 134.344L45.021 133.656ZM43.0777 131.8V129.28H42.0777V131.8H43.0777ZM42.5777 129.78H44.2377V128.78H42.5777V129.78ZM43.7377 129.28V131.04H44.7377V129.28H43.7377ZM43.8812 131.391L45.1012 132.631L45.8141 131.929L44.5941 130.689L43.8812 131.391ZM45.4577 132.78H48.9177V131.78H45.4577V132.78ZM49.2779 132.627L50.2979 131.567L49.5774 130.873L48.5574 131.933L49.2779 132.627ZM50.4377 131.22V127.64H49.4377V131.22H50.4377ZM50.2944 127.29L49.2144 126.19L48.5009 126.89L49.5809 127.99L50.2944 127.29ZM48.8577 126.04H42.9777V127.04H48.8577V126.04ZM43.4777 126.54V119H42.4777V126.54H43.4777ZM42.9777 119.5H51.3777V118.5H42.9777V119.5ZM50.8777 119V122.92H51.8777V119H50.8777ZM51.3777 122.42H49.7777V123.42H51.3777V122.42ZM66.2855 134L65.9215 134.343L66.0696 134.5H66.2855V134ZM64.9855 132.62H64.4855V132.818L64.6215 132.963L64.9855 132.62ZM64.9855 126.34L64.6215 125.997L64.4855 126.142V126.34H64.9855ZM66.2855 124.96V124.46H66.0696L65.9215 124.617L66.2855 124.96ZM69.7255 124.96L70.0921 124.62L69.9437 124.46H69.7255V124.96ZM71.0055 126.34H71.5055V126.144L71.3721 126L71.0055 126.34ZM71.0055 132.62L71.3721 132.96L71.5055 132.816V132.62H71.0055ZM69.7255 134V134.5H69.9437L70.0921 134.34L69.7255 134ZM66.8855 132.64L66.5319 132.994L66.6784 133.14H66.8855V132.64ZM69.1255 132.64V133.14H69.3326L69.479 132.994L69.1255 132.64ZM69.6655 132.1L70.019 132.454L70.1655 132.307V132.1H69.6655ZM69.6655 126.86H70.1655V126.653L70.019 126.506L69.6655 126.86ZM69.1255 126.32L69.479 125.966L69.3326 125.82H69.1255V126.32ZM66.8855 126.32V125.82H66.6784L66.5319 125.966L66.8855 126.32ZM66.3455 126.86L65.9919 126.506L65.8455 126.653V126.86H66.3455ZM66.3455 132.1H65.8455V132.307L65.9919 132.454L66.3455 132.1ZM56.3055 128.04L55.9415 128.383L56.0896 128.54H56.3055V128.04ZM55.0055 126.66H54.5055V126.858L54.6415 127.003L55.0055 126.66ZM55.0055 120.38L54.6415 120.037L54.5055 120.182V120.38H55.0055ZM56.3055 119V118.5H56.0896L55.9415 118.657L56.3055 119ZM59.7455 119L60.1121 118.66L59.9637 118.5H59.7455V119ZM61.0255 120.38H61.5255V120.184L61.3921 120.04L61.0255 120.38ZM61.0255 126.66L61.3921 127L61.5255 126.856V126.66H61.0255ZM59.7455 128.04V128.54H59.9637L60.1121 128.38L59.7455 128.04ZM56.9055 126.68L56.5519 127.034L56.6984 127.18H56.9055V126.68ZM59.1455 126.68V127.18H59.3526L59.499 127.034L59.1455 126.68ZM59.6855 126.14L60.039 126.494L60.1855 126.347V126.14H59.6855ZM59.6855 120.9H60.1855V120.693L60.039 120.546L59.6855 120.9ZM59.1455 120.36L59.499 120.006L59.3526 119.86H59.1455V120.36ZM56.9055 120.36V119.86H56.6984L56.5519 120.006L56.9055 120.36ZM56.3655 120.9L56.0119 120.546L55.8655 120.693V120.9H56.3655ZM56.3655 126.14H55.8655V126.347L56.0119 126.494L56.3655 126.14ZM59.1855 134.7L58.7169 134.526L58.4657 135.2H59.1855V134.7ZM65.2855 118.32V117.82H64.9381L64.8169 118.146L65.2855 118.32ZM66.8255 118.32L67.294 118.494L67.5452 117.82H66.8255V118.32ZM60.7255 134.7V135.2H61.0728L61.194 134.874L60.7255 134.7ZM66.6494 133.657L65.3494 132.277L64.6215 132.963L65.9215 134.343L66.6494 133.657ZM65.4855 132.62V126.34H64.4855V132.62H65.4855ZM65.3494 126.683L66.6494 125.303L65.9215 124.617L64.6215 125.997L65.3494 126.683ZM66.2855 125.46H69.7255V124.46H66.2855V125.46ZM69.3589 125.3L70.6389 126.68L71.3721 126L70.0921 124.62L69.3589 125.3ZM70.5055 126.34V132.62H71.5055V126.34H70.5055ZM70.6389 132.28L69.3589 133.66L70.0921 134.34L71.3721 132.96L70.6389 132.28ZM69.7255 133.5H66.2855V134.5H69.7255V133.5ZM66.8855 133.14H69.1255V132.14H66.8855V133.14ZM69.479 132.994L70.019 132.454L69.3119 131.746L68.7719 132.286L69.479 132.994ZM70.1655 132.1V126.86H69.1655V132.1H70.1655ZM70.019 126.506L69.479 125.966L68.7719 126.674L69.3119 127.214L70.019 126.506ZM69.1255 125.82H66.8855V126.82H69.1255V125.82ZM66.5319 125.966L65.9919 126.506L66.699 127.214L67.239 126.674L66.5319 125.966ZM65.8455 126.86V132.1H66.8455V126.86H65.8455ZM65.9919 132.454L66.5319 132.994L67.239 132.286L66.699 131.746L65.9919 132.454ZM56.6694 127.697L55.3694 126.317L54.6415 127.003L55.9415 128.383L56.6694 127.697ZM55.5055 126.66V120.38H54.5055V126.66H55.5055ZM55.3694 120.723L56.6694 119.343L55.9415 118.657L54.6415 120.037L55.3694 120.723ZM56.3055 119.5H59.7455V118.5H56.3055V119.5ZM59.3789 119.34L60.6589 120.72L61.3921 120.04L60.1121 118.66L59.3789 119.34ZM60.5255 120.38V126.66H61.5255V120.38H60.5255ZM60.6589 126.32L59.3789 127.7L60.1121 128.38L61.3921 127L60.6589 126.32ZM59.7455 127.54H56.3055V128.54H59.7455V127.54ZM56.9055 127.18H59.1455V126.18H56.9055V127.18ZM59.499 127.034L60.039 126.494L59.3319 125.786L58.7919 126.326L59.499 127.034ZM60.1855 126.14V120.9H59.1855V126.14H60.1855ZM60.039 120.546L59.499 120.006L58.7919 120.714L59.3319 121.254L60.039 120.546ZM59.1455 119.86H56.9055V120.86H59.1455V119.86ZM56.5519 120.006L56.0119 120.546L56.719 121.254L57.259 120.714L56.5519 120.006ZM55.8655 120.9V126.14H56.8655V120.9H55.8655ZM56.0119 126.494L56.5519 127.034L57.259 126.326L56.719 125.786L56.0119 126.494ZM59.654 134.874L65.754 118.494L64.8169 118.146L58.7169 134.526L59.654 134.874ZM65.2855 118.82H66.8255V117.82H65.2855V118.82ZM66.3569 118.146L60.2569 134.526L61.194 134.874L67.294 118.494L66.3569 118.146ZM60.7255 134.2H59.1855V135.2H60.7255V134.2Z" fill="#F5CE3E"/>
<path d="M57.7159 27.09C53.7275 19.5721 49.6696 13.169 49.6232 13.1172L47.9072 10.4211L46.1913 13.1172C46.1449 13.169 42.087 19.5721 38.0986 27.09C32.6029 37.4334 29.7971 44.9772 29.7971 49.5138C29.7971 60.6609 37.913 69.7341 47.8841 69.7341C57.8551 69.7341 65.971 60.6609 65.971 49.5138C65.9942 45.0031 63.2116 37.4594 57.7159 27.09ZM47.9072 65.0679C40.2551 65.0679 34.0174 58.0945 34.0174 49.5397C34.0174 42.9033 42.8754 26.9085 47.9072 18.613C52.9391 26.9085 61.7971 42.9033 61.7971 49.5397C61.8203 58.0945 55.5826 65.0679 47.9072 65.0679Z" fill="#F5CE3E"/>
<path d="M53.8666 44.4329L53.8202 46.766C53.8202 47.103 53.542 55.1652 46.7942 56.2281L44.7072 56.5391L45.2869 61.1794L47.3739 60.8684C51.6637 60.1944 54.8637 57.5242 56.6492 53.1432C57.9478 49.9805 57.9942 46.9734 57.9942 46.8437L58.0405 44.5106L53.8666 44.4329Z" fill="#F5CE3E"/>
</svg>
