<svg width="91" height="138" viewBox="0 0 91 138" fill="none" xmlns="http://www.w3.org/2000/svg">
<path d="M26.9129 103H25.4729L24.7369 100.184H21.2489L20.5289 103H19.2489L22.2409 91.8H24.0009L26.9129 103ZM21.5209 99.16H24.4649L22.9769 93.512L21.5209 99.16ZM29.4989 101.624H34.7309V103H28.1069V91.8H29.4989V101.624ZM42.7868 93.384V95.544H41.4108V93.992L40.6108 93.192H38.0188L37.0108 94.216V100.552L38.0828 101.624H40.5468L41.4108 100.776V99H42.7868V101.336L41.1228 103H37.5868L35.6188 101.048V93.672L37.4908 91.8H41.2188L42.7868 93.384ZM43.9153 104.52H43.0353L46.5553 91.352H47.4353L43.9153 104.52ZM52.4991 103H50.7551L47.8431 91.8H49.2351L51.7311 101.304L54.1791 91.8H55.4911L52.4991 103ZM63.3843 101.192L61.5603 103H57.8803L56.0723 101.192V93.528L57.8003 91.8H61.6563L63.3843 93.528V101.192ZM58.3603 93.176L57.4483 94.088V100.648L58.4083 101.624H61.0323L61.9923 100.648V94.088L61.0803 93.176H58.3603ZM66.4208 101.624H71.6528V103H65.0288V91.8H66.4208V101.624Z" fill="#F5CE3E"/>
<path d="M23.0859 131.8V121.2L25.1659 119H29.8059L31.8859 121.2V123.72H30.2259V121.96L29.0259 120.72H25.9659L24.8259 121.88V125.34H30.2659L32.2859 127.46V131.8L30.2059 134H25.1659L23.0859 131.8ZM24.8259 126.94V131.12L25.9659 132.28H29.4259L30.4459 131.22V128.04L29.3659 126.94H24.8259ZM35.0938 131.6H37.0938V133.4L35.8938 136.6H35.0938V131.6ZM47.2777 122.92V120.6H42.0777V124.94H47.2577L49.2777 127.06V131.8L47.1977 134H42.1577L40.0777 131.8V129.28H41.7377V131.04L42.9577 132.28H46.4177L47.4377 131.22V127.64L46.3577 126.54H40.4777V119H48.8777V122.92H47.2777ZM63.7855 134L62.4855 132.62V126.34L63.7855 124.96H67.2255L68.5055 126.34V132.62L67.2255 134H63.7855ZM64.3855 132.64H66.6255L67.1655 132.1V126.86L66.6255 126.32H64.3855L63.8455 126.86V132.1L64.3855 132.64ZM53.8055 128.04L52.5055 126.66V120.38L53.8055 119H57.2455L58.5255 120.38V126.66L57.2455 128.04H53.8055ZM54.4055 126.68H56.6455L57.1855 126.14V120.9L56.6455 120.36H54.4055L53.8655 120.9V126.14L54.4055 126.68ZM56.6855 134.7L62.7855 118.32H64.3255L58.2255 134.7H56.6855Z" fill="#F5CE3E"/>
<path d="M23.0859 131.8H22.5859V131.999L22.7226 132.144L23.0859 131.8ZM23.0859 121.2L22.7226 120.856L22.5859 121.001V121.2H23.0859ZM25.1659 119V118.5H24.9506L24.8026 118.656L25.1659 119ZM29.8059 119L30.1693 118.656L30.0213 118.5H29.8059V119ZM31.8859 121.2H32.3859V121.001L32.2493 120.856L31.8859 121.2ZM31.8859 123.72V124.22H32.3859V123.72H31.8859ZM30.2259 123.72H29.7259V124.22H30.2259V123.72ZM30.2259 121.96H30.7259V121.758L30.5852 121.612L30.2259 121.96ZM29.0259 120.72L29.3852 120.372L29.2379 120.22H29.0259V120.72ZM25.9659 120.72V120.22H25.7563L25.6093 120.37L25.9659 120.72ZM24.8259 121.88L24.4693 121.53L24.3259 121.675V121.88H24.8259ZM24.8259 125.34H24.3259V125.84H24.8259V125.34ZM30.2659 125.34L30.6279 124.995L30.4802 124.84H30.2659V125.34ZM32.2859 127.46H32.7859V127.26L32.6479 127.115L32.2859 127.46ZM32.2859 131.8L32.6493 132.144L32.7859 131.999V131.8H32.2859ZM30.2059 134V134.5H30.4213L30.5693 134.344L30.2059 134ZM25.1659 134L24.8026 134.344L24.9506 134.5H25.1659V134ZM24.8259 126.94V126.44H24.3259V126.94H24.8259ZM24.8259 131.12H24.3259V131.325L24.4693 131.47L24.8259 131.12ZM25.9659 132.28L25.6093 132.63L25.7563 132.78H25.9659V132.28ZM29.4259 132.28V132.78H29.6387L29.7862 132.627L29.4259 132.28ZM30.4459 131.22L30.8062 131.567L30.9459 131.421V131.22H30.4459ZM30.4459 128.04H30.9459V127.836L30.8027 127.69L30.4459 128.04ZM29.3659 126.94L29.7227 126.59L29.5757 126.44H29.3659V126.94ZM23.5859 131.8V121.2H22.5859V131.8H23.5859ZM23.4493 121.544L25.5293 119.344L24.8026 118.656L22.7226 120.856L23.4493 121.544ZM25.1659 119.5H29.8059V118.5H25.1659V119.5ZM29.4426 119.344L31.5226 121.544L32.2493 120.856L30.1693 118.656L29.4426 119.344ZM31.3859 121.2V123.72H32.3859V121.2H31.3859ZM31.8859 123.22H30.2259V124.22H31.8859V123.22ZM30.7259 123.72V121.96H29.7259V123.72H30.7259ZM30.5852 121.612L29.3852 120.372L28.6666 121.068L29.8666 122.308L30.5852 121.612ZM29.0259 120.22H25.9659V121.22H29.0259V120.22ZM25.6093 120.37L24.4693 121.53L25.1826 122.23L26.3226 121.07L25.6093 120.37ZM24.3259 121.88V125.34H25.3259V121.88H24.3259ZM24.8259 125.84H30.2659V124.84H24.8259V125.84ZM29.9039 125.685L31.924 127.805L32.6479 127.115L30.6279 124.995L29.9039 125.685ZM31.7859 127.46V131.8H32.7859V127.46H31.7859ZM31.9226 131.456L29.8426 133.656L30.5693 134.344L32.6493 132.144L31.9226 131.456ZM30.2059 133.5H25.1659V134.5H30.2059V133.5ZM25.5293 133.656L23.4493 131.456L22.7226 132.144L24.8026 134.344L25.5293 133.656ZM24.3259 126.94V131.12H25.3259V126.94H24.3259ZM24.4693 131.47L25.6093 132.63L26.3226 131.93L25.1826 130.77L24.4693 131.47ZM25.9659 132.78H29.4259V131.78H25.9659V132.78ZM29.7862 132.627L30.8062 131.567L30.0857 130.873L29.0657 131.933L29.7862 132.627ZM30.9459 131.22V128.04H29.9459V131.22H30.9459ZM30.8027 127.69L29.7227 126.59L29.0092 127.29L30.0892 128.39L30.8027 127.69ZM29.3659 126.44H24.8259V127.44H29.3659V126.44ZM35.0938 131.6V131.1H34.5938V131.6H35.0938ZM37.0938 131.6H37.5938V131.1H37.0938V131.6ZM37.0938 133.4L37.5619 133.576L37.5938 133.491V133.4H37.0938ZM35.8937 136.6V137.1H36.2402L36.3619 136.776L35.8937 136.6ZM35.0938 136.6H34.5938V137.1H35.0938V136.6ZM35.0938 132.1H37.0938V131.1H35.0938V132.1ZM36.5938 131.6V133.4H37.5938V131.6H36.5938ZM36.6256 133.224L35.4256 136.424L36.3619 136.776L37.5619 133.576L36.6256 133.224ZM35.8937 136.1H35.0938V137.1H35.8937V136.1ZM35.5938 136.6V131.6H34.5938V136.6H35.5938ZM47.2777 122.92H46.7777V123.42H47.2777V122.92ZM47.2777 120.6H47.7777V120.1H47.2777V120.6ZM42.0777 120.6V120.1H41.5777V120.6H42.0777ZM42.0777 124.94H41.5777V125.44H42.0777V124.94ZM47.2577 124.94L47.6196 124.595L47.4719 124.44H47.2577V124.94ZM49.2777 127.06H49.7777V126.86L49.6396 126.715L49.2777 127.06ZM49.2777 131.8L49.641 132.144L49.7777 131.999V131.8H49.2777ZM47.1977 134V134.5H47.413L47.561 134.344L47.1977 134ZM42.1577 134L41.7943 134.344L41.9423 134.5H42.1577V134ZM40.0777 131.8H39.5777V131.999L39.7143 132.144L40.0777 131.8ZM40.0777 129.28V128.78H39.5777V129.28H40.0777ZM41.7377 129.28H42.2377V128.78H41.7377V129.28ZM41.7377 131.04H41.2377V131.245L41.3812 131.391L41.7377 131.04ZM42.9577 132.28L42.6012 132.631L42.7482 132.78H42.9577V132.28ZM46.4177 132.28V132.78H46.6304L46.7779 132.627L46.4177 132.28ZM47.4377 131.22L47.7979 131.567L47.9377 131.421V131.22H47.4377ZM47.4377 127.64H47.9377V127.436L47.7944 127.29L47.4377 127.64ZM46.3577 126.54L46.7144 126.19L46.5675 126.04H46.3577V126.54ZM40.4777 126.54H39.9777V127.04H40.4777V126.54ZM40.4777 119V118.5H39.9777V119H40.4777ZM48.8777 119H49.3777V118.5H48.8777V119ZM48.8777 122.92V123.42H49.3777V122.92H48.8777ZM47.7777 122.92V120.6H46.7777V122.92H47.7777ZM47.2777 120.1H42.0777V121.1H47.2777V120.1ZM41.5777 120.6V124.94H42.5777V120.6H41.5777ZM42.0777 125.44H47.2577V124.44H42.0777V125.44ZM46.8957 125.285L48.9157 127.405L49.6396 126.715L47.6196 124.595L46.8957 125.285ZM48.7777 127.06V131.8H49.7777V127.06H48.7777ZM48.9143 131.456L46.8343 133.656L47.561 134.344L49.641 132.144L48.9143 131.456ZM47.1977 133.5H42.1577V134.5H47.1977V133.5ZM42.521 133.656L40.441 131.456L39.7143 132.144L41.7943 134.344L42.521 133.656ZM40.5777 131.8V129.28H39.5777V131.8H40.5777ZM40.0777 129.78H41.7377V128.78H40.0777V129.78ZM41.2377 129.28V131.04H42.2377V129.28H41.2377ZM41.3812 131.391L42.6012 132.631L43.3141 131.929L42.0941 130.689L41.3812 131.391ZM42.9577 132.78H46.4177V131.78H42.9577V132.78ZM46.7779 132.627L47.7979 131.567L47.0774 130.873L46.0574 131.933L46.7779 132.627ZM47.9377 131.22V127.64H46.9377V131.22H47.9377ZM47.7944 127.29L46.7144 126.19L46.0009 126.89L47.0809 127.99L47.7944 127.29ZM46.3577 126.04H40.4777V127.04H46.3577V126.04ZM40.9777 126.54V119H39.9777V126.54H40.9777ZM40.4777 119.5H48.8777V118.5H40.4777V119.5ZM48.3777 119V122.92H49.3777V119H48.3777ZM48.8777 122.42H47.2777V123.42H48.8777V122.42ZM63.7855 134L63.4215 134.343L63.5696 134.5H63.7855V134ZM62.4855 132.62H61.9855V132.818L62.1215 132.963L62.4855 132.62ZM62.4855 126.34L62.1215 125.997L61.9855 126.142V126.34H62.4855ZM63.7855 124.96V124.46H63.5696L63.4215 124.617L63.7855 124.96ZM67.2255 124.96L67.5921 124.62L67.4437 124.46H67.2255V124.96ZM68.5055 126.34H69.0055V126.144L68.8721 126L68.5055 126.34ZM68.5055 132.62L68.8721 132.96L69.0055 132.816V132.62H68.5055ZM67.2255 134V134.5H67.4437L67.5921 134.34L67.2255 134ZM64.3855 132.64L64.0319 132.994L64.1784 133.14H64.3855V132.64ZM66.6255 132.64V133.14H66.8326L66.979 132.994L66.6255 132.64ZM67.1655 132.1L67.519 132.454L67.6655 132.307V132.1H67.1655ZM67.1655 126.86H67.6655V126.653L67.519 126.506L67.1655 126.86ZM66.6255 126.32L66.979 125.966L66.8326 125.82H66.6255V126.32ZM64.3855 126.32V125.82H64.1784L64.0319 125.966L64.3855 126.32ZM63.8455 126.86L63.4919 126.506L63.3455 126.653V126.86H63.8455ZM63.8455 132.1H63.3455V132.307L63.4919 132.454L63.8455 132.1ZM53.8055 128.04L53.4415 128.383L53.5896 128.54H53.8055V128.04ZM52.5055 126.66H52.0055V126.858L52.1415 127.003L52.5055 126.66ZM52.5055 120.38L52.1415 120.037L52.0055 120.182V120.38H52.5055ZM53.8055 119V118.5H53.5896L53.4415 118.657L53.8055 119ZM57.2455 119L57.6121 118.66L57.4637 118.5H57.2455V119ZM58.5255 120.38H59.0255V120.184L58.8921 120.04L58.5255 120.38ZM58.5255 126.66L58.8921 127L59.0255 126.856V126.66H58.5255ZM57.2455 128.04V128.54H57.4637L57.6121 128.38L57.2455 128.04ZM54.4055 126.68L54.0519 127.034L54.1984 127.18H54.4055V126.68ZM56.6455 126.68V127.18H56.8526L56.999 127.034L56.6455 126.68ZM57.1855 126.14L57.539 126.494L57.6855 126.347V126.14H57.1855ZM57.1855 120.9H57.6855V120.693L57.539 120.546L57.1855 120.9ZM56.6455 120.36L56.999 120.006L56.8526 119.86H56.6455V120.36ZM54.4055 120.36V119.86H54.1984L54.0519 120.006L54.4055 120.36ZM53.8655 120.9L53.5119 120.546L53.3655 120.693V120.9H53.8655ZM53.8655 126.14H53.3655V126.347L53.5119 126.494L53.8655 126.14ZM56.6855 134.7L56.2169 134.526L55.9657 135.2H56.6855V134.7ZM62.7855 118.32V117.82H62.4381L62.3169 118.146L62.7855 118.32ZM64.3255 118.32L64.794 118.494L65.0452 117.82H64.3255V118.32ZM58.2255 134.7V135.2H58.5728L58.694 134.874L58.2255 134.7ZM64.1494 133.657L62.8494 132.277L62.1215 132.963L63.4215 134.343L64.1494 133.657ZM62.9855 132.62V126.34H61.9855V132.62H62.9855ZM62.8494 126.683L64.1494 125.303L63.4215 124.617L62.1215 125.997L62.8494 126.683ZM63.7855 125.46H67.2255V124.46H63.7855V125.46ZM66.8589 125.3L68.1389 126.68L68.8721 126L67.5921 124.62L66.8589 125.3ZM68.0055 126.34V132.62H69.0055V126.34H68.0055ZM68.1389 132.28L66.8589 133.66L67.5921 134.34L68.8721 132.96L68.1389 132.28ZM67.2255 133.5H63.7855V134.5H67.2255V133.5ZM64.3855 133.14H66.6255V132.14H64.3855V133.14ZM66.979 132.994L67.519 132.454L66.8119 131.746L66.2719 132.286L66.979 132.994ZM67.6655 132.1V126.86H66.6655V132.1H67.6655ZM67.519 126.506L66.979 125.966L66.2719 126.674L66.8119 127.214L67.519 126.506ZM66.6255 125.82H64.3855V126.82H66.6255V125.82ZM64.0319 125.966L63.4919 126.506L64.199 127.214L64.739 126.674L64.0319 125.966ZM63.3455 126.86V132.1H64.3455V126.86H63.3455ZM63.4919 132.454L64.0319 132.994L64.739 132.286L64.199 131.746L63.4919 132.454ZM54.1694 127.697L52.8694 126.317L52.1415 127.003L53.4415 128.383L54.1694 127.697ZM53.0055 126.66V120.38H52.0055V126.66H53.0055ZM52.8694 120.723L54.1694 119.343L53.4415 118.657L52.1415 120.037L52.8694 120.723ZM53.8055 119.5H57.2455V118.5H53.8055V119.5ZM56.8789 119.34L58.1589 120.72L58.8921 120.04L57.6121 118.66L56.8789 119.34ZM58.0255 120.38V126.66H59.0255V120.38H58.0255ZM58.1589 126.32L56.8789 127.7L57.6121 128.38L58.8921 127L58.1589 126.32ZM57.2455 127.54H53.8055V128.54H57.2455V127.54ZM54.4055 127.18H56.6455V126.18H54.4055V127.18ZM56.999 127.034L57.539 126.494L56.8319 125.786L56.2919 126.326L56.999 127.034ZM57.6855 126.14V120.9H56.6855V126.14H57.6855ZM57.539 120.546L56.999 120.006L56.2919 120.714L56.8319 121.254L57.539 120.546ZM56.6455 119.86H54.4055V120.86H56.6455V119.86ZM54.0519 120.006L53.5119 120.546L54.219 121.254L54.759 120.714L54.0519 120.006ZM53.3655 120.9V126.14H54.3655V120.9H53.3655ZM53.5119 126.494L54.0519 127.034L54.759 126.326L54.219 125.786L53.5119 126.494ZM57.154 134.874L63.254 118.494L62.3169 118.146L56.2169 134.526L57.154 134.874ZM62.7855 118.82H64.3255V117.82H62.7855V118.82ZM63.8569 118.146L57.7569 134.526L58.694 134.874L64.794 118.494L63.8569 118.146ZM58.2255 134.2H56.6855V135.2H58.2255V134.2Z" fill="#F5CE3E"/>
<path d="M54.716 27.0901C50.7276 19.5723 46.6696 13.1692 46.6232 13.1173L44.9073 10.4213L43.1913 13.1173C43.1449 13.1692 39.087 19.5723 35.0986 27.0901C29.6029 37.4336 26.7971 44.9773 26.7971 49.5139C26.7971 60.661 34.9131 69.7343 44.8841 69.7343C54.8551 69.7343 62.971 60.661 62.971 49.5139C62.9942 45.0032 60.2116 37.4595 54.716 27.0901ZM44.9073 65.068C37.2551 65.068 31.0174 58.0946 31.0174 49.5398C31.0174 42.9034 39.8754 26.9086 44.9073 18.6131C49.9391 26.9086 58.7971 42.9034 58.7971 49.5398C58.8203 58.0946 52.5826 65.068 44.9073 65.068Z" fill="#F5CE3E"/>
<path d="M50.8667 44.4329L50.8203 46.766C50.8203 47.103 50.542 55.1653 43.7942 56.2281L41.7073 56.5392L42.287 61.1795L44.3739 60.8684C48.6638 60.1944 51.8638 57.5243 53.6493 53.1432C54.9478 49.9806 54.9942 46.9734 54.9942 46.8438L55.0406 44.5107L50.8667 44.4329Z" fill="#F5CE3E"/>
</svg>
