<svg width="91" height="138" viewBox="0 0 91 138" fill="none" xmlns="http://www.w3.org/2000/svg">
<path d="M26.9129 103H25.4729L24.7369 100.184H21.2489L20.5289 103H19.2489L22.2409 91.8H24.0009L26.9129 103ZM21.5209 99.16H24.4649L22.9769 93.512L21.5209 99.16ZM29.4989 101.624H34.7309V103H28.1069V91.8H29.4989V101.624ZM42.7868 93.384V95.544H41.4108V93.992L40.6108 93.192H38.0188L37.0108 94.216V100.552L38.0828 101.624H40.5468L41.4108 100.776V99H42.7868V101.336L41.1228 103H37.5868L35.6188 101.048V93.672L37.4908 91.8H41.2188L42.7868 93.384ZM43.9153 104.52H43.0353L46.5553 91.352H47.4353L43.9153 104.52ZM52.4991 103H50.7551L47.8431 91.8H49.2351L51.7311 101.304L54.1791 91.8H55.4911L52.4991 103ZM63.3843 101.192L61.5603 103H57.8803L56.0723 101.192V93.528L57.8003 91.8H61.6563L63.3843 93.528V101.192ZM58.3603 93.176L57.4483 94.088V100.648L58.4083 101.624H61.0323L61.9923 100.648V94.088L61.0803 93.176H58.3603ZM66.4208 101.624H71.6528V103H65.0288V91.8H66.4208V101.624Z" fill="#F6D351"/>
<path d="M30.2659 122.92V120.6H25.0659V124.94H30.2459L32.2659 127.06V131.8L30.1859 134H25.1459L23.0659 131.8V129.28H24.7259V131.04L25.9459 132.28H29.4059L30.4259 131.22V127.64L29.3459 126.54H23.4659V119H31.8659V122.92H30.2659ZM35.0938 131.6H37.0938V133.4L35.8938 136.6H35.0938V131.6ZM47.2777 122.92V120.6H42.0777V124.94H47.2577L49.2777 127.06V131.8L47.1977 134H42.1577L40.0777 131.8V129.28H41.7377V131.04L42.9577 132.28H46.4177L47.4377 131.22V127.64L46.3577 126.54H40.4777V119H48.8777V122.92H47.2777ZM63.7855 134L62.4855 132.62V126.34L63.7855 124.96H67.2255L68.5055 126.34V132.62L67.2255 134H63.7855ZM64.3855 132.64H66.6255L67.1655 132.1V126.86L66.6255 126.32H64.3855L63.8455 126.86V132.1L64.3855 132.64ZM53.8055 128.04L52.5055 126.66V120.38L53.8055 119H57.2455L58.5255 120.38V126.66L57.2455 128.04H53.8055ZM54.4055 126.68H56.6455L57.1855 126.14V120.9L56.6455 120.36H54.4055L53.8655 120.9V126.14L54.4055 126.68ZM56.6855 134.7L62.7855 118.32H64.3255L58.2255 134.7H56.6855Z" fill="#F6D351"/>
<path d="M30.2659 122.92H29.7659V123.42H30.2659V122.92ZM30.2659 120.6H30.7659V120.1H30.2659V120.6ZM25.0659 120.6V120.1H24.5659V120.6H25.0659ZM25.0659 124.94H24.5659V125.44H25.0659V124.94ZM30.2459 124.94L30.6079 124.595L30.4602 124.44H30.2459V124.94ZM32.2659 127.06H32.7659V126.86L32.6279 126.715L32.2659 127.06ZM32.2659 131.8L32.6293 132.144L32.7659 131.999V131.8H32.2659ZM30.1859 134V134.5H30.4013L30.5493 134.344L30.1859 134ZM25.1459 134L24.7826 134.344L24.9306 134.5H25.1459V134ZM23.0659 131.8H22.5659V131.999L22.7026 132.144L23.0659 131.8ZM23.0659 129.28V128.78H22.5659V129.28H23.0659ZM24.7259 129.28H25.2259V128.78H24.7259V129.28ZM24.7259 131.04H24.2259V131.245L24.3695 131.391L24.7259 131.04ZM25.9459 132.28L25.5895 132.631L25.7364 132.78H25.9459V132.28ZM29.4059 132.28V132.78H29.6187L29.7662 132.627L29.4059 132.28ZM30.4259 131.22L30.7862 131.567L30.9259 131.421V131.22H30.4259ZM30.4259 127.64H30.9259V127.436L30.7827 127.29L30.4259 127.64ZM29.3459 126.54L29.7027 126.19L29.5557 126.04H29.3459V126.54ZM23.4659 126.54H22.9659V127.04H23.4659V126.54ZM23.4659 119V118.5H22.9659V119H23.4659ZM31.8659 119H32.3659V118.5H31.8659V119ZM31.8659 122.92V123.42H32.3659V122.92H31.8659ZM30.7659 122.92V120.6H29.7659V122.92H30.7659ZM30.2659 120.1H25.0659V121.1H30.2659V120.1ZM24.5659 120.6V124.94H25.5659V120.6H24.5659ZM25.0659 125.44H30.2459V124.44H25.0659V125.44ZM29.884 125.285L31.9039 127.405L32.6279 126.715L30.6079 124.595L29.884 125.285ZM31.7659 127.06V131.8H32.7659V127.06H31.7659ZM31.9026 131.456L29.8226 133.656L30.5493 134.344L32.6293 132.144L31.9026 131.456ZM30.1859 133.5H25.1459V134.5H30.1859V133.5ZM25.5093 133.656L23.4293 131.456L22.7026 132.144L24.7826 134.344L25.5093 133.656ZM23.5659 131.8V129.28H22.5659V131.8H23.5659ZM23.0659 129.78H24.7259V128.78H23.0659V129.78ZM24.2259 129.28V131.04H25.2259V129.28H24.2259ZM24.3695 131.391L25.5895 132.631L26.3024 131.929L25.0824 130.689L24.3695 131.391ZM25.9459 132.78H29.4059V131.78H25.9459V132.78ZM29.7662 132.627L30.7862 131.567L30.0657 130.873L29.0457 131.933L29.7662 132.627ZM30.9259 131.22V127.64H29.9259V131.22H30.9259ZM30.7827 127.29L29.7027 126.19L28.9892 126.89L30.0692 127.99L30.7827 127.29ZM29.3459 126.04H23.4659V127.04H29.3459V126.04ZM23.9659 126.54V119H22.9659V126.54H23.9659ZM23.4659 119.5H31.8659V118.5H23.4659V119.5ZM31.3659 119V122.92H32.3659V119H31.3659ZM31.8659 122.42H30.2659V123.42H31.8659V122.42ZM35.0938 131.6V131.1H34.5938V131.6H35.0938ZM37.0938 131.6H37.5938V131.1H37.0938V131.6ZM37.0938 133.4L37.5619 133.576L37.5938 133.491V133.4H37.0938ZM35.8937 136.6V137.1H36.2402L36.3619 136.776L35.8937 136.6ZM35.0938 136.6H34.5938V137.1H35.0938V136.6ZM35.0938 132.1H37.0938V131.1H35.0938V132.1ZM36.5938 131.6V133.4H37.5938V131.6H36.5938ZM36.6256 133.224L35.4256 136.424L36.3619 136.776L37.5619 133.576L36.6256 133.224ZM35.8937 136.1H35.0938V137.1H35.8937V136.1ZM35.5938 136.6V131.6H34.5938V136.6H35.5938ZM47.2777 122.92H46.7777V123.42H47.2777V122.92ZM47.2777 120.6H47.7777V120.1H47.2777V120.6ZM42.0777 120.6V120.1H41.5777V120.6H42.0777ZM42.0777 124.94H41.5777V125.44H42.0777V124.94ZM47.2577 124.94L47.6196 124.595L47.4719 124.44H47.2577V124.94ZM49.2777 127.06H49.7777V126.86L49.6396 126.715L49.2777 127.06ZM49.2777 131.8L49.641 132.144L49.7777 131.999V131.8H49.2777ZM47.1977 134V134.5H47.413L47.561 134.344L47.1977 134ZM42.1577 134L41.7943 134.344L41.9423 134.5H42.1577V134ZM40.0777 131.8H39.5777V131.999L39.7143 132.144L40.0777 131.8ZM40.0777 129.28V128.78H39.5777V129.28H40.0777ZM41.7377 129.28H42.2377V128.78H41.7377V129.28ZM41.7377 131.04H41.2377V131.245L41.3812 131.391L41.7377 131.04ZM42.9577 132.28L42.6012 132.631L42.7482 132.78H42.9577V132.28ZM46.4177 132.28V132.78H46.6304L46.7779 132.627L46.4177 132.28ZM47.4377 131.22L47.7979 131.567L47.9377 131.421V131.22H47.4377ZM47.4377 127.64H47.9377V127.436L47.7944 127.29L47.4377 127.64ZM46.3577 126.54L46.7144 126.19L46.5675 126.04H46.3577V126.54ZM40.4777 126.54H39.9777V127.04H40.4777V126.54ZM40.4777 119V118.5H39.9777V119H40.4777ZM48.8777 119H49.3777V118.5H48.8777V119ZM48.8777 122.92V123.42H49.3777V122.92H48.8777ZM47.7777 122.92V120.6H46.7777V122.92H47.7777ZM47.2777 120.1H42.0777V121.1H47.2777V120.1ZM41.5777 120.6V124.94H42.5777V120.6H41.5777ZM42.0777 125.44H47.2577V124.44H42.0777V125.44ZM46.8957 125.285L48.9157 127.405L49.6396 126.715L47.6196 124.595L46.8957 125.285ZM48.7777 127.06V131.8H49.7777V127.06H48.7777ZM48.9143 131.456L46.8343 133.656L47.561 134.344L49.641 132.144L48.9143 131.456ZM47.1977 133.5H42.1577V134.5H47.1977V133.5ZM42.521 133.656L40.441 131.456L39.7143 132.144L41.7943 134.344L42.521 133.656ZM40.5777 131.8V129.28H39.5777V131.8H40.5777ZM40.0777 129.78H41.7377V128.78H40.0777V129.78ZM41.2377 129.28V131.04H42.2377V129.28H41.2377ZM41.3812 131.391L42.6012 132.631L43.3141 131.929L42.0941 130.689L41.3812 131.391ZM42.9577 132.78H46.4177V131.78H42.9577V132.78ZM46.7779 132.627L47.7979 131.567L47.0774 130.873L46.0574 131.933L46.7779 132.627ZM47.9377 131.22V127.64H46.9377V131.22H47.9377ZM47.7944 127.29L46.7144 126.19L46.0009 126.89L47.0809 127.99L47.7944 127.29ZM46.3577 126.04H40.4777V127.04H46.3577V126.04ZM40.9777 126.54V119H39.9777V126.54H40.9777ZM40.4777 119.5H48.8777V118.5H40.4777V119.5ZM48.3777 119V122.92H49.3777V119H48.3777ZM48.8777 122.42H47.2777V123.42H48.8777V122.42ZM63.7855 134L63.4215 134.343L63.5696 134.5H63.7855V134ZM62.4855 132.62H61.9855V132.818L62.1215 132.963L62.4855 132.62ZM62.4855 126.34L62.1215 125.997L61.9855 126.142V126.34H62.4855ZM63.7855 124.96V124.46H63.5696L63.4215 124.617L63.7855 124.96ZM67.2255 124.96L67.5921 124.62L67.4437 124.46H67.2255V124.96ZM68.5055 126.34H69.0055V126.144L68.8721 126L68.5055 126.34ZM68.5055 132.62L68.8721 132.96L69.0055 132.816V132.62H68.5055ZM67.2255 134V134.5H67.4437L67.5921 134.34L67.2255 134ZM64.3855 132.64L64.0319 132.994L64.1784 133.14H64.3855V132.64ZM66.6255 132.64V133.14H66.8326L66.979 132.994L66.6255 132.64ZM67.1655 132.1L67.519 132.454L67.6655 132.307V132.1H67.1655ZM67.1655 126.86H67.6655V126.653L67.519 126.506L67.1655 126.86ZM66.6255 126.32L66.979 125.966L66.8326 125.82H66.6255V126.32ZM64.3855 126.32V125.82H64.1784L64.0319 125.966L64.3855 126.32ZM63.8455 126.86L63.4919 126.506L63.3455 126.653V126.86H63.8455ZM63.8455 132.1H63.3455V132.307L63.4919 132.454L63.8455 132.1ZM53.8055 128.04L53.4415 128.383L53.5896 128.54H53.8055V128.04ZM52.5055 126.66H52.0055V126.858L52.1415 127.003L52.5055 126.66ZM52.5055 120.38L52.1415 120.037L52.0055 120.182V120.38H52.5055ZM53.8055 119V118.5H53.5896L53.4415 118.657L53.8055 119ZM57.2455 119L57.6121 118.66L57.4637 118.5H57.2455V119ZM58.5255 120.38H59.0255V120.184L58.8921 120.04L58.5255 120.38ZM58.5255 126.66L58.8921 127L59.0255 126.856V126.66H58.5255ZM57.2455 128.04V128.54H57.4637L57.6121 128.38L57.2455 128.04ZM54.4055 126.68L54.0519 127.034L54.1984 127.18H54.4055V126.68ZM56.6455 126.68V127.18H56.8526L56.999 127.034L56.6455 126.68ZM57.1855 126.14L57.539 126.494L57.6855 126.347V126.14H57.1855ZM57.1855 120.9H57.6855V120.693L57.539 120.546L57.1855 120.9ZM56.6455 120.36L56.999 120.006L56.8526 119.86H56.6455V120.36ZM54.4055 120.36V119.86H54.1984L54.0519 120.006L54.4055 120.36ZM53.8655 120.9L53.5119 120.546L53.3655 120.693V120.9H53.8655ZM53.8655 126.14H53.3655V126.347L53.5119 126.494L53.8655 126.14ZM56.6855 134.7L56.2169 134.526L55.9657 135.2H56.6855V134.7ZM62.7855 118.32V117.82H62.4381L62.3169 118.146L62.7855 118.32ZM64.3255 118.32L64.794 118.494L65.0452 117.82H64.3255V118.32ZM58.2255 134.7V135.2H58.5728L58.694 134.874L58.2255 134.7ZM64.1494 133.657L62.8494 132.277L62.1215 132.963L63.4215 134.343L64.1494 133.657ZM62.9855 132.62V126.34H61.9855V132.62H62.9855ZM62.8494 126.683L64.1494 125.303L63.4215 124.617L62.1215 125.997L62.8494 126.683ZM63.7855 125.46H67.2255V124.46H63.7855V125.46ZM66.8589 125.3L68.1389 126.68L68.8721 126L67.5921 124.62L66.8589 125.3ZM68.0055 126.34V132.62H69.0055V126.34H68.0055ZM68.1389 132.28L66.8589 133.66L67.5921 134.34L68.8721 132.96L68.1389 132.28ZM67.2255 133.5H63.7855V134.5H67.2255V133.5ZM64.3855 133.14H66.6255V132.14H64.3855V133.14ZM66.979 132.994L67.519 132.454L66.8119 131.746L66.2719 132.286L66.979 132.994ZM67.6655 132.1V126.86H66.6655V132.1H67.6655ZM67.519 126.506L66.979 125.966L66.2719 126.674L66.8119 127.214L67.519 126.506ZM66.6255 125.82H64.3855V126.82H66.6255V125.82ZM64.0319 125.966L63.4919 126.506L64.199 127.214L64.739 126.674L64.0319 125.966ZM63.3455 126.86V132.1H64.3455V126.86H63.3455ZM63.4919 132.454L64.0319 132.994L64.739 132.286L64.199 131.746L63.4919 132.454ZM54.1694 127.697L52.8694 126.317L52.1415 127.003L53.4415 128.383L54.1694 127.697ZM53.0055 126.66V120.38H52.0055V126.66H53.0055ZM52.8694 120.723L54.1694 119.343L53.4415 118.657L52.1415 120.037L52.8694 120.723ZM53.8055 119.5H57.2455V118.5H53.8055V119.5ZM56.8789 119.34L58.1589 120.72L58.8921 120.04L57.6121 118.66L56.8789 119.34ZM58.0255 120.38V126.66H59.0255V120.38H58.0255ZM58.1589 126.32L56.8789 127.7L57.6121 128.38L58.8921 127L58.1589 126.32ZM57.2455 127.54H53.8055V128.54H57.2455V127.54ZM54.4055 127.18H56.6455V126.18H54.4055V127.18ZM56.999 127.034L57.539 126.494L56.8319 125.786L56.2919 126.326L56.999 127.034ZM57.6855 126.14V120.9H56.6855V126.14H57.6855ZM57.539 120.546L56.999 120.006L56.2919 120.714L56.8319 121.254L57.539 120.546ZM56.6455 119.86H54.4055V120.86H56.6455V119.86ZM54.0519 120.006L53.5119 120.546L54.219 121.254L54.759 120.714L54.0519 120.006ZM53.3655 120.9V126.14H54.3655V120.9H53.3655ZM53.5119 126.494L54.0519 127.034L54.759 126.326L54.219 125.786L53.5119 126.494ZM57.154 134.874L63.254 118.494L62.3169 118.146L56.2169 134.526L57.154 134.874ZM62.7855 118.82H64.3255V117.82H62.7855V118.82ZM63.8569 118.146L57.7569 134.526L58.694 134.874L64.794 118.494L63.8569 118.146ZM58.2255 134.2H56.6855V135.2H58.2255V134.2Z" fill="#F6D351"/>
<path d="M54.7159 27.09C50.7275 19.5721 46.6696 13.169 46.6232 13.1172L44.9072 10.4211L43.1913 13.1172C43.1449 13.169 39.0869 19.5721 35.0985 27.09C29.6029 37.4334 26.7971 44.9772 26.7971 49.5138C26.7971 60.6609 34.913 69.7341 44.884 69.7341C54.8551 69.7341 62.971 60.6609 62.971 49.5138C62.9942 45.0031 60.2116 37.4594 54.7159 27.09ZM44.9072 65.0679C37.2551 65.0679 31.0174 58.0945 31.0174 49.5397C31.0174 42.9033 39.8753 26.9085 44.9072 18.613C49.9391 26.9085 58.7971 42.9033 58.7971 49.5397C58.8203 58.0945 52.5826 65.0679 44.9072 65.0679Z" fill="#F7CE3C"/>
<path d="M50.8668 44.4329L50.8204 46.766C50.8204 47.103 50.5422 55.1652 43.7944 56.2281L41.7074 56.5391L42.2871 61.1794L44.3741 60.8684C48.6639 60.1944 51.8639 57.5242 53.6494 53.1432C54.948 49.9805 54.9944 46.9734 54.9944 46.8437L55.0407 44.5106L50.8668 44.4329Z" fill="#F7CE3C"/>
</svg>
