<svg width="91" height="138" viewBox="0 0 91 138" fill="none" xmlns="http://www.w3.org/2000/svg">
<path d="M23.0301 103H21.5901L20.8541 100.184H17.3661L16.6461 103H15.3661L18.3581 91.8H20.1181L23.0301 103ZM17.6381 99.16H20.5821L19.0941 93.512L17.6381 99.16ZM32.2721 103H30.9441V93.768L28.6081 98.008H27.8881L25.5521 93.768V103H24.2241V91.8H25.8881L28.3041 96.232L30.7201 91.8H32.2721V103ZM41.1239 103H39.6839L38.9479 100.184H35.4599L34.7399 103H33.4599L36.4519 91.8H38.2119L41.1239 103ZM35.7319 99.16H38.6759L37.1879 93.512L35.7319 99.16ZM49.1339 93.384V96.632L47.6139 98.152H46.7819L48.9259 103H47.4859L45.3739 98.152H43.6939V103H42.3179V91.8H47.5659L49.1339 93.384ZM43.6939 93.192V96.936H46.9579L47.7579 96.136V93.992L46.9579 93.192H43.6939ZM57.9234 95.368H56.5314V93.992L55.7314 93.176H53.0114L51.9874 94.2V100.552L53.0594 101.624H55.3634L56.5314 100.44V98.12H54.4674V96.984H57.9234V103H56.5954V101.736L55.3314 103H52.5634L50.6114 101.032V93.672L52.4834 91.8H56.3394L57.9234 93.384V95.368ZM66.7359 101.192L64.9119 103H61.2319L59.4239 101.192V93.528L61.1519 91.8H65.0079L66.7359 93.528V101.192ZM61.7119 93.176L60.7999 94.088V100.648L61.7599 101.624H64.3839L65.3439 100.648V94.088L64.4319 93.176H61.7119ZM75.1964 93.384V96.632L73.6764 98.152H72.8444L74.9884 103H73.5484L71.4364 98.152H69.7564V103H68.3804V91.8H73.6284L75.1964 93.384ZM69.7564 93.192V96.936H73.0204L73.8204 96.136V93.992L73.0204 93.192H69.7564Z" fill="#F6D351"/>
<path d="M10.7473 131.8V127.66L12.0473 126.28L10.9473 125.12V121.2L13.0273 119H17.8873L19.9673 121.2V125.12L18.8473 126.3L20.1473 127.66V131.8L18.0673 134H12.8273L10.7473 131.8ZM17.3473 127.26H13.5473L12.5873 128.24V131.22L13.6273 132.28H17.2873L18.3073 131.22V128.24L17.3473 127.26ZM12.7873 124.54L13.7673 125.54H17.1473L18.1273 124.54V121.78L17.0873 120.72H13.8273L12.7873 121.78V124.54ZM30.3473 132.4H31.9473V120.6H30.3473V119H35.3873V120.6H33.7873V132.4H35.3873V134H30.3473V132.4ZM38.3793 119H46.3793L48.4593 121.2V124.8L47.3793 125.94L48.8593 127.48V131.8L46.7793 134H38.3793V132.4H39.7793V120.6H38.3793V119ZM41.6193 126.88V132.28H45.9793L47.1393 131.1V128.18L45.8793 126.88H41.6193ZM41.6193 120.72V125.28H45.5793L46.7393 124.1V121.9L45.5993 120.72H41.6193ZM59.4112 119H63.8512V120.6H62.6512V131.8L60.5712 134H55.1312L53.0512 131.8V120.6H51.8512V119H56.2912V120.6H54.8912V131.22L55.9112 132.28H59.7712L60.8112 131.22V120.6H59.4112V119ZM66.6559 118H68.6559V119.8L67.4559 123H66.6559V118ZM80.4605 125.72H78.8005V123.96L77.6005 122.72H74.5405L73.5005 123.78V125.74L74.4805 126.74H78.6405L80.6605 128.86V131.8L78.5805 134H73.5405L71.4605 131.8V129.28H73.1205V131.04L74.3405 132.28H77.8005L78.8205 131.22V129.44L77.8605 128.46H73.7005L71.6605 126.32V123.2L73.7405 121H78.3805L80.4605 123.2V125.72Z" fill="#F6D351"/>
<path d="M10.7473 131.8H10.2473V131.999L10.3839 132.144L10.7473 131.8ZM10.7473 127.66L10.3833 127.317L10.2473 127.462V127.66H10.7473ZM12.0473 126.28L12.4112 126.623L12.7353 126.279L12.4101 125.936L12.0473 126.28ZM10.9473 125.12H10.4473V125.319L10.5845 125.464L10.9473 125.12ZM10.9473 121.2L10.5839 120.856L10.4473 121.001V121.2H10.9473ZM13.0273 119V118.5H12.8119L12.6639 118.656L13.0273 119ZM17.8873 119L18.2506 118.656L18.1026 118.5H17.8873V119ZM19.9673 121.2H20.4673V121.001L20.3306 120.856L19.9673 121.2ZM19.9673 125.12L20.3299 125.464L20.4673 125.32V125.12H19.9673ZM18.8473 126.3L18.4846 125.956L18.1567 126.301L18.4858 126.645L18.8473 126.3ZM20.1473 127.66H20.6473V127.459L20.5087 127.315L20.1473 127.66ZM20.1473 131.8L20.5106 132.144L20.6473 131.999V131.8H20.1473ZM18.0673 134V134.5H18.2826L18.4306 134.344L18.0673 134ZM12.8273 134L12.4639 134.344L12.6119 134.5H12.8273V134ZM17.3473 127.26L17.7044 126.91L17.5574 126.76H17.3473V127.26ZM13.5473 127.26V126.76H13.3371L13.1901 126.91L13.5473 127.26ZM12.5873 128.24L12.2301 127.89L12.0873 128.036V128.24H12.5873ZM12.5873 131.22H12.0873V131.424L12.2304 131.57L12.5873 131.22ZM13.6273 132.28L13.2704 132.63L13.4174 132.78H13.6273V132.28ZM17.2873 132.28V132.78H17.5L17.6476 132.627L17.2873 132.28ZM18.3073 131.22L18.6676 131.567L18.8073 131.421V131.22H18.3073ZM18.3073 128.24H18.8073V128.036L18.6644 127.89L18.3073 128.24ZM12.7873 124.54H12.2873V124.744L12.4302 124.89L12.7873 124.54ZM13.7673 125.54L13.4102 125.89L13.5572 126.04H13.7673V125.54ZM17.1473 125.54V126.04H17.3573L17.5044 125.89L17.1473 125.54ZM18.1273 124.54L18.4844 124.89L18.6273 124.744V124.54H18.1273ZM18.1273 121.78H18.6273V121.576L18.4842 121.43L18.1273 121.78ZM17.0873 120.72L17.4442 120.37L17.2972 120.22H17.0873V120.72ZM13.8273 120.72V120.22H13.6174L13.4704 120.37L13.8273 120.72ZM12.7873 121.78L12.4304 121.43L12.2873 121.576V121.78H12.7873ZM11.2473 131.8V127.66H10.2473V131.8H11.2473ZM11.1112 128.003L12.4112 126.623L11.6833 125.937L10.3833 127.317L11.1112 128.003ZM12.4101 125.936L11.3101 124.776L10.5845 125.464L11.6845 126.624L12.4101 125.936ZM11.4473 125.12V121.2H10.4473V125.12H11.4473ZM11.3106 121.544L13.3906 119.344L12.6639 118.656L10.5839 120.856L11.3106 121.544ZM13.0273 119.5H17.8873V118.5H13.0273V119.5ZM17.5239 119.344L19.6039 121.544L20.3306 120.856L18.2506 118.656L17.5239 119.344ZM19.4673 121.2V125.12H20.4673V121.2H19.4673ZM19.6046 124.776L18.4846 125.956L19.2099 126.644L20.3299 125.464L19.6046 124.776ZM18.4858 126.645L19.7858 128.005L20.5087 127.315L19.2087 125.955L18.4858 126.645ZM19.6473 127.66V131.8H20.6473V127.66H19.6473ZM19.7839 131.456L17.7039 133.656L18.4306 134.344L20.5106 132.144L19.7839 131.456ZM18.0673 133.5H12.8273V134.5H18.0673V133.5ZM13.1906 133.656L11.1106 131.456L10.3839 132.144L12.4639 134.344L13.1906 133.656ZM17.3473 126.76H13.5473V127.76H17.3473V126.76ZM13.1901 126.91L12.2301 127.89L12.9444 128.59L13.9044 127.61L13.1901 126.91ZM12.0873 128.24V131.22H13.0873V128.24H12.0873ZM12.2304 131.57L13.2704 132.63L13.9842 131.93L12.9442 130.87L12.2304 131.57ZM13.6273 132.78H17.2873V131.78H13.6273V132.78ZM17.6476 132.627L18.6676 131.567L17.947 130.873L16.927 131.933L17.6476 132.627ZM18.8073 131.22V128.24H17.8073V131.22H18.8073ZM18.6644 127.89L17.7044 126.91L16.9901 127.61L17.9501 128.59L18.6644 127.89ZM12.4302 124.89L13.4102 125.89L14.1244 125.19L13.1444 124.19L12.4302 124.89ZM13.7673 126.04H17.1473V125.04H13.7673V126.04ZM17.5044 125.89L18.4844 124.89L17.7702 124.19L16.7902 125.19L17.5044 125.89ZM18.6273 124.54V121.78H17.6273V124.54H18.6273ZM18.4842 121.43L17.4442 120.37L16.7304 121.07L17.7704 122.13L18.4842 121.43ZM17.0873 120.22H13.8273V121.22H17.0873V120.22ZM13.4704 120.37L12.4304 121.43L13.1442 122.13L14.1842 121.07L13.4704 120.37ZM12.2873 121.78V124.54H13.2873V121.78H12.2873ZM30.3473 132.4V131.9H29.8473V132.4H30.3473ZM31.9473 132.4V132.9H32.4473V132.4H31.9473ZM31.9473 120.6H32.4473V120.1H31.9473V120.6ZM30.3473 120.6H29.8473V121.1H30.3473V120.6ZM30.3473 119V118.5H29.8473V119H30.3473ZM35.3873 119H35.8873V118.5H35.3873V119ZM35.3873 120.6V121.1H35.8873V120.6H35.3873ZM33.7873 120.6V120.1H33.2873V120.6H33.7873ZM33.7873 132.4H33.2873V132.9H33.7873V132.4ZM35.3873 132.4H35.8873V131.9H35.3873V132.4ZM35.3873 134V134.5H35.8873V134H35.3873ZM30.3473 134H29.8473V134.5H30.3473V134ZM30.3473 132.9H31.9473V131.9H30.3473V132.9ZM32.4473 132.4V120.6H31.4473V132.4H32.4473ZM31.9473 120.1H30.3473V121.1H31.9473V120.1ZM30.8473 120.6V119H29.8473V120.6H30.8473ZM30.3473 119.5H35.3873V118.5H30.3473V119.5ZM34.8873 119V120.6H35.8873V119H34.8873ZM35.3873 120.1H33.7873V121.1H35.3873V120.1ZM33.2873 120.6V132.4H34.2873V120.6H33.2873ZM33.7873 132.9H35.3873V131.9H33.7873V132.9ZM34.8873 132.4V134H35.8873V132.4H34.8873ZM35.3873 133.5H30.3473V134.5H35.3873V133.5ZM30.8473 134V132.4H29.8473V134H30.8473ZM38.3793 119V118.5H37.8793V119H38.3793ZM46.3793 119L46.7426 118.656L46.5947 118.5H46.3793V119ZM48.4593 121.2H48.9593V121.001L48.8226 120.856L48.4593 121.2ZM48.4593 124.8L48.8223 125.144L48.9593 124.999V124.8H48.4593ZM47.3793 125.94L47.0163 125.596L46.6882 125.942L47.0188 126.286L47.3793 125.94ZM48.8593 127.48H49.3593V127.279L49.2198 127.134L48.8593 127.48ZM48.8593 131.8L49.2226 132.144L49.3593 131.999V131.8H48.8593ZM46.7793 134V134.5H46.9947L47.1426 134.344L46.7793 134ZM38.3793 134H37.8793V134.5H38.3793V134ZM38.3793 132.4V131.9H37.8793V132.4H38.3793ZM39.7793 132.4V132.9H40.2793V132.4H39.7793ZM39.7793 120.6H40.2793V120.1H39.7793V120.6ZM38.3793 120.6H37.8793V121.1H38.3793V120.6ZM41.6193 126.88V126.38H41.1193V126.88H41.6193ZM41.6193 132.28H41.1193V132.78H41.6193V132.28ZM45.9793 132.28V132.78H46.1889L46.3359 132.631L45.9793 132.28ZM47.1393 131.1L47.4959 131.451L47.6393 131.305V131.1H47.1393ZM47.1393 128.18H47.6393V127.977L47.4983 127.832L47.1393 128.18ZM45.8793 126.88L46.2383 126.532L46.091 126.38H45.8793V126.88ZM41.6193 120.72V120.22H41.1193V120.72H41.6193ZM41.6193 125.28H41.1193V125.78H41.6193V125.28ZM45.5793 125.28V125.78H45.7889L45.9359 125.631L45.5793 125.28ZM46.7393 124.1L47.0959 124.451L47.2393 124.305V124.1H46.7393ZM46.7393 121.9H47.2393V121.698L47.0989 121.553L46.7393 121.9ZM45.5993 120.72L45.9589 120.373L45.8115 120.22H45.5993V120.72ZM38.3793 119.5H46.3793V118.5H38.3793V119.5ZM46.016 119.344L48.096 121.544L48.8226 120.856L46.7426 118.656L46.016 119.344ZM47.9593 121.2V124.8H48.9593V121.2H47.9593ZM48.0963 124.456L47.0163 125.596L47.7423 126.284L48.8223 125.144L48.0963 124.456ZM47.0188 126.286L48.4988 127.826L49.2198 127.134L47.7398 125.594L47.0188 126.286ZM48.3593 127.48V131.8H49.3593V127.48H48.3593ZM48.496 131.456L46.416 133.656L47.1426 134.344L49.2226 132.144L48.496 131.456ZM46.7793 133.5H38.3793V134.5H46.7793V133.5ZM38.8793 134V132.4H37.8793V134H38.8793ZM38.3793 132.9H39.7793V131.9H38.3793V132.9ZM40.2793 132.4V120.6H39.2793V132.4H40.2793ZM39.7793 120.1H38.3793V121.1H39.7793V120.1ZM38.8793 120.6V119H37.8793V120.6H38.8793ZM41.1193 126.88V132.28H42.1193V126.88H41.1193ZM41.6193 132.78H45.9793V131.78H41.6193V132.78ZM46.3359 132.631L47.4959 131.451L46.7827 130.749L45.6227 131.929L46.3359 132.631ZM47.6393 131.1V128.18H46.6393V131.1H47.6393ZM47.4983 127.832L46.2383 126.532L45.5203 127.228L46.7803 128.528L47.4983 127.832ZM45.8793 126.38H41.6193V127.38H45.8793V126.38ZM41.1193 120.72V125.28H42.1193V120.72H41.1193ZM41.6193 125.78H45.5793V124.78H41.6193V125.78ZM45.9359 125.631L47.0959 124.451L46.3827 123.749L45.2227 124.929L45.9359 125.631ZM47.2393 124.1V121.9H46.2393V124.1H47.2393ZM47.0989 121.553L45.9589 120.373L45.2397 121.067L46.3797 122.247L47.0989 121.553ZM45.5993 120.22H41.6193V121.22H45.5993V120.22ZM59.4112 119V118.5H58.9112V119H59.4112ZM63.8512 119H64.3512V118.5H63.8512V119ZM63.8512 120.6V121.1H64.3512V120.6H63.8512ZM62.6512 120.6V120.1H62.1512V120.6H62.6512ZM62.6512 131.8L63.0145 132.144L63.1512 131.999V131.8H62.6512ZM60.5712 134V134.5H60.7865L60.9345 134.344L60.5712 134ZM55.1312 134L54.7678 134.344L54.9158 134.5H55.1312V134ZM53.0512 131.8H52.5512V131.999L52.6878 132.144L53.0512 131.8ZM53.0512 120.6H53.5512V120.1H53.0512V120.6ZM51.8512 120.6H51.3512V121.1H51.8512V120.6ZM51.8512 119V118.5H51.3512V119H51.8512ZM56.2912 119H56.7912V118.5H56.2912V119ZM56.2912 120.6V121.1H56.7912V120.6H56.2912ZM54.8912 120.6V120.1H54.3912V120.6H54.8912ZM54.8912 131.22H54.3912V131.421L54.5309 131.567L54.8912 131.22ZM55.9112 132.28L55.5509 132.627L55.6984 132.78H55.9112V132.28ZM59.7712 132.28V132.78H59.9811L60.1281 132.63L59.7712 132.28ZM60.8112 131.22L61.1681 131.57L61.3112 131.424V131.22H60.8112ZM60.8112 120.6H61.3112V120.1H60.8112V120.6ZM59.4112 120.6H58.9112V121.1H59.4112V120.6ZM59.4112 119.5H63.8512V118.5H59.4112V119.5ZM63.3512 119V120.6H64.3512V119H63.3512ZM63.8512 120.1H62.6512V121.1H63.8512V120.1ZM62.1512 120.6V131.8H63.1512V120.6H62.1512ZM62.2878 131.456L60.2078 133.656L60.9345 134.344L63.0145 132.144L62.2878 131.456ZM60.5712 133.5H55.1312V134.5H60.5712V133.5ZM55.4945 133.656L53.4145 131.456L52.6878 132.144L54.7678 134.344L55.4945 133.656ZM53.5512 131.8V120.6H52.5512V131.8H53.5512ZM53.0512 120.1H51.8512V121.1H53.0512V120.1ZM52.3512 120.6V119H51.3512V120.6H52.3512ZM51.8512 119.5H56.2912V118.5H51.8512V119.5ZM55.7912 119V120.6H56.7912V119H55.7912ZM56.2912 120.1H54.8912V121.1H56.2912V120.1ZM54.3912 120.6V131.22H55.3912V120.6H54.3912ZM54.5309 131.567L55.5509 132.627L56.2715 131.933L55.2515 130.873L54.5309 131.567ZM55.9112 132.78H59.7712V131.78H55.9112V132.78ZM60.1281 132.63L61.1681 131.57L60.4543 130.87L59.4143 131.93L60.1281 132.63ZM61.3112 131.22V120.6H60.3112V131.22H61.3112ZM60.8112 120.1H59.4112V121.1H60.8112V120.1ZM59.9112 120.6V119H58.9112V120.6H59.9112ZM66.6559 118V117.5H66.1559V118H66.6559ZM68.6559 118H69.1559V117.5H68.6559V118ZM68.6559 119.8L69.124 119.976L69.1559 119.891V119.8H68.6559ZM67.4559 123V123.5H67.8024L67.924 123.176L67.4559 123ZM66.6559 123H66.1559V123.5H66.6559V123ZM66.6559 118.5H68.6559V117.5H66.6559V118.5ZM68.1559 118V119.8H69.1559V118H68.1559ZM68.1877 119.624L66.9877 122.824L67.924 123.176L69.124 119.976L68.1877 119.624ZM67.4559 122.5H66.6559V123.5H67.4559V122.5ZM67.1559 123V118H66.1559V123H67.1559ZM80.4605 125.72V126.22H80.9605V125.72H80.4605ZM78.8005 125.72H78.3005V126.22H78.8005V125.72ZM78.8005 123.96H79.3005V123.758L79.1599 123.612L78.8005 123.96ZM77.6005 122.72L77.9598 122.372L77.8125 122.22H77.6005V122.72ZM74.5406 122.72V122.22H74.3306L74.1836 122.37L74.5406 122.72ZM73.5005 123.78L73.1436 123.43L73.0005 123.576V123.78H73.5005ZM73.5005 125.74H73.0005V125.944L73.1434 126.09L73.5005 125.74ZM74.4805 126.74L74.1234 127.09L74.2705 127.24H74.4805V126.74ZM78.6405 126.74L79.0025 126.395L78.8548 126.24H78.6405V126.74ZM80.6605 128.86H81.1605V128.66L81.0225 128.515L80.6605 128.86ZM80.6605 131.8L81.0239 132.144L81.1605 131.999V131.8H80.6605ZM78.5806 134V134.5H78.7959L78.9439 134.344L78.5806 134ZM73.5406 134L73.1772 134.344L73.3252 134.5H73.5406V134ZM71.4605 131.8H70.9605V131.999L71.0972 132.144L71.4605 131.8ZM71.4605 129.28V128.78H70.9605V129.28H71.4605ZM73.1205 129.28H73.6205V128.78H73.1205V129.28ZM73.1205 131.04H72.6205V131.245L72.7641 131.391L73.1205 131.04ZM74.3405 132.28L73.9841 132.631L74.1311 132.78H74.3405V132.28ZM77.8005 132.28V132.78H78.0133L78.1608 132.627L77.8005 132.28ZM78.8205 131.22L79.1808 131.567L79.3205 131.421V131.22H78.8205ZM78.8205 129.44H79.3205V129.236L79.1777 129.09L78.8205 129.44ZM77.8605 128.46L78.2177 128.11L78.0707 127.96H77.8605V128.46ZM73.7005 128.46L73.3386 128.805L73.4864 128.96H73.7005V128.46ZM71.6605 126.32H71.1605V126.52L71.2986 126.665L71.6605 126.32ZM71.6605 123.2L71.2972 122.856L71.1605 123.001V123.2H71.6605ZM73.7405 121V120.5H73.5252L73.3772 120.656L73.7405 121ZM78.3805 121L78.7439 120.656L78.5959 120.5H78.3805V121ZM80.4605 123.2H80.9605V123.001L80.8239 122.856L80.4605 123.2ZM80.4605 125.22H78.8005V126.22H80.4605V125.22ZM79.3005 125.72V123.96H78.3005V125.72H79.3005ZM79.1599 123.612L77.9598 122.372L77.2412 123.068L78.4412 124.308L79.1599 123.612ZM77.6005 122.22H74.5406V123.22H77.6005V122.22ZM74.1836 122.37L73.1436 123.43L73.8575 124.13L74.8975 123.07L74.1836 122.37ZM73.0005 123.78V125.74H74.0005V123.78H73.0005ZM73.1434 126.09L74.1234 127.09L74.8377 126.39L73.8577 125.39L73.1434 126.09ZM74.4805 127.24H78.6405V126.24H74.4805V127.24ZM78.2786 127.085L80.2986 129.205L81.0225 128.515L79.0025 126.395L78.2786 127.085ZM80.1605 128.86V131.8H81.1605V128.86H80.1605ZM80.2972 131.456L78.2172 133.656L78.9439 134.344L81.0239 132.144L80.2972 131.456ZM78.5806 133.5H73.5406V134.5H78.5806V133.5ZM73.9039 133.656L71.8239 131.456L71.0972 132.144L73.1772 134.344L73.9039 133.656ZM71.9605 131.8V129.28H70.9605V131.8H71.9605ZM71.4605 129.78H73.1205V128.78H71.4605V129.78ZM72.6205 129.28V131.04H73.6205V129.28H72.6205ZM72.7641 131.391L73.9841 132.631L74.697 131.929L73.477 130.689L72.7641 131.391ZM74.3405 132.78H77.8005V131.78H74.3405V132.78ZM78.1608 132.627L79.1808 131.567L78.4603 130.873L77.4403 131.933L78.1608 132.627ZM79.3205 131.22V129.44H78.3205V131.22H79.3205ZM79.1777 129.09L78.2177 128.11L77.5034 128.81L78.4634 129.79L79.1777 129.09ZM77.8605 127.96H73.7005V128.96H77.8605V127.96ZM74.0625 128.115L72.0225 125.975L71.2986 126.665L73.3386 128.805L74.0625 128.115ZM72.1605 126.32V123.2H71.1605V126.32H72.1605ZM72.0239 123.544L74.1039 121.344L73.3772 120.656L71.2972 122.856L72.0239 123.544ZM73.7405 121.5H78.3805V120.5H73.7405V121.5ZM78.0172 121.344L80.0972 123.544L80.8239 122.856L78.7439 120.656L78.0172 121.344ZM79.9605 123.2V125.72H80.9605V123.2H79.9605Z" fill="#F6D351"/>
<path d="M62.8783 32.1451C63.2493 30.1231 64.3623 22.009 60.1189 15.917C57.0812 11.5619 52.0957 9.33244 45.3479 9.30652H45.116C44.9073 9.30652 44.6986 9.30652 44.4899 9.30652H43.4928V9.33244C37.5566 9.6176 33.1044 11.7433 30.2522 15.7096C25.3826 22.5016 27.2841 31.9378 27.3768 32.3525L27.516 33.0265C25.8 39.3 29.0928 45.8328 29.2551 46.1438L29.9971 47.5956L31.4812 47.3104C31.829 47.2586 32.1537 47.1808 32.4783 47.103C31.2261 50.2398 30.3682 54.8541 32.4319 60.4536L33.0348 62.1127L34.6348 61.9313C34.7739 61.9053 36.0725 61.7498 37.7652 61.1795C38.4145 64.4977 40.2696 67.79 43.0754 70.486L44.0029 71.3934L45.1623 70.9527C45.3942 70.8749 51.0522 68.7232 52.8145 61.9572L52.8377 61.9053C53.8116 62.2164 54.4841 62.3461 54.5768 62.3461L56.2464 62.6312L56.8957 60.8684C59.0058 55.0875 58.6116 51.0175 57.5913 48.3473C58.4725 48.7103 59.0522 48.8917 59.145 48.9177L60.6986 49.3843L61.5565 47.8548C64.571 42.5146 65.0116 36.9928 62.8783 32.1451ZM33.6377 18.6908C35.8638 15.6059 39.7131 14.0505 45.116 14.1283H45.8348C50.9131 14.2579 54.5768 15.8392 56.687 18.8464C59.1449 22.3201 59.0986 27.0641 58.8435 29.6046C58.7971 29.6046 58.7276 29.6046 58.6812 29.6046C58.4725 29.6046 58.2406 29.6046 58.0319 29.5787C57.9392 29.5787 57.8464 29.5787 57.7536 29.5528C57.5681 29.5528 57.4058 29.5269 57.2203 29.5009C57.1507 29.5009 57.0812 29.5009 57.0116 29.475C56.7797 29.4491 56.571 29.4232 56.3623 29.3972C56.2928 29.3972 56.2232 29.3713 56.1536 29.3713C55.945 29.3454 55.7131 29.2936 55.5044 29.2676C55.458 29.2676 55.3884 29.2417 55.3421 29.2417C55.1334 29.1899 54.9247 29.1639 54.7392 29.1121C54.716 29.1121 54.6928 29.1121 54.6696 29.0862C54.4609 29.0343 54.2522 28.9565 54.0435 28.9047C53.9971 28.8788 53.9507 28.8788 53.9044 28.8529C53.6957 28.7751 53.5102 28.7232 53.3015 28.6455C53.2551 28.6195 53.2319 28.6195 53.1855 28.5936C52.9768 28.5159 52.7913 28.4381 52.5826 28.3344L50.5421 27.3752L49.7305 29.6824C49.3594 30.7453 48.8029 31.8341 48.0609 32.8969L48.0145 32.9488C47.9681 33.0265 47.9218 33.0784 47.8754 33.1562L47.8522 33.1821C47.7594 33.2858 47.6899 33.4154 47.5971 33.5191C47.5971 33.5191 47.5971 33.5191 47.5739 33.545C47.4812 33.6487 47.4116 33.7783 47.3189 33.882L47.2957 33.9079C47.2029 34.0116 47.1102 34.1413 47.0406 34.2449L47.0174 34.2709C46.9247 34.3746 46.8319 34.5042 46.7392 34.6079C46.7392 34.6079 46.7392 34.6338 46.716 34.6338C46.6232 34.7375 46.5073 34.8671 46.4145 34.9708C46.0899 35.3337 45.7652 35.6707 45.4174 36.0337C44.6986 35.2819 43.7479 34.219 42.9131 32.871C42.9131 32.8451 42.8899 32.8451 42.8899 32.8192C42.7971 32.6895 42.7276 32.5599 42.6348 32.4044C42.6116 32.3525 42.5884 32.3266 42.5652 32.2748C42.4957 32.1711 42.4493 32.0674 42.3797 31.9637C42.3566 31.9118 42.3102 31.8341 42.287 31.7822C42.2406 31.6785 42.1942 31.6007 42.1479 31.4971C42.1015 31.4193 42.0783 31.3674 42.0551 31.2897C42.0087 31.186 41.9623 31.1082 41.916 31.0045C41.8928 30.9267 41.8464 30.8749 41.8232 30.7971C41.7768 30.6934 41.7305 30.6157 41.7073 30.512C41.6841 30.4342 41.6609 30.3823 41.6145 30.3046C41.5681 30.2009 41.5218 30.0972 41.4986 29.9676C41.4754 29.9157 41.4522 29.8639 41.429 29.7861C41.3595 29.6046 41.3131 29.4491 41.2667 29.2676L40.4551 26.7012L38.2522 27.8937C38.0435 27.9974 37.8348 28.127 37.6029 28.2048C37.5797 28.2048 37.5566 28.2307 37.5334 28.2307C37.3247 28.3344 37.0928 28.4122 36.8841 28.4899C36.8377 28.5159 36.8145 28.5158 36.7681 28.5418C36.5363 28.6195 36.3044 28.6973 36.0725 28.7751C36.0261 28.7751 36.0029 28.801 35.9566 28.801C35.7247 28.8788 35.4696 28.9306 35.2145 28.9825C35.1913 28.9825 35.1681 28.9825 35.145 29.0084C34.8899 29.0602 34.6116 29.1121 34.3566 29.1639C34.3334 29.1639 34.3102 29.1639 34.3102 29.1639C34.0319 29.2158 33.7537 29.2417 33.4754 29.2676C33.429 29.2676 33.4058 29.2676 33.3595 29.2676C33.0812 29.2936 32.8029 29.3195 32.5015 29.3195C32.4551 29.3195 32.4087 29.3195 32.3624 29.3195C32.0609 29.3195 31.7826 29.3454 31.4812 29.3454C31.4348 29.3454 31.4116 29.3454 31.3653 29.3454C31.1334 26.8827 31.1566 22.1646 33.6377 18.6908ZM45.4638 49.2806C44.8609 48.5547 44.1421 47.5437 43.5855 46.3253C42.5652 44.1477 42.3102 42.0479 42.8435 39.9481C43.6319 40.7258 44.1884 41.1665 44.2348 41.2184L44.4899 41.4258L45.5334 42.2553L46.7855 41.1406C47.0406 40.9073 47.2957 40.6999 47.5276 40.4666C47.5739 40.4147 47.6203 40.3888 47.6667 40.337C47.8986 40.1296 48.1305 39.8963 48.3392 39.6889C48.3623 39.663 48.3855 39.663 48.3855 39.637C48.7102 40.5444 49.1276 41.3998 49.6609 42.2294C49.5218 44.4847 48.1073 46.8697 45.4638 49.2806ZM31.6899 34.2709C31.9681 34.2709 32.2464 34.2709 32.5015 34.2449C32.5479 34.2449 32.5942 34.2449 32.6406 34.2449C32.8957 34.2449 33.1508 34.219 33.3826 34.1931H33.4058C33.6609 34.1672 33.916 34.1413 34.171 34.1153C34.2174 34.1153 34.2638 34.1153 34.3102 34.0894C34.5421 34.0635 34.7971 34.0376 35.029 33.9857H35.0522C35.2841 33.9339 35.5392 33.9079 35.771 33.8561C35.8174 33.8561 35.8638 33.8302 35.9102 33.8302C36.1421 33.7783 36.3739 33.7265 36.6058 33.6746C36.8377 33.6228 37.0464 33.545 37.2783 33.4932C37.3247 33.4672 37.371 33.4672 37.4174 33.4413C37.6261 33.3635 37.858 33.3117 38.0667 33.2339C38.0667 33.2339 38.0667 33.2599 38.0899 33.2599C38.2058 33.5191 38.3218 33.7783 38.4609 34.0116C38.4841 34.0376 38.5073 34.0894 38.5073 34.1153C38.6232 34.3486 38.7623 34.6079 38.9015 34.8412C38.9247 34.8671 38.9479 34.919 38.9479 34.9449C38.5537 37.8483 37.2551 40.7518 32.3624 42.1516C31.6899 40.3111 30.8551 37.1225 31.6899 34.2709ZM38.6232 45.418C38.8783 46.5327 39.2725 47.6215 39.8058 48.7103C40.4087 49.9546 41.1044 51.0175 41.7537 51.8989L41.4986 52.547C40.5479 54.9319 37.858 56.2022 35.887 56.7466C34.5652 51.0434 37.2551 47.0252 38.6232 45.418ZM48.687 60.6092C47.945 63.4348 46.1131 65.0162 44.9305 65.7679C43.2841 63.8755 42.2406 61.7757 41.9392 59.7278L41.8464 59.0797C43.0058 58.2242 44.0957 57.1095 44.9073 55.6837C45.9044 57.602 47.3652 58.976 48.8493 59.987L48.687 60.6092ZM53.5334 57.0836C51.8638 56.4873 49.429 55.2171 48.4319 52.8062C50.0551 51.3026 51.3073 49.7472 52.2348 48.1659L52.3044 48.2177C52.3044 48.2177 53.0696 48.8399 53.6029 50.162C54.2986 51.9766 54.2754 54.3357 53.5334 57.0836ZM58.7276 43.6552C57.2435 43.0071 55.0638 41.8146 53.6725 40.0259C53.5102 39.637 53.3479 39.326 53.2319 39.0408C52.5131 37.4854 52.5131 37.4854 52.0725 35.3337L52.0261 35.1004L52.0493 35.0745C52.1884 34.8671 52.3044 34.6597 52.4203 34.4523C52.4435 34.4005 52.4899 34.3486 52.5131 34.2709C52.629 34.0635 52.745 33.8302 52.8609 33.6228C52.8841 33.6228 52.9073 33.6487 52.9536 33.6487C53.1855 33.7265 53.4174 33.7783 53.6493 33.8561C53.7652 33.882 53.858 33.9079 53.9739 33.9339C54.1363 33.9857 54.2986 34.0116 54.4841 34.0376C54.6 34.0635 54.7392 34.0894 54.8551 34.1153C55.0174 34.1413 55.1797 34.1672 55.3421 34.1931C55.4812 34.219 55.5971 34.2449 55.7363 34.2449C55.8986 34.2709 56.0841 34.2968 56.2464 34.3227C56.4783 34.3486 56.7334 34.3746 56.9652 34.4005C57.1276 34.4264 57.2899 34.4264 57.4522 34.4523C57.6145 34.4523 57.8 34.4783 57.9623 34.4783C58.1015 34.4783 58.2406 34.4783 58.3797 34.5042C58.5652 34.5042 58.7276 34.5042 58.9131 34.5042C58.9594 34.5042 59.029 34.5042 59.0754 34.5042C60.2812 37.3039 60.142 40.3888 58.7276 43.6552Z" fill="#F7CE3C"/>
</svg>
