<svg width="91" height="138" viewBox="0 0 91 138" fill="none" xmlns="http://www.w3.org/2000/svg">
<path d="M26.9129 103H25.4729L24.7369 100.184H21.2489L20.5289 103H19.2489L22.2409 91.8H24.0009L26.9129 103ZM21.5209 99.16H24.4649L22.9769 93.512L21.5209 99.16ZM29.4989 101.624H34.7309V103H28.1069V91.8H29.4989V101.624ZM42.7868 93.384V95.544H41.4108V93.992L40.6108 93.192H38.0188L37.0108 94.216V100.552L38.0828 101.624H40.5468L41.4108 100.776V99H42.7868V101.336L41.1228 103H37.5868L35.6188 101.048V93.672L37.4908 91.8H41.2188L42.7868 93.384ZM43.9153 104.52H43.0353L46.5553 91.352H47.4353L43.9153 104.52ZM52.4991 103H50.7551L47.8431 91.8H49.2351L51.7311 101.304L54.1791 91.8H55.4911L52.4991 103ZM63.3843 101.192L61.5603 103H57.8803L56.0723 101.192V93.528L57.8003 91.8H61.6563L63.3843 93.528V101.192ZM58.3603 93.176L57.4483 94.088V100.648L58.4083 101.624H61.0323L61.9923 100.648V94.088L61.0803 93.176H58.3603ZM66.4208 101.624H71.6528V103H65.0288V91.8H66.4208V101.624Z" fill="#F6D351"/>
<path d="M23.762 122.92V120.6H18.562V124.94H23.742L25.762 127.06V131.8L23.682 134H18.642L16.562 131.8V129.28H18.222V131.04L19.442 132.28H22.902L23.922 131.22V127.64L22.842 126.54H16.962V119H25.362V122.92H23.762ZM28.5898 131.6H30.5898V133.4L29.3898 136.6H28.5898V131.6ZM36.2338 127.34V125.74H39.3938L40.3538 124.76V121.78L39.3138 120.72H36.2538L35.0538 121.96V123.72H33.3938V121.2L35.4738 119H40.1138L42.1938 121.2V125.34L41.1738 126.4L42.5738 127.86V131.8L40.4938 134H35.4538L33.3738 131.8V129.28H35.0338V131.04L36.2538 132.28H39.7138L40.7338 131.22V128.44L39.6538 127.34H36.2338ZM49.2416 127.34V125.74H52.4016L53.3616 124.76V121.78L52.3216 120.72H49.2616L48.0616 121.96V123.72H46.4016V121.2L48.4816 119H53.1216L55.2016 121.2V125.34L54.1816 126.4L55.5816 127.86V131.8L53.5016 134H48.4616L46.3816 131.8V129.28H48.0416V131.04L49.2616 132.28H52.7216L53.7416 131.22V128.44L52.6616 127.34H49.2416ZM70.2894 134L68.9894 132.62V126.34L70.2894 124.96H73.7294L75.0094 126.34V132.62L73.7294 134H70.2894ZM70.8894 132.64H73.1294L73.6694 132.1V126.86L73.1294 126.32H70.8894L70.3494 126.86V132.1L70.8894 132.64ZM60.3094 128.04L59.0094 126.66V120.38L60.3094 119H63.7494L65.0294 120.38V126.66L63.7494 128.04H60.3094ZM60.9094 126.68H63.1494L63.6894 126.14V120.9L63.1494 120.36H60.9094L60.3694 120.9V126.14L60.9094 126.68ZM63.1894 134.7L69.2894 118.32H70.8294L64.7294 134.7H63.1894Z" fill="#F6D351"/>
<path d="M23.762 122.92H23.262V123.42H23.762V122.92ZM23.762 120.6H24.262V120.1H23.762V120.6ZM18.562 120.6V120.1H18.062V120.6H18.562ZM18.562 124.94H18.062V125.44H18.562V124.94ZM23.742 124.94L24.104 124.595L23.9562 124.44H23.742V124.94ZM25.762 127.06H26.262V126.86L26.124 126.715L25.762 127.06ZM25.762 131.8L26.1254 132.144L26.262 131.999V131.8H25.762ZM23.682 134V134.5H23.8974L24.0454 134.344L23.682 134ZM18.642 134L18.2787 134.344L18.4267 134.5H18.642V134ZM16.562 131.8H16.062V131.999L16.1987 132.144L16.562 131.8ZM16.562 129.28V128.78H16.062V129.28H16.562ZM18.222 129.28H18.722V128.78H18.222V129.28ZM18.222 131.04H17.722V131.245L17.8656 131.391L18.222 131.04ZM19.442 132.28L19.0856 132.631L19.2325 132.78H19.442V132.28ZM22.902 132.28V132.78H23.1148L23.2623 132.627L22.902 132.28ZM23.922 131.22L24.2823 131.567L24.422 131.421V131.22H23.922ZM23.922 127.64H24.422V127.436L24.2788 127.29L23.922 127.64ZM22.842 126.54L23.1988 126.19L23.0518 126.04H22.842V126.54ZM16.962 126.54H16.462V127.04H16.962V126.54ZM16.962 119V118.5H16.462V119H16.962ZM25.362 119H25.862V118.5H25.362V119ZM25.362 122.92V123.42H25.862V122.92H25.362ZM24.262 122.92V120.6H23.262V122.92H24.262ZM23.762 120.1H18.562V121.1H23.762V120.1ZM18.062 120.6V124.94H19.062V120.6H18.062ZM18.562 125.44H23.742V124.44H18.562V125.44ZM23.38 125.285L25.4 127.405L26.124 126.715L24.104 124.595L23.38 125.285ZM25.262 127.06V131.8H26.262V127.06H25.262ZM25.3987 131.456L23.3187 133.656L24.0454 134.344L26.1254 132.144L25.3987 131.456ZM23.682 133.5H18.642V134.5H23.682V133.5ZM19.0054 133.656L16.9254 131.456L16.1987 132.144L18.2787 134.344L19.0054 133.656ZM17.062 131.8V129.28H16.062V131.8H17.062ZM16.562 129.78H18.222V128.78H16.562V129.78ZM17.722 129.28V131.04H18.722V129.28H17.722ZM17.8656 131.391L19.0856 132.631L19.7984 131.929L18.5784 130.689L17.8656 131.391ZM19.442 132.78H22.902V131.78H19.442V132.78ZM23.2623 132.627L24.2823 131.567L23.5617 130.873L22.5417 131.933L23.2623 132.627ZM24.422 131.22V127.64H23.422V131.22H24.422ZM24.2788 127.29L23.1988 126.19L22.4853 126.89L23.5652 127.99L24.2788 127.29ZM22.842 126.04H16.962V127.04H22.842V126.04ZM17.462 126.54V119H16.462V126.54H17.462ZM16.962 119.5H25.362V118.5H16.962V119.5ZM24.862 119V122.92H25.862V119H24.862ZM25.362 122.42H23.762V123.42H25.362V122.42ZM28.5898 131.6V131.1H28.0898V131.6H28.5898ZM30.5898 131.6H31.0898V131.1H30.5898V131.6ZM30.5898 133.4L31.058 133.576L31.0898 133.491V133.4H30.5898ZM29.3898 136.6V137.1H29.7363L29.858 136.776L29.3898 136.6ZM28.5898 136.6H28.0898V137.1H28.5898V136.6ZM28.5898 132.1H30.5898V131.1H28.5898V132.1ZM30.0898 131.6V133.4H31.0898V131.6H30.0898ZM30.1217 133.224L28.9217 136.424L29.858 136.776L31.058 133.576L30.1217 133.224ZM29.3898 136.1H28.5898V137.1H29.3898V136.1ZM29.0898 136.6V131.6H28.0898V136.6H29.0898ZM36.2337 127.34H35.7337V127.84H36.2337V127.34ZM36.2337 125.74V125.24H35.7337V125.74H36.2337ZM39.3937 125.74V126.24H39.6039L39.7509 126.09L39.3937 125.74ZM40.3538 124.76L40.7109 125.11L40.8538 124.964V124.76H40.3538ZM40.3538 121.78H40.8538V121.576L40.7107 121.43L40.3538 121.78ZM39.3138 120.72L39.6707 120.37L39.5237 120.22H39.3138V120.72ZM36.2537 120.72V120.22H36.0418L35.8944 120.372L36.2537 120.72ZM35.0537 121.96L34.6945 121.612L34.5537 121.758V121.96H35.0537ZM35.0537 123.72V124.22H35.5537V123.72H35.0537ZM33.3937 123.72H32.8937V124.22H33.3937V123.72ZM33.3937 121.2L33.0304 120.856L32.8937 121.001V121.2H33.3937ZM35.4738 119V118.5H35.2584L35.1104 118.656L35.4738 119ZM40.1138 119L40.4771 118.656L40.3291 118.5H40.1138V119ZM42.1938 121.2H42.6938V121.001L42.5571 120.856L42.1938 121.2ZM42.1938 125.34L42.554 125.687L42.6938 125.541V125.34H42.1938ZM41.1738 126.4L40.8135 126.053L40.4804 126.399L40.8129 126.746L41.1738 126.4ZM42.5737 127.86H43.0737V127.659L42.9346 127.514L42.5737 127.86ZM42.5737 131.8L42.9371 132.144L43.0737 131.999V131.8H42.5737ZM40.4938 134V134.5H40.7091L40.8571 134.344L40.4938 134ZM35.4538 134L35.0904 134.344L35.2384 134.5H35.4538V134ZM33.3737 131.8H32.8737V131.999L33.0104 132.144L33.3737 131.8ZM33.3737 129.28V128.78H32.8737V129.28H33.3737ZM35.0337 129.28H35.5337V128.78H35.0337V129.28ZM35.0337 131.04H34.5337V131.245L34.6773 131.391L35.0337 131.04ZM36.2537 132.28L35.8973 132.631L36.0443 132.78H36.2537V132.28ZM39.7137 132.28V132.78H39.9265L40.074 132.627L39.7137 132.28ZM40.7337 131.22L41.094 131.567L41.2337 131.421V131.22H40.7337ZM40.7337 128.44H41.2337V128.236L41.0905 128.09L40.7337 128.44ZM39.6538 127.34L40.0105 126.99L39.8635 126.84H39.6538V127.34ZM36.7337 127.34V125.74H35.7337V127.34H36.7337ZM36.2337 126.24H39.3937V125.24H36.2337V126.24ZM39.7509 126.09L40.7109 125.11L39.9966 124.41L39.0366 125.39L39.7509 126.09ZM40.8538 124.76V121.78H39.8538V124.76H40.8538ZM40.7107 121.43L39.6707 120.37L38.9568 121.07L39.9968 122.13L40.7107 121.43ZM39.3138 120.22H36.2537V121.22H39.3138V120.22ZM35.8944 120.372L34.6945 121.612L35.4131 122.308L36.6131 121.068L35.8944 120.372ZM34.5537 121.96V123.72H35.5537V121.96H34.5537ZM35.0537 123.22H33.3937V124.22H35.0537V123.22ZM33.8937 123.72V121.2H32.8937V123.72H33.8937ZM33.7571 121.544L35.8371 119.344L35.1104 118.656L33.0304 120.856L33.7571 121.544ZM35.4738 119.5H40.1138V118.5H35.4738V119.5ZM39.7504 119.344L41.8304 121.544L42.5571 120.856L40.4771 118.656L39.7504 119.344ZM41.6938 121.2V125.34H42.6938V121.2H41.6938ZM41.8335 124.993L40.8135 126.053L41.534 126.747L42.554 125.687L41.8335 124.993ZM40.8129 126.746L42.2129 128.206L42.9346 127.514L41.5346 126.054L40.8129 126.746ZM42.0737 127.86V131.8H43.0737V127.86H42.0737ZM42.2104 131.456L40.1304 133.656L40.8571 134.344L42.9371 132.144L42.2104 131.456ZM40.4938 133.5H35.4538V134.5H40.4938V133.5ZM35.8171 133.656L33.7371 131.456L33.0104 132.144L35.0904 134.344L35.8171 133.656ZM33.8737 131.8V129.28H32.8737V131.8H33.8737ZM33.3737 129.78H35.0337V128.78H33.3737V129.78ZM34.5337 129.28V131.04H35.5337V129.28H34.5337ZM34.6773 131.391L35.8973 132.631L36.6102 131.929L35.3902 130.689L34.6773 131.391ZM36.2537 132.78H39.7137V131.78H36.2537V132.78ZM40.074 132.627L41.094 131.567L40.3735 130.873L39.3535 131.933L40.074 132.627ZM41.2337 131.22V128.44H40.2337V131.22H41.2337ZM41.0905 128.09L40.0105 126.99L39.297 127.69L40.377 128.79L41.0905 128.09ZM39.6538 126.84H36.2337V127.84H39.6538V126.84ZM49.2416 127.34H48.7416V127.84H49.2416V127.34ZM49.2416 125.74V125.24H48.7416V125.74H49.2416ZM52.4016 125.74V126.24H52.6117L52.7587 126.09L52.4016 125.74ZM53.3616 124.76L53.7187 125.11L53.8616 124.964V124.76H53.3616ZM53.3616 121.78H53.8616V121.576L53.7185 121.43L53.3616 121.78ZM52.3216 120.72L52.6785 120.37L52.5315 120.22H52.3216V120.72ZM49.2616 120.72V120.22H49.0496L48.9023 120.372L49.2616 120.72ZM48.0616 121.96L47.7023 121.612L47.5616 121.758V121.96H48.0616ZM48.0616 123.72V124.22H48.5616V123.72H48.0616ZM46.4016 123.72H45.9016V124.22H46.4016V123.72ZM46.4016 121.2L46.0382 120.856L45.9016 121.001V121.2H46.4016ZM48.4816 119V118.5H48.2662L48.1182 118.656L48.4816 119ZM53.1216 119L53.4849 118.656L53.3369 118.5H53.1216V119ZM55.2016 121.2H55.7016V121.001L55.5649 120.856L55.2016 121.2ZM55.2016 125.34L55.5618 125.687L55.7016 125.541V125.34H55.2016ZM54.1816 126.4L53.8213 126.053L53.4883 126.399L53.8207 126.746L54.1816 126.4ZM55.5816 127.86H56.0816V127.659L55.9425 127.514L55.5816 127.86ZM55.5816 131.8L55.9449 132.144L56.0816 131.999V131.8H55.5816ZM53.5016 134V134.5H53.7169L53.8649 134.344L53.5016 134ZM48.4616 134L48.0982 134.344L48.2462 134.5H48.4616V134ZM46.3816 131.8H45.8816V131.999L46.0182 132.144L46.3816 131.8ZM46.3816 129.28V128.78H45.8816V129.28H46.3816ZM48.0416 129.28H48.5416V128.78H48.0416V129.28ZM48.0416 131.04H47.5416V131.245L47.6851 131.391L48.0416 131.04ZM49.2616 132.28L48.9051 132.631L49.0521 132.78H49.2616V132.28ZM52.7216 132.28V132.78H52.9343L53.0818 132.627L52.7216 132.28ZM53.7416 131.22L54.1018 131.567L54.2416 131.421V131.22H53.7416ZM53.7416 128.44H54.2416V128.236L54.0983 128.09L53.7416 128.44ZM52.6616 127.34L53.0183 126.99L52.8714 126.84H52.6616V127.34ZM49.7416 127.34V125.74H48.7416V127.34H49.7416ZM49.2416 126.24H52.4016V125.24H49.2416V126.24ZM52.7587 126.09L53.7187 125.11L53.0044 124.41L52.0444 125.39L52.7587 126.09ZM53.8616 124.76V121.78H52.8616V124.76H53.8616ZM53.7185 121.43L52.6785 120.37L51.9647 121.07L53.0047 122.13L53.7185 121.43ZM52.3216 120.22H49.2616V121.22H52.3216V120.22ZM48.9023 120.372L47.7023 121.612L48.4209 122.308L49.6209 121.068L48.9023 120.372ZM47.5616 121.96V123.72H48.5616V121.96H47.5616ZM48.0616 123.22H46.4016V124.22H48.0616V123.22ZM46.9016 123.72V121.2H45.9016V123.72H46.9016ZM46.7649 121.544L48.8449 119.344L48.1182 118.656L46.0382 120.856L46.7649 121.544ZM48.4816 119.5H53.1216V118.5H48.4816V119.5ZM52.7582 119.344L54.8382 121.544L55.5649 120.856L53.4849 118.656L52.7582 119.344ZM54.7016 121.2V125.34H55.7016V121.2H54.7016ZM54.8413 124.993L53.8213 126.053L54.5418 126.747L55.5618 125.687L54.8413 124.993ZM53.8207 126.746L55.2207 128.206L55.9425 127.514L54.5425 126.054L53.8207 126.746ZM55.0816 127.86V131.8H56.0816V127.86H55.0816ZM55.2182 131.456L53.1382 133.656L53.8649 134.344L55.9449 132.144L55.2182 131.456ZM53.5016 133.5H48.4616V134.5H53.5016V133.5ZM48.8249 133.656L46.7449 131.456L46.0182 132.144L48.0982 134.344L48.8249 133.656ZM46.8816 131.8V129.28H45.8816V131.8H46.8816ZM46.3816 129.78H48.0416V128.78H46.3816V129.78ZM47.5416 129.28V131.04H48.5416V129.28H47.5416ZM47.6851 131.391L48.9051 132.631L49.618 131.929L48.398 130.689L47.6851 131.391ZM49.2616 132.78H52.7216V131.78H49.2616V132.78ZM53.0818 132.627L54.1018 131.567L53.3813 130.873L52.3613 131.933L53.0818 132.627ZM54.2416 131.22V128.44H53.2416V131.22H54.2416ZM54.0983 128.09L53.0183 126.99L52.3048 127.69L53.3848 128.79L54.0983 128.09ZM52.6616 126.84H49.2416V127.84H52.6616V126.84ZM70.2894 134L69.9254 134.343L70.0735 134.5H70.2894V134ZM68.9894 132.62H68.4894V132.818L68.6254 132.963L68.9894 132.62ZM68.9894 126.34L68.6254 125.997L68.4894 126.142V126.34H68.9894ZM70.2894 124.96V124.46H70.0735L69.9254 124.617L70.2894 124.96ZM73.7294 124.96L74.096 124.62L73.9476 124.46H73.7294V124.96ZM75.0094 126.34H75.5094V126.144L75.376 126L75.0094 126.34ZM75.0094 132.62L75.376 132.96L75.5094 132.816V132.62H75.0094ZM73.7294 134V134.5H73.9476L74.096 134.34L73.7294 134ZM70.8894 132.64L70.5358 132.994L70.6823 133.14H70.8894V132.64ZM73.1294 132.64V133.14H73.3365L73.4829 132.994L73.1294 132.64ZM73.6694 132.1L74.0229 132.454L74.1694 132.307V132.1H73.6694ZM73.6694 126.86H74.1694V126.653L74.0229 126.506L73.6694 126.86ZM73.1294 126.32L73.4829 125.966L73.3365 125.82H73.1294V126.32ZM70.8894 126.32V125.82H70.6823L70.5358 125.966L70.8894 126.32ZM70.3494 126.86L69.9958 126.506L69.8494 126.653V126.86H70.3494ZM70.3494 132.1H69.8494V132.307L69.9958 132.454L70.3494 132.1ZM60.3094 128.04L59.9454 128.383L60.0935 128.54H60.3094V128.04ZM59.0094 126.66H58.5094V126.858L58.6454 127.003L59.0094 126.66ZM59.0094 120.38L58.6454 120.037L58.5094 120.182V120.38H59.0094ZM60.3094 119V118.5H60.0935L59.9454 118.657L60.3094 119ZM63.7494 119L64.116 118.66L63.9676 118.5H63.7494V119ZM65.0294 120.38H65.5294V120.184L65.396 120.04L65.0294 120.38ZM65.0294 126.66L65.396 127L65.5294 126.856V126.66H65.0294ZM63.7494 128.04V128.54H63.9676L64.116 128.38L63.7494 128.04ZM60.9094 126.68L60.5558 127.034L60.7023 127.18H60.9094V126.68ZM63.1494 126.68V127.18H63.3565L63.5029 127.034L63.1494 126.68ZM63.6894 126.14L64.0429 126.494L64.1894 126.347V126.14H63.6894ZM63.6894 120.9H64.1894V120.693L64.0429 120.546L63.6894 120.9ZM63.1494 120.36L63.5029 120.006L63.3565 119.86H63.1494V120.36ZM60.9094 120.36V119.86H60.7023L60.5558 120.006L60.9094 120.36ZM60.3694 120.9L60.0158 120.546L59.8694 120.693V120.9H60.3694ZM60.3694 126.14H59.8694V126.347L60.0158 126.494L60.3694 126.14ZM63.1894 134.7L62.7208 134.526L62.4696 135.2H63.1894V134.7ZM69.2894 118.32V117.82H68.942L68.8208 118.146L69.2894 118.32ZM70.8294 118.32L71.2979 118.494L71.5491 117.82H70.8294V118.32ZM64.7294 134.7V135.2H65.0767L65.1979 134.874L64.7294 134.7ZM70.6533 133.657L69.3533 132.277L68.6254 132.963L69.9254 134.343L70.6533 133.657ZM69.4894 132.62V126.34H68.4894V132.62H69.4894ZM69.3533 126.683L70.6533 125.303L69.9254 124.617L68.6254 125.997L69.3533 126.683ZM70.2894 125.46H73.7294V124.46H70.2894V125.46ZM73.3628 125.3L74.6428 126.68L75.376 126L74.096 124.62L73.3628 125.3ZM74.5094 126.34V132.62H75.5094V126.34H74.5094ZM74.6428 132.28L73.3628 133.66L74.096 134.34L75.376 132.96L74.6428 132.28ZM73.7294 133.5H70.2894V134.5H73.7294V133.5ZM70.8894 133.14H73.1294V132.14H70.8894V133.14ZM73.4829 132.994L74.0229 132.454L73.3158 131.746L72.7758 132.286L73.4829 132.994ZM74.1694 132.1V126.86H73.1694V132.1H74.1694ZM74.0229 126.506L73.4829 125.966L72.7758 126.674L73.3158 127.214L74.0229 126.506ZM73.1294 125.82H70.8894V126.82H73.1294V125.82ZM70.5358 125.966L69.9958 126.506L70.7029 127.214L71.2429 126.674L70.5358 125.966ZM69.8494 126.86V132.1H70.8494V126.86H69.8494ZM69.9958 132.454L70.5358 132.994L71.2429 132.286L70.7029 131.746L69.9958 132.454ZM60.6733 127.697L59.3733 126.317L58.6454 127.003L59.9454 128.383L60.6733 127.697ZM59.5094 126.66V120.38H58.5094V126.66H59.5094ZM59.3733 120.723L60.6733 119.343L59.9454 118.657L58.6454 120.037L59.3733 120.723ZM60.3094 119.5H63.7494V118.5H60.3094V119.5ZM63.3828 119.34L64.6628 120.72L65.396 120.04L64.116 118.66L63.3828 119.34ZM64.5294 120.38V126.66H65.5294V120.38H64.5294ZM64.6628 126.32L63.3828 127.7L64.116 128.38L65.396 127L64.6628 126.32ZM63.7494 127.54H60.3094V128.54H63.7494V127.54ZM60.9094 127.18H63.1494V126.18H60.9094V127.18ZM63.5029 127.034L64.0429 126.494L63.3358 125.786L62.7958 126.326L63.5029 127.034ZM64.1894 126.14V120.9H63.1894V126.14H64.1894ZM64.0429 120.546L63.5029 120.006L62.7958 120.714L63.3358 121.254L64.0429 120.546ZM63.1494 119.86H60.9094V120.86H63.1494V119.86ZM60.5558 120.006L60.0158 120.546L60.7229 121.254L61.2629 120.714L60.5558 120.006ZM59.8694 120.9V126.14H60.8694V120.9H59.8694ZM60.0158 126.494L60.5558 127.034L61.2629 126.326L60.7229 125.786L60.0158 126.494ZM63.6579 134.874L69.7579 118.494L68.8208 118.146L62.7208 134.526L63.6579 134.874ZM69.2894 118.82H70.8294V117.82H69.2894V118.82ZM70.3608 118.146L64.2608 134.526L65.1979 134.874L71.2979 118.494L70.3608 118.146ZM64.7294 134.2H63.1894V135.2H64.7294V134.2Z" fill="#F6D351"/>
<path d="M54.7157 27.0901C50.7273 19.5723 46.6693 13.1692 46.623 13.1173L44.907 10.4213L43.1911 13.1173C43.1447 13.1692 39.0867 19.5723 35.0983 27.0901C29.6027 37.4336 26.7969 44.9773 26.7969 49.5139C26.7969 60.661 34.9128 69.7343 44.8838 69.7343C54.8548 69.7343 62.9708 60.661 62.9708 49.5139C62.994 45.0032 60.2114 37.4595 54.7157 27.0901ZM44.907 65.068C37.2548 65.068 31.0172 58.0946 31.0172 49.5398C31.0172 42.9034 39.8751 26.9086 44.907 18.6131C49.9389 26.9086 58.7969 42.9034 58.7969 49.5398C58.8201 58.0946 52.5824 65.068 44.907 65.068Z" fill="#F7CE3C"/>
<path d="M50.8664 44.4329L50.8201 46.766C50.8201 47.103 50.5418 55.1653 43.794 56.2281L41.707 56.5392L42.2867 61.1795L44.3737 60.8684C48.6635 60.1944 51.8635 57.5243 53.649 53.1432C54.9476 49.9806 54.994 46.9734 54.994 46.8438L55.0403 44.5107L50.8664 44.4329Z" fill="#F7CE3C"/>
</svg>
