<svg width="91" height="138" viewBox="0 0 91 138" fill="none" xmlns="http://www.w3.org/2000/svg">
<path d="M23.0301 103H21.5901L20.8541 100.184H17.3661L16.6461 103H15.3661L18.3581 91.8H20.1181L23.0301 103ZM17.6381 99.16H20.5821L19.0941 93.512L17.6381 99.16ZM32.2721 103H30.9441V93.768L28.6081 98.008H27.8881L25.5521 93.768V103H24.2241V91.8H25.8881L28.3041 96.232L30.7201 91.8H32.2721V103ZM41.1239 103H39.6839L38.9479 100.184H35.4599L34.7399 103H33.4599L36.4519 91.8H38.2119L41.1239 103ZM35.7319 99.16H38.6759L37.1879 93.512L35.7319 99.16ZM49.1339 93.384V96.632L47.6139 98.152H46.7819L48.9259 103H47.4859L45.3739 98.152H43.6939V103H42.3179V91.8H47.5659L49.1339 93.384ZM43.6939 93.192V96.936H46.9579L47.7579 96.136V93.992L46.9579 93.192H43.6939ZM57.9234 95.368H56.5314V93.992L55.7314 93.176H53.0114L51.9874 94.2V100.552L53.0594 101.624H55.3634L56.5314 100.44V98.12H54.4674V96.984H57.9234V103H56.5954V101.736L55.3314 103H52.5634L50.6114 101.032V93.672L52.4834 91.8H56.3394L57.9234 93.384V95.368ZM66.7359 101.192L64.9119 103H61.2319L59.4239 101.192V93.528L61.1519 91.8H65.0079L66.7359 93.528V101.192ZM61.7119 93.176L60.7999 94.088V100.648L61.7599 101.624H64.3839L65.3439 100.648V94.088L64.4319 93.176H61.7119ZM75.1964 93.384V96.632L73.6764 98.152H72.8444L74.9884 103H73.5484L71.4364 98.152H69.7564V103H68.3804V91.8H73.6284L75.1964 93.384ZM69.7564 93.192V96.936H73.0204L73.8204 96.136V93.992L73.0204 93.192H69.7564Z" fill="#F6D351"/>
<path d="M13.3434 134H4.14336V132.4L11.2034 124.54V121.78L10.1634 120.72H7.10336L5.90336 121.96V123.72H4.24336V121.2L6.32336 119H10.9634L13.0434 121.2V125.12L6.38336 132.4H11.7434V130.08H13.3434V134ZM18.6312 132.4H20.1312L24.6712 120.6H18.8512V122.92H17.2512V119H26.5712V120.6L22.0312 132.4H23.6712V134H18.6312V132.4ZM36.8512 132.4H38.4512V120.6H36.8512V119H41.8912V120.6H40.2912V132.4H41.8912V134H36.8512V132.4ZM44.8832 119H52.8832L54.9632 121.2V124.8L53.8832 125.94L55.3632 127.48V131.8L53.2832 134H44.8832V132.4H46.2832V120.6H44.8832V119ZM48.1232 126.88V132.28H52.4832L53.6432 131.1V128.18L52.3832 126.88H48.1232ZM48.1232 120.72V125.28H52.0832L53.2432 124.1V121.9L52.1032 120.72H48.1232ZM65.9151 119H70.3551V120.6H69.1551V131.8L67.0751 134H61.6351L59.5551 131.8V120.6H58.3551V119H62.7951V120.6H61.3951V131.22L62.4151 132.28H66.2751L67.3151 131.22V120.6H65.9151V119ZM73.1598 118H75.1598V119.8L73.9598 123H73.1598V118ZM86.9645 125.72H85.3045V123.96L84.1045 122.72H81.0445L80.0045 123.78V125.74L80.9845 126.74H85.1445L87.1645 128.86V131.8L85.0845 134H80.0445L77.9645 131.8V129.28H79.6245V131.04L80.8445 132.28H84.3045L85.3245 131.22V129.44L84.3645 128.46H80.2045L78.1645 126.32V123.2L80.2445 121H84.8845L86.9645 123.2V125.72Z" fill="#F6D351"/>
<path d="M13.3434 134V134.5H13.8434V134H13.3434ZM4.14336 134H3.64336V134.5H4.14336V134ZM4.14336 132.4L3.77138 132.066L3.64336 132.208V132.4H4.14336ZM11.2034 124.54L11.5753 124.874L11.7034 124.732V124.54H11.2034ZM11.2034 121.78H11.7034V121.576L11.5603 121.43L11.2034 121.78ZM10.1634 120.72L10.5203 120.37L10.3733 120.22H10.1634V120.72ZM7.10336 120.72V120.22H6.89144L6.74406 120.372L7.10336 120.72ZM5.90336 121.96L5.54406 121.612L5.40336 121.758V121.96H5.90336ZM5.90336 123.72V124.22H6.40336V123.72H5.90336ZM4.24336 123.72H3.74336V124.22H4.24336V123.72ZM4.24336 121.2L3.88004 120.856L3.74336 121.001V121.2H4.24336ZM6.32336 119V118.5H6.10799L5.96004 118.656L6.32336 119ZM10.9634 119L11.3267 118.656L11.1787 118.5H10.9634V119ZM13.0434 121.2H13.5434V121.001L13.4067 120.856L13.0434 121.2ZM13.0434 125.12L13.4123 125.457L13.5434 125.314V125.12H13.0434ZM6.38336 132.4L6.01445 132.063L5.24828 132.9H6.38336V132.4ZM11.7434 132.4V132.9H12.2434V132.4H11.7434ZM11.7434 130.08V129.58H11.2434V130.08H11.7434ZM13.3434 130.08H13.8434V129.58H13.3434V130.08ZM13.3434 133.5H4.14336V134.5H13.3434V133.5ZM4.64336 134V132.4H3.64336V134H4.64336ZM4.51534 132.734L11.5753 124.874L10.8314 124.206L3.77138 132.066L4.51534 132.734ZM11.7034 124.54V121.78H10.7034V124.54H11.7034ZM11.5603 121.43L10.5203 120.37L9.80645 121.07L10.8465 122.13L11.5603 121.43ZM10.1634 120.22H7.10336V121.22H10.1634V120.22ZM6.74406 120.372L5.54406 121.612L6.26266 122.308L7.46266 121.068L6.74406 120.372ZM5.40336 121.96V123.72H6.40336V121.96H5.40336ZM5.90336 123.22H4.24336V124.22H5.90336V123.22ZM4.74336 123.72V121.2H3.74336V123.72H4.74336ZM4.60668 121.544L6.68668 119.344L5.96004 118.656L3.88004 120.856L4.60668 121.544ZM6.32336 119.5H10.9634V118.5H6.32336V119.5ZM10.6 119.344L12.68 121.544L13.4067 120.856L11.3267 118.656L10.6 119.344ZM12.5434 121.2V125.12H13.5434V121.2H12.5434ZM12.6744 124.783L6.01445 132.063L6.75227 132.737L13.4123 125.457L12.6744 124.783ZM6.38336 132.9H11.7434V131.9H6.38336V132.9ZM12.2434 132.4V130.08H11.2434V132.4H12.2434ZM11.7434 130.58H13.3434V129.58H11.7434V130.58ZM12.8434 130.08V134H13.8434V130.08H12.8434ZM18.6312 132.4V131.9H18.1312V132.4H18.6312ZM20.1312 132.4V132.9H20.4745L20.5978 132.58L20.1312 132.4ZM24.6712 120.6L25.1378 120.78L25.3993 120.1H24.6712V120.6ZM18.8512 120.6V120.1H18.3512V120.6H18.8512ZM18.8512 122.92V123.42H19.3512V122.92H18.8512ZM17.2512 122.92H16.7512V123.42H17.2512V122.92ZM17.2512 119V118.5H16.7512V119H17.2512ZM26.5712 119H27.0712V118.5H26.5712V119ZM26.5712 120.6L27.0378 120.78L27.0712 120.693V120.6H26.5712ZM22.0312 132.4L21.5645 132.22L21.3031 132.9H22.0312V132.4ZM23.6712 132.4H24.1712V131.9H23.6712V132.4ZM23.6712 134V134.5H24.1712V134H23.6712ZM18.6312 134H18.1312V134.5H18.6312V134ZM18.6312 132.9H20.1312V131.9H18.6312V132.9ZM20.5978 132.58L25.1378 120.78L24.2045 120.42L19.6645 132.22L20.5978 132.58ZM24.6712 120.1H18.8512V121.1H24.6712V120.1ZM18.3512 120.6V122.92H19.3512V120.6H18.3512ZM18.8512 122.42H17.2512V123.42H18.8512V122.42ZM17.7512 122.92V119H16.7512V122.92H17.7512ZM17.2512 119.5H26.5712V118.5H17.2512V119.5ZM26.0712 119V120.6H27.0712V119H26.0712ZM26.1045 120.42L21.5645 132.22L22.4978 132.58L27.0378 120.78L26.1045 120.42ZM22.0312 132.9H23.6712V131.9H22.0312V132.9ZM23.1712 132.4V134H24.1712V132.4H23.1712ZM23.6712 133.5H18.6312V134.5H23.6712V133.5ZM19.1312 134V132.4H18.1312V134H19.1312ZM36.8512 132.4V131.9H36.3512V132.4H36.8512ZM38.4512 132.4V132.9H38.9512V132.4H38.4512ZM38.4512 120.6H38.9512V120.1H38.4512V120.6ZM36.8512 120.6H36.3512V121.1H36.8512V120.6ZM36.8512 119V118.5H36.3512V119H36.8512ZM41.8912 119H42.3912V118.5H41.8912V119ZM41.8912 120.6V121.1H42.3912V120.6H41.8912ZM40.2912 120.6V120.1H39.7912V120.6H40.2912ZM40.2912 132.4H39.7912V132.9H40.2912V132.4ZM41.8912 132.4H42.3912V131.9H41.8912V132.4ZM41.8912 134V134.5H42.3912V134H41.8912ZM36.8512 134H36.3512V134.5H36.8512V134ZM36.8512 132.9H38.4512V131.9H36.8512V132.9ZM38.9512 132.4V120.6H37.9512V132.4H38.9512ZM38.4512 120.1H36.8512V121.1H38.4512V120.1ZM37.3512 120.6V119H36.3512V120.6H37.3512ZM36.8512 119.5H41.8912V118.5H36.8512V119.5ZM41.3912 119V120.6H42.3912V119H41.3912ZM41.8912 120.1H40.2912V121.1H41.8912V120.1ZM39.7912 120.6V132.4H40.7912V120.6H39.7912ZM40.2912 132.9H41.8912V131.9H40.2912V132.9ZM41.3912 132.4V134H42.3912V132.4H41.3912ZM41.8912 133.5H36.8512V134.5H41.8912V133.5ZM37.3512 134V132.4H36.3512V134H37.3512ZM44.8832 119V118.5H44.3832V119H44.8832ZM52.8832 119L53.2465 118.656L53.0986 118.5H52.8832V119ZM54.9632 121.2H55.4632V121.001L55.3265 120.856L54.9632 121.2ZM54.9632 124.8L55.3262 125.144L55.4632 124.999V124.8H54.9632ZM53.8832 125.94L53.5202 125.596L53.1921 125.942L53.5227 126.286L53.8832 125.94ZM55.3632 127.48H55.8632V127.279L55.7237 127.134L55.3632 127.48ZM55.3632 131.8L55.7265 132.144L55.8632 131.999V131.8H55.3632ZM53.2832 134V134.5H53.4986L53.6465 134.344L53.2832 134ZM44.8832 134H44.3832V134.5H44.8832V134ZM44.8832 132.4V131.9H44.3832V132.4H44.8832ZM46.2832 132.4V132.9H46.7832V132.4H46.2832ZM46.2832 120.6H46.7832V120.1H46.2832V120.6ZM44.8832 120.6H44.3832V121.1H44.8832V120.6ZM48.1232 126.88V126.38H47.6232V126.88H48.1232ZM48.1232 132.28H47.6232V132.78H48.1232V132.28ZM52.4832 132.28V132.78H52.6928L52.8398 132.631L52.4832 132.28ZM53.6432 131.1L53.9998 131.451L54.1432 131.305V131.1H53.6432ZM53.6432 128.18H54.1432V127.977L54.0022 127.832L53.6432 128.18ZM52.3832 126.88L52.7422 126.532L52.5949 126.38H52.3832V126.88ZM48.1232 120.72V120.22H47.6232V120.72H48.1232ZM48.1232 125.28H47.6232V125.78H48.1232V125.28ZM52.0832 125.28V125.78H52.2928L52.4398 125.631L52.0832 125.28ZM53.2432 124.1L53.5998 124.451L53.7432 124.305V124.1H53.2432ZM53.2432 121.9H53.7432V121.698L53.6028 121.553L53.2432 121.9ZM52.1032 120.72L52.4628 120.373L52.3154 120.22H52.1032V120.72ZM44.8832 119.5H52.8832V118.5H44.8832V119.5ZM52.5199 119.344L54.5999 121.544L55.3265 120.856L53.2465 118.656L52.5199 119.344ZM54.4632 121.2V124.8H55.4632V121.2H54.4632ZM54.6002 124.456L53.5202 125.596L54.2462 126.284L55.3262 125.144L54.6002 124.456ZM53.5227 126.286L55.0027 127.826L55.7237 127.134L54.2437 125.594L53.5227 126.286ZM54.8632 127.48V131.8H55.8632V127.48H54.8632ZM54.9999 131.456L52.9199 133.656L53.6465 134.344L55.7265 132.144L54.9999 131.456ZM53.2832 133.5H44.8832V134.5H53.2832V133.5ZM45.3832 134V132.4H44.3832V134H45.3832ZM44.8832 132.9H46.2832V131.9H44.8832V132.9ZM46.7832 132.4V120.6H45.7832V132.4H46.7832ZM46.2832 120.1H44.8832V121.1H46.2832V120.1ZM45.3832 120.6V119H44.3832V120.6H45.3832ZM47.6232 126.88V132.28H48.6232V126.88H47.6232ZM48.1232 132.78H52.4832V131.78H48.1232V132.78ZM52.8398 132.631L53.9998 131.451L53.2866 130.749L52.1266 131.929L52.8398 132.631ZM54.1432 131.1V128.18H53.1432V131.1H54.1432ZM54.0022 127.832L52.7422 126.532L52.0242 127.228L53.2842 128.528L54.0022 127.832ZM52.3832 126.38H48.1232V127.38H52.3832V126.38ZM47.6232 120.72V125.28H48.6232V120.72H47.6232ZM48.1232 125.78H52.0832V124.78H48.1232V125.78ZM52.4398 125.631L53.5998 124.451L52.8866 123.749L51.7266 124.929L52.4398 125.631ZM53.7432 124.1V121.9H52.7432V124.1H53.7432ZM53.6028 121.553L52.4628 120.373L51.7436 121.067L52.8836 122.247L53.6028 121.553ZM52.1032 120.22H48.1232V121.22H52.1032V120.22ZM65.9151 119V118.5H65.4151V119H65.9151ZM70.3551 119H70.8551V118.5H70.3551V119ZM70.3551 120.6V121.1H70.8551V120.6H70.3551ZM69.1551 120.6V120.1H68.6551V120.6H69.1551ZM69.1551 131.8L69.5184 132.144L69.6551 131.999V131.8H69.1551ZM67.0751 134V134.5H67.2904L67.4384 134.344L67.0751 134ZM61.6351 134L61.2718 134.344L61.4197 134.5H61.6351V134ZM59.5551 131.8H59.0551V131.999L59.1918 132.144L59.5551 131.8ZM59.5551 120.6H60.0551V120.1H59.5551V120.6ZM58.3551 120.6H57.8551V121.1H58.3551V120.6ZM58.3551 119V118.5H57.8551V119H58.3551ZM62.7951 119H63.2951V118.5H62.7951V119ZM62.7951 120.6V121.1H63.2951V120.6H62.7951ZM61.3951 120.6V120.1H60.8951V120.6H61.3951ZM61.3951 131.22H60.8951V131.421L61.0348 131.567L61.3951 131.22ZM62.4151 132.28L62.0548 132.627L62.2023 132.78H62.4151V132.28ZM66.2751 132.28V132.78H66.485L66.632 132.63L66.2751 132.28ZM67.3151 131.22L67.672 131.57L67.8151 131.424V131.22H67.3151ZM67.3151 120.6H67.8151V120.1H67.3151V120.6ZM65.9151 120.6H65.4151V121.1H65.9151V120.6ZM65.9151 119.5H70.3551V118.5H65.9151V119.5ZM69.8551 119V120.6H70.8551V119H69.8551ZM70.3551 120.1H69.1551V121.1H70.3551V120.1ZM68.6551 120.6V131.8H69.6551V120.6H68.6551ZM68.7918 131.456L66.7118 133.656L67.4384 134.344L69.5184 132.144L68.7918 131.456ZM67.0751 133.5H61.6351V134.5H67.0751V133.5ZM61.9984 133.656L59.9184 131.456L59.1918 132.144L61.2718 134.344L61.9984 133.656ZM60.0551 131.8V120.6H59.0551V131.8H60.0551ZM59.5551 120.1H58.3551V121.1H59.5551V120.1ZM58.8551 120.6V119H57.8551V120.6H58.8551ZM58.3551 119.5H62.7951V118.5H58.3551V119.5ZM62.2951 119V120.6H63.2951V119H62.2951ZM62.7951 120.1H61.3951V121.1H62.7951V120.1ZM60.8951 120.6V131.22H61.8951V120.6H60.8951ZM61.0348 131.567L62.0548 132.627L62.7754 131.933L61.7554 130.873L61.0348 131.567ZM62.4151 132.78H66.2751V131.78H62.4151V132.78ZM66.632 132.63L67.672 131.57L66.9582 130.87L65.9182 131.93L66.632 132.63ZM67.8151 131.22V120.6H66.8151V131.22H67.8151ZM67.3151 120.1H65.9151V121.1H67.3151V120.1ZM66.4151 120.6V119H65.4151V120.6H66.4151ZM73.1598 118V117.5H72.6598V118H73.1598ZM75.1598 118H75.6598V117.5H75.1598V118ZM75.1598 119.8L75.6279 119.976L75.6598 119.891V119.8H75.1598ZM73.9598 123V123.5H74.3063L74.4279 123.176L73.9598 123ZM73.1598 123H72.6598V123.5H73.1598V123ZM73.1598 118.5H75.1598V117.5H73.1598V118.5ZM74.6598 118V119.8H75.6598V118H74.6598ZM74.6916 119.624L73.4916 122.824L74.4279 123.176L75.6279 119.976L74.6916 119.624ZM73.9598 122.5H73.1598V123.5H73.9598V122.5ZM73.6598 123V118H72.6598V123H73.6598ZM86.9645 125.72V126.22H87.4645V125.72H86.9645ZM85.3045 125.72H84.8045V126.22H85.3045V125.72ZM85.3045 123.96H85.8045V123.758L85.6638 123.612L85.3045 123.96ZM84.1045 122.72L84.4638 122.372L84.3164 122.22H84.1045V122.72ZM81.0445 122.72V122.22H80.8345L80.6875 122.37L81.0445 122.72ZM80.0045 123.78L79.6476 123.43L79.5045 123.576V123.78H80.0045ZM80.0045 125.74H79.5045V125.944L79.6473 126.09L80.0045 125.74ZM80.9845 126.74L80.6273 127.09L80.7744 127.24H80.9845V126.74ZM85.1445 126.74L85.5064 126.395L85.3587 126.24H85.1445V126.74ZM87.1645 128.86H87.6645V128.66L87.5264 128.515L87.1645 128.86ZM87.1645 131.8L87.5278 132.144L87.6645 131.999V131.8H87.1645ZM85.0845 134V134.5H85.2998L85.4478 134.344L85.0845 134ZM80.0445 134L79.6811 134.344L79.8291 134.5H80.0445V134ZM77.9645 131.8H77.4645V131.999L77.6011 132.144L77.9645 131.8ZM77.9645 129.28V128.78H77.4645V129.28H77.9645ZM79.6245 129.28H80.1245V128.78H79.6245V129.28ZM79.6245 131.04H79.1245V131.245L79.268 131.391L79.6245 131.04ZM80.8445 132.28L80.488 132.631L80.635 132.78H80.8445V132.28ZM84.3045 132.28V132.78H84.5172L84.6647 132.627L84.3045 132.28ZM85.3245 131.22L85.6847 131.567L85.8245 131.421V131.22H85.3245ZM85.3245 129.44H85.8245V129.236L85.6816 129.09L85.3245 129.44ZM84.3645 128.46L84.7216 128.11L84.5746 127.96H84.3645V128.46ZM80.2045 128.46L79.8425 128.805L79.9903 128.96H80.2045V128.46ZM78.1645 126.32H77.6645V126.52L77.8025 126.665L78.1645 126.32ZM78.1645 123.2L77.8011 122.856L77.6645 123.001V123.2H78.1645ZM80.2445 121V120.5H80.0291L79.8811 120.656L80.2445 121ZM84.8845 121L85.2478 120.656L85.0998 120.5H84.8845V121ZM86.9645 123.2H87.4645V123.001L87.3278 122.856L86.9645 123.2ZM86.9645 125.22H85.3045V126.22H86.9645V125.22ZM85.8045 125.72V123.96H84.8045V125.72H85.8045ZM85.6638 123.612L84.4638 122.372L83.7452 123.068L84.9452 124.308L85.6638 123.612ZM84.1045 122.22H81.0445V123.22H84.1045V122.22ZM80.6875 122.37L79.6476 123.43L80.3614 124.13L81.4014 123.07L80.6875 122.37ZM79.5045 123.78V125.74H80.5045V123.78H79.5045ZM79.6473 126.09L80.6273 127.09L81.3416 126.39L80.3616 125.39L79.6473 126.09ZM80.9845 127.24H85.1445V126.24H80.9845V127.24ZM84.7825 127.085L86.8025 129.205L87.5264 128.515L85.5064 126.395L84.7825 127.085ZM86.6645 128.86V131.8H87.6645V128.86H86.6645ZM86.8011 131.456L84.7211 133.656L85.4478 134.344L87.5278 132.144L86.8011 131.456ZM85.0845 133.5H80.0445V134.5H85.0845V133.5ZM80.4078 133.656L78.3278 131.456L77.6011 132.144L79.6811 134.344L80.4078 133.656ZM78.4645 131.8V129.28H77.4645V131.8H78.4645ZM77.9645 129.78H79.6245V128.78H77.9645V129.78ZM79.1245 129.28V131.04H80.1245V129.28H79.1245ZM79.268 131.391L80.488 132.631L81.2009 131.929L79.9809 130.689L79.268 131.391ZM80.8445 132.78H84.3045V131.78H80.8445V132.78ZM84.6647 132.627L85.6847 131.567L84.9642 130.873L83.9442 131.933L84.6647 132.627ZM85.8245 131.22V129.44H84.8245V131.22H85.8245ZM85.6816 129.09L84.7216 128.11L84.0073 128.81L84.9673 129.79L85.6816 129.09ZM84.3645 127.96H80.2045V128.96H84.3645V127.96ZM80.5664 128.115L78.5264 125.975L77.8025 126.665L79.8425 128.805L80.5664 128.115ZM78.6645 126.32V123.2H77.6645V126.32H78.6645ZM78.5278 123.544L80.6078 121.344L79.8811 120.656L77.8011 122.856L78.5278 123.544ZM80.2445 121.5H84.8845V120.5H80.2445V121.5ZM84.5211 121.344L86.6011 123.544L87.3278 122.856L85.2478 120.656L84.5211 121.344ZM86.4645 123.2V125.72H87.4645V123.2H86.4645Z" fill="#F6D351"/>
<path d="M62.8783 32.1452C63.2493 30.1231 64.3623 22.0091 60.1189 15.917C57.0812 11.5619 52.0957 9.33247 45.3479 9.30655H45.116C44.9073 9.30655 44.6986 9.30655 44.4899 9.30655H43.4928V9.33247C37.5566 9.61763 33.1044 11.7434 30.2522 15.7097C25.3826 22.5016 27.2841 31.9378 27.3768 32.3526L27.516 33.0266C25.8 39.3001 29.0928 45.8328 29.2551 46.1439L29.9971 47.5956L31.4812 47.3104C31.829 47.2586 32.1537 47.1808 32.4783 47.103C31.2261 50.2398 30.3682 54.8542 32.4319 60.4537L33.0348 62.1128L34.6348 61.9313C34.7739 61.9054 36.0725 61.7498 37.7652 61.1795C38.4145 64.4977 40.2696 67.79 43.0754 70.4861L44.0029 71.3934L45.1623 70.9527C45.3942 70.8749 51.0522 68.7233 52.8145 61.9572L52.8377 61.9054C53.8116 62.2165 54.4841 62.3461 54.5768 62.3461L56.2464 62.6312L56.8957 60.8684C59.0058 55.0875 58.6116 51.0175 57.5913 48.3474C58.4725 48.7103 59.0522 48.8918 59.145 48.9177L60.6986 49.3843L61.5565 47.8548C64.571 42.5146 65.0116 36.9929 62.8783 32.1452ZM33.6377 18.6909C35.8638 15.606 39.7131 14.0506 45.116 14.1283H45.8348C50.9131 14.2579 54.5768 15.8393 56.687 18.8464C59.1449 22.3202 59.0986 27.0642 58.8435 29.6047C58.7971 29.6047 58.7276 29.6047 58.6812 29.6047C58.4725 29.6047 58.2406 29.6047 58.0319 29.5787C57.9392 29.5787 57.8464 29.5787 57.7536 29.5528C57.5681 29.5528 57.4058 29.5269 57.2203 29.501C57.1507 29.501 57.0812 29.501 57.0116 29.475C56.7797 29.4491 56.571 29.4232 56.3623 29.3973C56.2928 29.3973 56.2232 29.3714 56.1536 29.3714C55.945 29.3454 55.7131 29.2936 55.5044 29.2677C55.458 29.2677 55.3884 29.2417 55.3421 29.2417C55.1334 29.1899 54.9247 29.164 54.7392 29.1121C54.716 29.1121 54.6928 29.1121 54.6696 29.0862C54.4609 29.0343 54.2522 28.9566 54.0435 28.9047C53.9971 28.8788 53.9507 28.8788 53.9044 28.8529C53.6957 28.7751 53.5102 28.7233 53.3015 28.6455C53.2551 28.6196 53.2319 28.6196 53.1855 28.5937C52.9768 28.5159 52.7913 28.4381 52.5826 28.3344L50.5421 27.3752L49.7305 29.6824C49.3594 30.7453 48.8029 31.8341 48.0609 32.897L48.0145 32.9488C47.9681 33.0266 47.9218 33.0784 47.8754 33.1562L47.8522 33.1821C47.7594 33.2858 47.6899 33.4154 47.5971 33.5191C47.5971 33.5191 47.5971 33.5191 47.5739 33.545C47.4812 33.6487 47.4116 33.7784 47.3189 33.882L47.2957 33.908C47.2029 34.0117 47.1102 34.1413 47.0406 34.245L47.0174 34.2709C46.9247 34.3746 46.8319 34.5042 46.7392 34.6079C46.7392 34.6079 46.7392 34.6338 46.716 34.6338C46.6232 34.7375 46.5073 34.8671 46.4145 34.9708C46.0899 35.3338 45.7652 35.6708 45.4174 36.0337C44.6986 35.2819 43.7479 34.2191 42.9131 32.871C42.9131 32.8451 42.8899 32.8451 42.8899 32.8192C42.7971 32.6896 42.7276 32.5599 42.6348 32.4044C42.6116 32.3526 42.5884 32.3266 42.5652 32.2748C42.4957 32.1711 42.4493 32.0674 42.3797 31.9637C42.3566 31.9119 42.3102 31.8341 42.287 31.7822C42.2406 31.6785 42.1942 31.6008 42.1479 31.4971C42.1015 31.4193 42.0783 31.3675 42.0551 31.2897C42.0087 31.186 41.9623 31.1082 41.916 31.0045C41.8928 30.9268 41.8464 30.8749 41.8232 30.7971C41.7768 30.6935 41.7305 30.6157 41.7073 30.512C41.6841 30.4342 41.6609 30.3824 41.6145 30.3046C41.5681 30.2009 41.5218 30.0972 41.4986 29.9676C41.4754 29.9157 41.4522 29.8639 41.429 29.7861C41.3595 29.6047 41.3131 29.4491 41.2667 29.2677L40.4551 26.7012L38.2522 27.8937C38.0435 27.9974 37.8348 28.127 37.6029 28.2048C37.5797 28.2048 37.5566 28.2307 37.5334 28.2307C37.3247 28.3344 37.0928 28.4122 36.8841 28.49C36.8377 28.5159 36.8145 28.5159 36.7681 28.5418C36.5363 28.6196 36.3044 28.6973 36.0725 28.7751C36.0261 28.7751 36.0029 28.801 35.9566 28.801C35.7247 28.8788 35.4696 28.9307 35.2145 28.9825C35.1913 28.9825 35.1681 28.9825 35.145 29.0084C34.8899 29.0603 34.6116 29.1121 34.3566 29.164C34.3334 29.164 34.3102 29.164 34.3102 29.164C34.0319 29.2158 33.7537 29.2417 33.4754 29.2677C33.429 29.2677 33.4058 29.2677 33.3595 29.2677C33.0812 29.2936 32.8029 29.3195 32.5015 29.3195C32.4551 29.3195 32.4087 29.3195 32.3624 29.3195C32.0609 29.3195 31.7826 29.3454 31.4812 29.3454C31.4348 29.3454 31.4116 29.3454 31.3653 29.3454C31.1334 26.8827 31.1566 22.1646 33.6377 18.6909ZM45.4638 49.2806C44.8609 48.5548 44.1421 47.5437 43.5855 46.3253C42.5652 44.1478 42.3102 42.048 42.8435 39.9482C43.6319 40.7259 44.1884 41.1666 44.2348 41.2184L44.4899 41.4258L45.5334 42.2553L46.7855 41.1406C47.0406 40.9073 47.2957 40.6999 47.5276 40.4666C47.5739 40.4148 47.6203 40.3889 47.6667 40.337C47.8986 40.1296 48.1305 39.8963 48.3392 39.6889C48.3623 39.663 48.3855 39.663 48.3855 39.6371C48.7102 40.5444 49.1276 41.3999 49.6609 42.2294C49.5218 44.4848 48.1073 46.8697 45.4638 49.2806ZM31.6899 34.2709C31.9681 34.2709 32.2464 34.2709 32.5015 34.245C32.5479 34.245 32.5942 34.245 32.6406 34.245C32.8957 34.245 33.1508 34.2191 33.3826 34.1931H33.4058C33.6609 34.1672 33.916 34.1413 34.171 34.1154C34.2174 34.1154 34.2638 34.1154 34.3102 34.0894C34.5421 34.0635 34.7971 34.0376 35.029 33.9857H35.0522C35.2841 33.9339 35.5392 33.908 35.771 33.8561C35.8174 33.8561 35.8638 33.8302 35.9102 33.8302C36.1421 33.7784 36.3739 33.7265 36.6058 33.6747C36.8377 33.6228 37.0464 33.545 37.2783 33.4932C37.3247 33.4673 37.371 33.4673 37.4174 33.4413C37.6261 33.3636 37.858 33.3117 38.0667 33.234C38.0667 33.234 38.0667 33.2599 38.0899 33.2599C38.2058 33.5191 38.3218 33.7784 38.4609 34.0117C38.4841 34.0376 38.5073 34.0894 38.5073 34.1154C38.6232 34.3487 38.7623 34.6079 38.9015 34.8412C38.9247 34.8671 38.9479 34.919 38.9479 34.9449C38.5537 37.8483 37.2551 40.7518 32.3624 42.1517C31.6899 40.3111 30.8551 37.1225 31.6899 34.2709ZM38.6232 45.418C38.8783 46.5327 39.2725 47.6215 39.8058 48.7103C40.4087 49.9546 41.1044 51.0175 41.7537 51.8989L41.4986 52.547C40.5479 54.9319 37.858 56.2022 35.887 56.7466C34.5652 51.0434 37.2551 47.0253 38.6232 45.418ZM48.687 60.6092C47.945 63.4349 46.1131 65.0162 44.9305 65.768C43.2841 63.8756 42.2406 61.7758 41.9392 59.7278L41.8464 59.0797C43.0058 58.2242 44.0957 57.1095 44.9073 55.6837C45.9044 57.6021 47.3652 58.976 48.8493 59.987L48.687 60.6092ZM53.5334 57.0836C51.8638 56.4874 49.429 55.2171 48.4319 52.8062C50.0551 51.3027 51.3073 49.7472 52.2348 48.1659L52.3044 48.2178C52.3044 48.2178 53.0696 48.8399 53.6029 50.162C54.2986 51.9767 54.2754 54.3357 53.5334 57.0836ZM58.7276 43.6552C57.2435 43.0071 55.0638 41.8146 53.6725 40.0259C53.5102 39.6371 53.3479 39.326 53.2319 39.0408C52.5131 37.4854 52.5131 37.4854 52.0725 35.3338L52.0261 35.1005L52.0493 35.0745C52.1884 34.8671 52.3044 34.6598 52.4203 34.4524C52.4435 34.4005 52.4899 34.3487 52.5131 34.2709C52.629 34.0635 52.745 33.8302 52.8609 33.6228C52.8841 33.6228 52.9073 33.6487 52.9536 33.6487C53.1855 33.7265 53.4174 33.7784 53.6493 33.8561C53.7652 33.882 53.858 33.908 53.9739 33.9339C54.1363 33.9857 54.2986 34.0117 54.4841 34.0376C54.6 34.0635 54.7392 34.0894 54.8551 34.1154C55.0174 34.1413 55.1797 34.1672 55.3421 34.1931C55.4812 34.2191 55.5971 34.245 55.7363 34.245C55.8986 34.2709 56.0841 34.2968 56.2464 34.3227C56.4783 34.3487 56.7334 34.3746 56.9652 34.4005C57.1276 34.4264 57.2899 34.4264 57.4522 34.4524C57.6145 34.4524 57.8 34.4783 57.9623 34.4783C58.1015 34.4783 58.2406 34.4783 58.3797 34.5042C58.5652 34.5042 58.7276 34.5042 58.9131 34.5042C58.9594 34.5042 59.029 34.5042 59.0754 34.5042C60.2812 37.304 60.142 40.3889 58.7276 43.6552Z" fill="#F7CE3C"/>
</svg>
