<svg width="74" height="125" fill="none" xmlns="http://www.w3.org/2000/svg"><path d="M3.12 2h4.272v1.28h-.736l2.816 9.44h.8V14H6.88v-1.28H8l-.736-2.464H3.248l-.736 2.464h1.12V14H.24v-1.28h.8l2.816-9.44H3.12V2zm2.128 1.52L3.632 8.976H6.88L5.248 3.52zm6.548.08h6.4l1.664 1.76v3.2l-1.616 1.696 1.488 2.464h.848V14h-2.848v-1.28h.448l-1.44-2.4h-2.352v2.4h.96V14h-3.552v-1.28h1.12V4.88h-1.12V3.6zm2.592 1.376v3.968h3.168L18.484 8V5.92l-.912-.944h-3.184zM22.983 3.6h6.4l1.664 1.76v3.2l-1.616 1.696 1.488 2.464h.848V14H28.92v-1.28h.448l-1.44-2.4h-2.352v2.4h.96V14h-3.552v-1.28h1.12V4.88h-1.12V3.6zm2.592 1.376v3.968h3.168L29.671 8V5.92l-.912-.944h-3.184zM39.771 14v-1.28h1.056l-.688-1.984h-4l-.688 1.984h1.072V14H33.13v-1.28h.848l2.704-7.84h-.672V3.6h4.272v1.28h-.688l2.704 7.84h.864V14H39.77zm-1.632-9.072L36.57 9.456h3.136l-1.568-4.528zm13.587 2.448h-1.328V5.968l-.96-.992H46.99l-.832.848v1.568l.784.8h3.328l1.616 1.696v2.352L50.222 14H46.19l-1.664-1.76v-2.016h1.328v1.408l.976.992h2.768l.816-.848v-1.424l-.768-.784h-3.328l-1.632-1.712V5.36L46.35 3.6h3.712l1.664 1.76v2.016zM59.976 14h-4.672v-1.28h1.6V4.88h-2.208v1.856H53.48V3.6h8.32v3.136h-1.216V4.88h-2.208v7.84h1.6V14zm3.585-10.4h7.616v3.136h-1.28V4.88h-3.744v3.28h3.744v1.28h-3.744v3.28h3.744v-1.856h1.28V14h-7.616v-1.28h1.12V4.88h-1.12V3.6z" fill="#F6D351"/><path fill-rule="evenodd" clip-rule="evenodd" d="M68 53v40.026c0 8.272-3.225 16.057-9.084 21.916-5.847 5.847-13.644 9.084-21.916 9.084s-16.057-3.237-21.916-9.084C9.225 109.095 6 101.31 6 93.026V53c0-8.272 3.225-16.057 9.084-21.916C20.932 25.225 28.716 22 37 22s16.069 3.225 21.916 9.084C64.775 36.932 68 44.716 68 53zM37 24.32C21.187 24.32 8.32 37.187 8.32 53v40.026c0 15.813 12.867 28.68 28.68 28.68 15.813 0 28.68-12.866 28.68-28.68V53c0-15.813-12.867-28.68-28.68-28.68zm26.371 68.602V53.07c0-7.042-2.738-13.667-7.727-18.644-4.977-4.977-11.601-7.727-18.644-7.727-7.042 0-13.666 2.738-18.644 7.727-4.977 4.977-7.727 11.601-7.727 18.644v39.852c0 7.042 2.739 13.667 7.727 18.644 4.977 4.977 11.602 7.727 18.644 7.727 7.043 0 13.667-2.738 18.645-7.727 4.988-4.977 7.726-11.59 7.726-18.644zM12.95 53.07c0-13.261 10.79-24.05 24.05-24.05 13.261 0 24.05 10.79 24.05 24.05v39.852c0 13.261-10.789 24.051-24.05 24.051-13.26-.001-24.05-10.79-24.05-24.051V53.07zm45.745 39.852V53.21c0-11.973-9.745-21.718-21.718-21.718-11.974 0-21.72 9.745-21.72 21.718v39.713c0 11.973 9.746 21.719 21.72 21.719 11.973 0 21.718-9.746 21.718-21.719zM17.59 53.21c0-10.697 8.701-19.398 19.398-19.398s19.398 8.702 19.398 19.398v39.713c0 10.697-8.701 19.398-19.398 19.398S17.59 103.619 17.59 92.922V53.209z" fill="#F7CE3C"/></svg>