<svg width="91" height="138" fill="none" xmlns="http://www.w3.org/2000/svg"><path d="M26.913 103h-1.44l-.736-2.816h-3.488l-.72 2.816h-1.28l2.992-11.2H24l2.912 11.2zm-5.392-3.84h2.944l-1.488-5.648-1.456 5.648zm7.978 2.464h5.232V103h-6.624V91.8h1.392v9.824zm13.288-8.24v2.16H41.41v-1.552l-.8-.8h-2.592l-1.008 1.024v6.336l1.072 1.072h2.464l.864-.848V99h1.376v2.336L41.123 103h-3.536l-1.968-1.952v-7.376L37.49 91.8h3.728l1.568 1.584zm1.128 11.136h-.88l3.52-13.168h.88l-3.52 13.168zM52.5 103h-1.744l-2.912-11.2h1.392l2.496 9.504L54.18 91.8h1.312L52.5 103zm10.885-1.808L61.56 103h-3.68l-1.808-1.808v-7.664L57.8 91.8h3.856l1.728 1.728v7.664zm-5.024-8.016l-.912.912v6.56l.96.976h2.624l.96-.976v-6.56l-.912-.912h-2.72zm8.06 8.448h5.233V103H65.03V91.8h1.392v9.824zM27.286 132.4h1.6v-2.14h-7v-1.6l5.84-9.66h3v9.66h1.26v1.6h-1.26v2.14h1.4v1.6h-4.84v-1.6zm1.6-3.74v-8.24l-4.98 8.24h4.98zm6.208 2.94h2v1.8l-1.2 3.2h-.8v-5zm6.684 2.4l-2.08-2.2v-10.6l2.08-2.2h5.64l2.08 2.2v10.6l-2.08 2.2h-5.64zm.78-1.72h4.06l1.14-1.16v-9.24l-1.12-1.16h-4.06l-1.14 1.16v9.24l1.12 1.16zm1.04-6.98h2v2.4h-2v-2.4zm20.188 8.7l-1.3-1.38v-6.28l1.3-1.38h3.44l1.28 1.38v6.28l-1.28 1.38h-3.44zm.6-1.36h2.24l.54-.54v-5.24l-.54-.54h-2.24l-.54.54v5.24l.54.54zm-10.58-4.6l-1.3-1.38v-6.28l1.3-1.38h3.44l1.28 1.38v6.28l-1.28 1.38h-3.44zm.6-1.36h2.24l.54-.54v-5.24l-.54-.54h-2.24l-.54.54v5.24l.54.54zm2.28 8.02l6.1-16.38h1.54l-6.1 16.38h-1.54z" fill="#F5CE3E"/><path d="M27.286 132.4v-.5h-.5v.5h.5zm1.6 0v.5h.5v-.5h-.5zm0-2.14h.5v-.5h-.5v.5zm-7 0h-.5v.5h.5v-.5zm0-1.6l-.428-.259-.072.12v.139h.5zm5.84-9.66v-.5h-.282l-.146.241.428.259zm3 0h.5v-.5h-.5v.5zm0 9.66h-.5v.5h.5v-.5zm1.26 0h.5v-.5h-.5v.5zm0 1.6v.5h.5v-.5h-.5zm-1.26 0v-.5h-.5v.5h.5zm0 2.14h-.5v.5h.5v-.5zm1.4 0h.5v-.5h-.5v.5zm0 1.6v.5h.5v-.5h-.5zm-4.84 0h-.5v.5h.5v-.5zm1.6-5.34v.5h.5v-.5h-.5zm0-8.24h.5v-1.794l-.928 1.535.428.259zm-4.98 8.24l-.428-.259-.459.759h.887v-.5zm3.38 4.24h1.6v-1h-1.6v1zm2.1-.5v-2.14h-1v2.14h1zm-.5-2.64h-7v1h7v-1zm-6.5.5v-1.6h-1v1.6h1zm-.072-1.341l5.84-9.66-.856-.518-5.84 9.66.856.518zm5.412-9.419h3v-1h-3v1zm2.5-.5v9.66h1V119h-1zm.5 10.16h1.26v-1h-1.26v1zm.76-.5v1.6h1v-1.6h-1zm.5 1.1h-1.26v1h1.26v-1zm-1.76.5v2.14h1v-2.14h-1zm.5 2.64h1.4v-1h-1.4v1zm.9-.5v1.6h1v-1.6h-1zm.5 1.1h-4.84v1h4.84v-1zm-4.34.5v-1.6h-1v1.6h1zm1.6-5.34v-8.24h-1v8.24h1zm-.928-8.499l-4.98 8.24.856.518 4.98-8.24-.856-.518zm-4.552 8.999h4.98v-1h-4.98v1zm11.188 2.44v-.5h-.5v.5h.5zm2 0h.5v-.5h-.5v.5zm0 1.8l.468.176.032-.085v-.091h-.5zm-1.2 3.2v.5h.346l.122-.324-.468-.176zm-.8 0h-.5v.5h.5v-.5zm0-4.5h2v-1h-2v1zm1.5-.5v1.8h1v-1.8h-1zm.032 1.624l-1.2 3.2.936.352 1.2-3.2-.936-.352zm-.732 2.876h-.8v1h.8v-1zm-.3.5v-5h-1v5h1zm6.184-2.6l-.364.344.148.156h.216v-.5zm-2.08-2.2h-.5v.199l.136.145.364-.344zm0-10.6l-.364-.344-.136.145v.199h.5zm2.08-2.2v-.5h-.216l-.148.156.364.344zm5.64 0l.363-.344-.148-.156h-.215v.5zm2.08 2.2h.5v-.199l-.137-.145-.363.344zm0 10.6l.363.344.137-.145v-.199h-.5zm-2.08 2.2v.5h.215l.148-.156-.363-.344zm-4.86-1.72l-.36.347.147.153h.213v-.5zm4.06 0v.5h.21l.146-.15-.356-.35zm1.14-1.16l.356.35.144-.145v-.205h-.5zm0-9.24h.5v-.202l-.14-.145-.36.347zm-1.12-1.16l.36-.347-.148-.153h-.212v.5zm-4.06 0v-.5h-.21l-.147.15.357.35zm-1.14 1.16l-.357-.35-.143.145v.205h.5zm0 9.24h-.5v.202l.14.145.36-.347zm2.16-5.82v-.5h-.5v.5h.5zm2 0h.5v-.5h-.5v.5zm0 2.4v.5h.5v-.5h-.5zm-2 0h-.5v.5h.5v-.5zm-1.457 5.956l-2.08-2.2-.727.688 2.08 2.2.727-.688zm-1.943-1.856v-10.6h-1v10.6h1zm-.137-10.256l2.08-2.2-.727-.688-2.08 2.2.727.688zm1.717-2.044h5.64v-1h-5.64v1zm5.276-.156l2.08 2.2.727-.688-2.08-2.2-.727.688zm1.944 1.856v10.6h1v-10.6h-1zm.136 10.256l-2.08 2.2.727.688 2.08-2.2-.727-.688zm-1.716 2.044h-5.64v1h5.64v-1zm-4.86-.72h4.06v-1h-4.06v1zm4.416-.15l1.14-1.16-.713-.7-1.14 1.16.713.7zm1.284-1.51v-9.24h-1v9.24h1zm-.14-9.587l-1.12-1.16-.72.694 1.12 1.16.72-.694zm-1.48-1.313h-4.06v1h4.06v-1zm-4.417.15l-1.14 1.16.713.7 1.14-1.16-.713-.7zm-1.283 1.51v9.24h1v-9.24h-1zm.14 9.587l1.12 1.16.72-.694-1.12-1.16-.72.694zm2.52-5.667h2v-1h-2v1zm1.5-.5v2.4h1v-2.4h-1zm.5 1.9h-2v1h2v-1zm-1.5.5v-2.4h-1v2.4h1zm19.688 6.3l-.364.343.148.157h.215v-.5zm-1.3-1.38h-.5v.198l.136.145.364-.343zm0-6.28l-.364-.343-.136.145v.198h.5zm1.3-1.38v-.5h-.216l-.148.157.364.343zm3.44 0l.366-.34-.148-.16h-.219v.5zm1.28 1.38h.5v-.196l-.134-.144-.367.34zm0 6.28l.366.34.133-.144v-.196h-.5zm-1.28 1.38v.5h.218l.148-.16-.367-.34zm-2.84-1.36l-.354.354.146.146h.207v-.5zm2.24 0v.5h.207l.146-.146-.353-.354zm.54-.54l.353.354.146-.147v-.207h-.5zm0-5.24h.5v-.207l-.147-.147-.354.354zm-.54-.54l.353-.354-.146-.146h-.207v.5zm-2.24 0v-.5h-.208l-.146.146.353.354zm-.54.54l-.354-.354-.146.147v.207h.5zm0 5.24h-.5v.207l.146.147.354-.354zm-10.04-4.06l-.364.343.148.157h.215v-.5zm-1.3-1.38h-.5v.198l.136.145.363-.343zm0-6.28l-.364-.343-.137.145v.198h.5zm1.3-1.38v-.5h-.216l-.149.157.364.343zm3.44 0l.366-.34-.148-.16h-.218v.5zm1.28 1.38h.5v-.196l-.134-.144-.367.34zm0 6.28l.366.34.133-.144v-.196h-.5zm-1.28 1.38v.5h.218l.148-.16-.367-.34zm-2.84-1.36l-.354.354.146.146h.208v-.5zm2.24 0v.5h.207l.146-.146-.354-.354zm.54-.54l.353.354.146-.147v-.207h-.5zm0-5.24h.5v-.207l-.147-.147-.354.354zm-.54-.54l.353-.354-.146-.146h-.208v.5zm-2.24 0v-.5h-.208l-.146.146.354.354zm-.54.54l-.354-.354-.147.147v.207h.5zm0 5.24h-.5v.207l.146.147.353-.354zm2.82 8.56l-.47-.174-.25.674h.72v-.5zm6.1-16.38v-.5h-.348l-.121.326.468.174zm1.54 0l.468.174.251-.674h-.72v.5zm-6.1 16.38v.5h.347l.121-.326-.469-.174zm5.923-1.043l-1.3-1.38-.727.686 1.3 1.38.727-.686zm-1.163-1.037v-6.28h-1v6.28h1zm-.137-5.937l1.3-1.38-.727-.686-1.3 1.38.727.686zm.937-1.223h3.44v-1h-3.44v1zm3.073-.16l1.28 1.38.733-.68-1.28-1.38-.733.68zm1.147 1.04v6.28h1v-6.28h-1zm.133 5.94l-1.28 1.38.733.68 1.28-1.38-.733-.68zm-.913 1.22h-3.44v1h3.44v-1zm-2.84-.36h2.24v-1h-2.24v1zm2.593-.146l.54-.54-.707-.708-.54.54.707.708zm.686-.894v-5.24h-1v5.24h1zm-.146-5.594l-.54-.54-.707.708.54.54.707-.708zm-.894-.686h-2.24v1h2.24v-1zm-2.593.146l-.54.54.707.708.54-.54-.707-.708zm-.686.894v5.24h1v-5.24h-1zm.146 5.594l.54.54.707-.708-.54-.54-.707.708zm-9.323-4.757l-1.3-1.38-.727.686 1.3 1.38.727-.686zm-1.163-1.037v-6.28h-1v6.28h1zm-.137-5.937l1.3-1.38-.727-.686-1.3 1.38.727.686zm.937-1.223h3.44v-1h-3.44v1zm3.073-.16l1.28 1.38.733-.68-1.28-1.38-.733.68zm1.147 1.04v6.28h1v-6.28h-1zm.133 5.94l-1.28 1.38.733.68 1.28-1.38-.733-.68zm-.913 1.22h-3.44v1h3.44v-1zm-2.84-.36h2.24v-1h-2.24v1zm2.593-.146l.54-.54-.707-.708-.54.54.707.708zm.686-.894v-5.24h-1v5.24h1zm-.146-5.594l-.54-.54-.707.708.54.54.707-.708zm-.894-.686h-2.24v1h2.24v-1zm-2.593.146l-.54.54.707.708.54-.54-.707-.708zm-.687.894v5.24h1v-5.24h-1zm.147 5.594l.54.54.707-.708-.54-.54-.707.708zm3.642 8.38l6.1-16.38-.937-.348-6.1 16.38.937.348zm5.631-16.054h1.54v-1h-1.54v1zm1.072-.674l-6.1 16.38.937.348 6.1-16.38-.937-.348zM58.225 134.2h-1.54v1h1.54v-1zM54.716 27.09c-3.988-7.518-8.046-13.92-8.093-13.973l-1.716-2.696-1.716 2.696c-.046.052-4.104 6.455-8.092 13.973-5.496 10.344-8.302 17.887-8.302 22.424 0 11.147 8.116 20.22 18.087 20.22s18.087-9.073 18.087-20.22c.023-4.51-2.76-12.055-8.255-22.424zm-9.809 37.978c-7.652 0-13.89-6.973-13.89-15.528 0-6.637 8.858-22.631 13.89-30.927 5.032 8.296 13.89 24.29 13.89 30.927.023 8.555-6.214 15.528-13.89 15.528z" fill="#F5CE3E"/><path d="M50.867 44.433l-.047 2.333c0 .337-.278 8.4-7.026 9.462l-2.087.311.58 4.64 2.087-.31c4.29-.675 7.49-3.345 9.275-7.726 1.299-3.162 1.345-6.17 1.345-6.3l.047-2.332-4.174-.078z" fill="#F5CE3E"/></svg>