<svg width="91" height="138" fill="none" xmlns="http://www.w3.org/2000/svg"><path d="M23.03 103h-1.44l-.736-2.816h-3.488l-.72 2.816h-1.28l2.992-11.2h1.76L23.03 103zm-5.392-3.84h2.944l-1.488-5.648-1.456 5.648zM32.272 103h-1.328v-9.232l-2.336 4.24h-.72l-2.336-4.24V103h-1.328V91.8h1.664l2.416 4.432L30.72 91.8h1.552V103zm8.852 0h-1.44l-.736-2.816H35.46L34.74 103h-1.28l2.992-11.2h1.76l2.912 11.2zm-5.392-3.84h2.944l-1.488-5.648-1.456 5.648zm13.402-5.776v3.248l-1.52 1.52h-.832L48.926 103h-1.44l-2.112-4.848h-1.68V103h-1.376V91.8h5.248l1.568 1.584zm-5.44-.192v3.744h3.264l.8-.8v-2.144l-.8-.8h-3.264zm14.23 2.176H56.53v-1.376l-.8-.816h-2.72L51.987 94.2v6.352l1.072 1.072h2.304l1.168-1.184v-2.32h-2.064v-1.136h3.456V103h-1.328v-1.264L55.331 103h-2.768l-1.952-1.968v-7.36l1.872-1.872h3.856l1.584 1.584v1.984zm8.812 5.824L64.912 103h-3.68l-1.808-1.808v-7.664l1.728-1.728h3.856l1.728 1.728v7.664zm-5.024-8.016l-.912.912v6.56l.96.976h2.624l.96-.976v-6.56l-.912-.912h-2.72zm13.484.208v3.248l-1.52 1.52h-.832L74.988 103h-1.44l-2.112-4.848h-1.68V103H68.38V91.8h5.248l1.568 1.584zm-5.44-.192v3.744h3.264l.8-.8v-2.144l-.8-.8h-3.264zM10.747 131.8v-4.14l1.3-1.38-1.1-1.16v-3.92l2.08-2.2h4.86l2.08 2.2v3.92l-1.12 1.18 1.3 1.36v4.14l-2.08 2.2h-5.24l-2.08-2.2zm6.6-4.54h-3.8l-.96.98v2.98l1.04 1.06h3.66l1.02-1.06v-2.98l-.96-.98zm-4.56-2.72l.98 1h3.38l.98-1v-2.76l-1.04-1.06h-3.26l-1.04 1.06v2.76zm17.56 7.86h1.6v-11.8h-1.6V119h5.04v1.6h-1.6v11.8h1.6v1.6h-5.04v-1.6zM38.38 119h8l2.08 2.2v3.6l-1.08 1.14 1.48 1.54v4.32l-2.08 2.2h-8.4v-1.6h1.4v-11.8h-1.4V119zm3.24 7.88v5.4h4.36l1.16-1.18v-2.92l-1.26-1.3h-4.26zm0-6.16v4.56h3.96l1.16-1.18v-2.2l-1.14-1.18h-3.98zM59.411 119h4.44v1.6h-1.2v11.2l-2.08 2.2h-5.44l-2.08-2.2v-11.2h-1.2V119h4.44v1.6h-1.4v10.62l1.02 1.06h3.86l1.04-1.06V120.6h-1.4V119zm7.245-1h2v1.8l-1.2 3.2h-.8v-5zm13.804 7.72H78.8v-1.76l-1.2-1.24h-3.06l-1.04 1.06v1.96l.98 1h4.16l2.02 2.12v2.94l-2.08 2.2h-5.04l-2.08-2.2v-2.52h1.66v1.76l1.22 1.24h3.46l1.02-1.06v-1.78l-.96-.98H73.7l-2.04-2.14v-3.12l2.08-2.2h4.64l2.08 2.2v2.52z" fill="#F6D351"/><path d="M10.747 131.8h-.5v.199l.137.145.363-.344zm0-4.14l-.364-.343-.136.145v.198h.5zm1.3-1.38l.364.343.324-.344-.325-.343-.363.344zm-1.1-1.16h-.5v.199l.138.145.362-.344zm0-3.92l-.363-.344-.137.145v.199h.5zm2.08-2.2v-.5h-.215l-.148.156.363.344zm4.86 0l.364-.344-.148-.156h-.216v.5zm2.08 2.2h.5v-.199l-.136-.145-.364.344zm0 3.92l.363.344.137-.144v-.2h-.5zm-1.12 1.18l-.362-.344-.328.345.329.344.361-.345zm1.3 1.36h.5v-.201l-.138-.144-.362.345zm0 4.14l.364.344.136-.145v-.199h-.5zm-2.08 2.2v.5h.216l.148-.156-.364-.344zm-5.24 0l-.363.344.148.156h.215v-.5zm4.52-6.74l.357-.35-.147-.15h-.21v.5zm-3.8 0v-.5h-.21l-.147.15.357.35zm-.96.98l-.357-.35-.143.146v.204h.5zm0 2.98h-.5v.204l.143.146.357-.35zm1.04 1.06l-.357.35.147.15h.21v-.5zm3.66 0v.5h.213l.148-.153-.36-.347zm1.02-1.06l.36.347.14-.146v-.201h-.5zm0-2.98h.5v-.204l-.143-.146-.357.35zm-5.52-3.7h-.5v.204l.143.146.357-.35zm.98 1l-.357.35.147.15h.21v-.5zm3.38 0v.5h.21l.147-.15-.357-.35zm.98-1l.357.35.143-.146v-.204h-.5zm0-2.76h.5v-.204l-.143-.146-.357.35zm-1.04-1.06l.357-.35-.147-.15h-.21v.5zm-3.26 0v-.5h-.21l-.147.15.357.35zm-1.04 1.06l-.357-.35-.143.146v.204h.5zm-1.54 10.02v-4.14h-1v4.14h1zm-.136-3.797l1.3-1.38-.728-.686-1.3 1.38.728.686zm1.3-2.067l-1.1-1.16-.726.688 1.1 1.16.725-.688zm-.964-.816v-3.92h-1v3.92h1zm-.136-3.576l2.08-2.2-.727-.688-2.08 2.2.727.688zm1.716-2.044h4.86v-1h-4.86v1zm4.497-.156l2.08 2.2.727-.688-2.08-2.2-.727.688zm1.943 1.856v3.92h1v-3.92h-1zm.138 3.576l-1.12 1.18.725.688 1.12-1.18-.725-.688zm-1.12 1.869l1.3 1.36.724-.69-1.3-1.36-.723.69zm1.162 1.015v4.14h1v-4.14h-1zm.137 3.796l-2.08 2.2.727.688 2.08-2.2-.727-.688zm-1.717 2.044h-5.24v1h5.24v-1zm-4.876.156l-2.08-2.2-.727.688 2.08 2.2.727-.688zm4.156-6.896h-3.8v1h3.8v-1zm-4.157.15l-.96.98.714.7.96-.98-.714-.7zm-1.103 1.33v2.98h1v-2.98h-1zm.143 3.33l1.04 1.06.714-.7-1.04-1.06-.714.7zm1.397 1.21h3.66v-1h-3.66v1zm4.02-.153l1.02-1.06-.72-.694-1.02 1.06.72.694zm1.16-1.407v-2.98h-1v2.98h1zm-.143-3.33l-.96-.98-.714.7.96.98.714-.7zm-6.234-3l.98 1 .714-.7-.98-1-.714.7zm1.337 1.15h3.38v-1h-3.38v1zm3.737-.15l.98-1-.714-.7-.98 1 .714.7zm1.123-1.35v-2.76h-1v2.76h1zm-.143-3.11l-1.04-1.06-.714.7 1.04 1.06.714-.7zm-1.397-1.21h-3.26v1h3.26v-1zm-3.617.15l-1.04 1.06.714.7 1.04-1.06-.714-.7zm-1.183 1.41v2.76h1v-2.76h-1zm18.06 10.62v-.5h-.5v.5h.5zm1.6 0v.5h.5v-.5h-.5zm0-11.8h.5v-.5h-.5v.5zm-1.6 0h-.5v.5h.5v-.5zm0-1.6v-.5h-.5v.5h.5zm5.04 0h.5v-.5h-.5v.5zm0 1.6v.5h.5v-.5h-.5zm-1.6 0v-.5h-.5v.5h.5zm0 11.8h-.5v.5h.5v-.5zm1.6 0h.5v-.5h-.5v.5zm0 1.6v.5h.5v-.5h-.5zm-5.04 0h-.5v.5h.5v-.5zm0-1.1h1.6v-1h-1.6v1zm2.1-.5v-11.8h-1v11.8h1zm-.5-12.3h-1.6v1h1.6v-1zm-1.1.5V119h-1v1.6h1zm-.5-1.1h5.04v-1h-5.04v1zm4.54-.5v1.6h1V119h-1zm.5 1.1h-1.6v1h1.6v-1zm-2.1.5v11.8h1v-11.8h-1zm.5 12.3h1.6v-1h-1.6v1zm1.1-.5v1.6h1v-1.6h-1zm.5 1.1h-5.04v1h5.04v-1zm-4.54.5v-1.6h-1v1.6h1zm7.532-15v-.5h-.5v.5h.5zm8 0l.364-.344-.148-.156h-.216v.5zm2.08 2.2h.5v-.199l-.136-.145-.364.344zm0 3.6l.363.344.137-.145v-.199h-.5zm-1.08 1.14l-.363-.344-.328.346.33.344.361-.346zm1.48 1.54h.5v-.201l-.14-.145-.36.346zm0 4.32l.364.344.136-.145v-.199h-.5zm-2.08 2.2v.5h.216l.148-.156-.364-.344zm-8.4 0h-.5v.5h.5v-.5zm0-1.6v-.5h-.5v.5h.5zm1.4 0v.5h.5v-.5h-.5zm0-11.8h.5v-.5h-.5v.5zm-1.4 0h-.5v.5h.5v-.5zm3.24 6.28v-.5h-.5v.5h.5zm0 5.4h-.5v.5h.5v-.5zm4.36 0v.5h.21l.147-.149-.357-.351zm1.16-1.18l.357.351.143-.146v-.205h-.5zm0-2.92h.5v-.203l-.14-.145-.36.348zm-1.26-1.3l.36-.348-.148-.152h-.212v.5zm-4.26-6.16v-.5h-.5v.5h.5zm0 4.56h-.5v.5h.5v-.5zm3.96 0v.5h.21l.147-.149-.357-.351zm1.16-1.18l.357.351.143-.146v-.205h-.5zm0-2.2h.5v-.202l-.14-.145-.36.347zm-1.14-1.18l.36-.347-.148-.153H45.6v.5zm-7.22-1.22h8v-1h-8v1zm7.637-.156l2.08 2.2.727-.688-2.08-2.2-.727.688zm1.943 1.856v3.6h1v-3.6h-1zm.137 3.256l-1.08 1.14.726.688 1.08-1.14-.726-.688zm-1.077 1.83l1.48 1.54.72-.692-1.48-1.54-.72.692zm1.34 1.194v4.32h1v-4.32h-1zm.137 3.976l-2.08 2.2.727.688 2.08-2.2-.727-.688zm-1.717 2.044h-8.4v1h8.4v-1zm-7.9.5v-1.6h-1v1.6h1zm-.5-1.1h1.4v-1h-1.4v1zm1.9-.5v-11.8h-1v11.8h1zm-.5-12.3h-1.4v1h1.4v-1zm-.9.5V119h-1v1.6h1zm2.24 6.28v5.4h1v-5.4h-1zm.5 5.9h4.36v-1h-4.36v1zm4.717-.149l1.16-1.18-.713-.702-1.16 1.18.713.702zm1.303-1.531v-2.92h-1v2.92h1zm-.14-3.268l-1.26-1.3-.719.696 1.26 1.3.718-.696zm-1.62-1.452h-4.26v1h4.26v-1zm-4.76-5.66v4.56h1v-4.56h-1zm.5 5.06h3.96v-1h-3.96v1zm4.317-.149l1.16-1.18-.713-.702-1.16 1.18.713.702zm1.303-1.531v-2.2h-1v2.2h1zm-.14-2.547l-1.14-1.18-.72.694 1.14 1.18.72-.694zm-1.5-1.333h-3.98v1h3.98v-1zM59.411 119v-.5h-.5v.5h.5zm4.44 0h.5v-.5h-.5v.5zm0 1.6v.5h.5v-.5h-.5zm-1.2 0v-.5h-.5v.5h.5zm0 11.2l.363.344.137-.145v-.199h-.5zm-2.08 2.2v.5h.215l.148-.156-.363-.344zm-5.44 0l-.363.344.148.156h.215v-.5zm-2.08-2.2h-.5v.199l.137.145.363-.344zm0-11.2h.5v-.5h-.5v.5zm-1.2 0h-.5v.5h.5v-.5zm0-1.6v-.5h-.5v.5h.5zm4.44 0h.5v-.5h-.5v.5zm0 1.6v.5h.5v-.5h-.5zm-1.4 0v-.5h-.5v.5h.5zm0 10.62h-.5v.201l.14.146.36-.347zm1.02 1.06l-.36.347.147.153h.213v-.5zm3.86 0v.5h.21l.147-.15-.357-.35zm1.04-1.06l.357.35.143-.146v-.204h-.5zm0-10.62h.5v-.5h-.5v.5zm-1.4 0h-.5v.5h.5v-.5zm0-1.1h4.44v-1h-4.44v1zm3.94-.5v1.6h1V119h-1zm.5 1.1h-1.2v1h1.2v-1zm-1.7.5v11.2h1v-11.2h-1zm.137 10.856l-2.08 2.2.727.688 2.08-2.2-.727-.688zM60.57 133.5h-5.44v1h5.44v-1zm-5.076.156l-2.08-2.2-.727.688 2.08 2.2.727-.688zM53.55 131.8v-11.2h-1v11.2h1zm-.5-11.7h-1.2v1h1.2v-1zm-.7.5V119h-1v1.6h1zm-.5-1.1h4.44v-1h-4.44v1zm3.94-.5v1.6h1V119h-1zm.5 1.1h-1.4v1h1.4v-1zm-1.9.5v10.62h1V120.6h-1zm.14 10.967l1.02 1.06.72-.694-1.02-1.06-.72.694zm1.38 1.213h3.86v-1h-3.86v1zm4.217-.15l1.04-1.06-.714-.7-1.04 1.06.714.7zm1.183-1.41V120.6h-1v10.62h1zm-.5-11.12h-1.4v1h1.4v-1zm-.9.5V119h-1v1.6h1zm6.745-2.6v-.5h-.5v.5h.5zm2 0h.5v-.5h-.5v.5zm0 1.8l.468.176.032-.085v-.091h-.5zm-1.2 3.2v.5h.346l.122-.324-.468-.176zm-.8 0h-.5v.5h.5v-.5zm0-4.5h2v-1h-2v1zm1.5-.5v1.8h1V118h-1zm.032 1.624l-1.2 3.2.936.352 1.2-3.2-.936-.352zm-.732 2.876h-.8v1h.8v-1zm-.3.5v-5h-1v5h1zm13.304 2.72v.5h.5v-.5h-.5zm-1.66 0h-.5v.5h.5v-.5zm0-1.76h.5v-.202l-.14-.146-.36.348zm-1.2-1.24l.36-.348-.147-.152H77.6v.5zm-3.06 0v-.5h-.21l-.146.15.357.35zm-1.04 1.06l-.356-.35-.144.146v.204h.5zm0 1.96H73v.204l.143.146.358-.35zm.98 1l-.357.35.147.15h.21v-.5zm4.16 0l.362-.345-.147-.155h-.215v.5zm2.02 2.12h.5v-.2l-.138-.145-.362.345zm0 2.94l.364.344.136-.145v-.199h-.5zm-2.08 2.2v.5h.216l.148-.156-.363-.344zm-5.04 0l-.363.344.148.156h.216v-.5zm-2.08-2.2h-.5v.199l.137.145.364-.344zm0-2.52v-.5h-.5v.5h.5zm1.66 0h.5v-.5h-.5v.5zm0 1.76h-.5v.205l.144.146.357-.351zm1.22 1.24l-.356.351.147.149h.21v-.5zm3.46 0v.5h.213l.148-.153-.36-.347zm1.02-1.06l.36.347.14-.146v-.201h-.5zm0-1.78h.5v-.204l-.142-.146-.358.35zm-.96-.98l.358-.35-.147-.15h-.21v.5zm-4.16 0l-.361.345.147.155h.215v-.5zm-2.04-2.14h-.5v.2l.139.145.361-.345zm0-3.12l-.363-.344-.136.145v.199h.5zm2.08-2.2v-.5h-.215l-.148.156.364.344zm4.64 0l.364-.344-.148-.156h-.216v.5zm2.08 2.2h.5v-.199l-.136-.145-.364.344zm0 2.02H78.8v1h1.66v-1zm-1.16.5v-1.76h-1v1.76h1zm-.14-2.108l-1.2-1.24-.719.696 1.2 1.24.719-.696zm-1.56-1.392h-3.06v1h3.06v-1zm-3.416.15l-1.04 1.06.713.7 1.04-1.06-.713-.7zM73 123.78v1.96h1v-1.96h-1zm.142 2.31l.98 1 .715-.7-.98-1-.715.7zm1.338 1.15h4.16v-1h-4.16v1zm3.798-.155l2.02 2.12.723-.69-2.02-2.12-.723.69zm1.882 1.775v2.94h1v-2.94h-1zm.136 2.596l-2.08 2.2.727.688 2.08-2.2-.727-.688zM78.58 133.5h-5.04v1h5.04v-1zm-4.677.156l-2.08-2.2-.727.688 2.08 2.2.727-.688zM71.96 131.8v-2.52h-1v2.52h1zm-.5-2.02h1.66v-1h-1.66v1zm1.16-.5v1.76h1v-1.76h-1zm.144 2.111l1.22 1.24.713-.702-1.22-1.24-.713.702zm1.577 1.389h3.46v-1h-3.46v1zm3.82-.153l1.02-1.06-.72-.694-1.02 1.06.72.694zm1.16-1.407v-1.78h-1v1.78h1zm-.143-2.13l-.96-.98-.715.7.96.98.715-.7zm-1.317-1.13H73.7v1h4.16v-1zm-3.799.155l-2.04-2.14-.723.69 2.04 2.14.724-.69zm-1.901-1.795v-3.12h-1v3.12h1zm-.137-2.776l2.08-2.2-.727-.688-2.08 2.2.727.688zm1.716-2.044h4.64v-1h-4.64v1zm4.277-.156l2.08 2.2.727-.688-2.08-2.2-.727.688zm1.944 1.856v2.52h1v-2.52h-1z" fill="#F6D351"/><path d="M62.878 32.145c.371-2.022 1.484-10.136-2.76-16.228-3.037-4.355-8.022-6.585-14.77-6.61h-1.855v.025c-5.936.286-10.389 2.411-13.24 6.378-4.87 6.792-2.969 16.228-2.876 16.642l.139.675c-1.716 6.273 1.577 12.806 1.74 13.117l.741 1.452 1.484-.286c.348-.051.673-.13.997-.207-1.252 3.137-2.11 7.751-.046 13.35l.603 1.66 1.6-.182c.139-.026 1.438-.181 3.13-.752.65 3.319 2.505 6.611 5.31 9.307l.928.907 1.16-.44c.231-.078 5.89-2.23 7.652-8.996l.023-.052c.974.311 1.646.441 1.739.441l1.67.285.649-1.763c2.11-5.78 1.716-9.85.695-12.52.881.362 1.461.544 1.554.57l1.554.466.858-1.53c3.014-5.34 3.455-10.861 1.321-15.709zm-29.24-13.454c2.226-3.085 6.075-4.64 11.478-4.563h.719c5.078.13 8.742 1.711 10.852 4.718 2.458 3.474 2.412 8.218 2.157 10.759h-.163c-.209 0-.44 0-.65-.026-.092 0-.185 0-.277-.026-.186 0-.348-.026-.534-.052-.07 0-.139 0-.208-.026-.232-.026-.441-.052-.65-.078-.07 0-.139-.026-.208-.026-.209-.026-.44-.077-.65-.103-.046 0-.116-.026-.162-.026-.209-.052-.417-.078-.603-.13-.023 0-.046 0-.07-.026-.208-.052-.417-.13-.625-.181-.047-.026-.093-.026-.14-.052-.208-.078-.394-.13-.603-.208-.046-.026-.07-.026-.116-.051a6.014 6.014 0 01-.602-.26l-2.04-.959-.813 2.307a13.33 13.33 0 01-1.67 3.215l-.046.052c-.046.078-.092.13-.139.207l-.023.026c-.093.104-.162.233-.255.337l-.023.026c-.093.104-.162.233-.255.337l-.023.026a3.231 3.231 0 00-.255.337l-.024.026c-.092.104-.185.233-.278.337 0 0 0 .026-.023.026l-.302.337c-.324.363-.649.7-.997 1.063-.718-.752-1.67-1.815-2.504-3.163 0-.026-.023-.026-.023-.052-.093-.13-.162-.26-.255-.415-.023-.052-.047-.077-.07-.13-.07-.103-.116-.207-.185-.31-.023-.052-.07-.13-.093-.182-.046-.104-.093-.181-.14-.285a.817.817 0 01-.092-.207c-.046-.104-.093-.182-.139-.285-.023-.078-.07-.13-.093-.208-.046-.104-.093-.181-.116-.285a.814.814 0 00-.093-.207 1.398 1.398 0 01-.115-.337 1.226 1.226 0 01-.07-.182 4.467 4.467 0 01-.162-.518l-.812-2.567-2.203 1.193c-.209.103-.417.233-.65.31-.022 0-.045.027-.069.027-.208.103-.44.181-.649.259-.046.026-.07.026-.116.052l-.696.233c-.046 0-.07.026-.115.026-.232.078-.487.13-.742.182-.024 0-.047 0-.07.025-.255.052-.533.104-.788.156h-.047a9.147 9.147 0 01-.835.104h-.116a9.008 9.008 0 01-.858.052h-.139c-.301 0-.58.025-.88.025h-.117c-.232-2.462-.208-7.18 2.273-10.654zm11.826 30.59a13.441 13.441 0 01-1.878-2.956c-1.02-2.177-1.276-4.277-.742-6.377.788.778 1.344 1.218 1.39 1.27l.256.208 1.043.83 1.252-1.115c.256-.234.51-.441.743-.674.046-.052.092-.078.139-.13.232-.207.463-.44.672-.648.023-.026.047-.026.047-.052.324.907.742 1.763 1.275 2.592-.14 2.256-1.554 4.64-4.197 7.052zM31.69 34.27c.278 0 .556 0 .811-.026h.14c.255 0 .51-.026.742-.052h.023l.765-.078c.046 0 .093 0 .14-.026.231-.026.486-.051.718-.103h.023c.232-.052.487-.078.719-.13.046 0 .093-.026.14-.026l.695-.155c.232-.052.44-.13.672-.182.047-.026.093-.026.14-.052.208-.078.44-.13.649-.207 0 0 0 .026.023.026.116.26.232.518.37.752a.207.207 0 01.047.103c.116.234.255.493.395.726a.206.206 0 01.046.104c-.394 2.903-1.693 5.807-6.586 7.207-.672-1.84-1.507-5.03-.672-7.881zm6.933 11.147c.255 1.115.65 2.203 1.183 3.292a20.318 20.318 0 001.948 3.189l-.255.648c-.951 2.385-3.641 3.655-5.612 4.2-1.322-5.704 1.368-9.722 2.736-11.329zm10.064 15.191a8.681 8.681 0 01-3.756 5.159c-1.647-1.892-2.69-3.992-2.992-6.04l-.093-.648c1.16-.856 2.25-1.97 3.061-3.396.997 1.918 2.458 3.292 3.942 4.303l-.162.622zm4.846-3.525c-1.67-.597-4.104-1.867-5.101-4.278 1.623-1.503 2.875-3.059 3.803-4.64l.07.052s.765.622 1.298 1.944c.696 1.815.672 4.174-.07 6.922zm5.195-13.429c-1.485-.648-3.664-1.84-5.056-3.63-.162-.388-.324-.699-.44-.984-.719-1.556-.719-1.556-1.16-3.707l-.046-.234.023-.026a8.78 8.78 0 00.371-.622c.023-.051.07-.103.093-.181.116-.208.232-.44.348-.648.023 0 .046.026.093.026.231.078.463.13.695.207.116.026.209.052.325.078.162.052.325.078.51.104.116.026.255.051.371.077l.487.078c.14.026.255.052.394.052.163.026.348.052.51.078l.72.078c.162.025.324.025.486.051.163 0 .348.026.51.026.14 0 .279 0 .418.026h.695c1.206 2.8 1.067 5.885-.347 9.151z" fill="#F7CE3C"/></svg>