<svg width="91" height="138" fill="none" xmlns="http://www.w3.org/2000/svg"><path d="M26.913 103h-1.44l-.736-2.816h-3.488l-.72 2.816h-1.28l2.992-11.2H24l2.912 11.2zm-5.392-3.84h2.944l-1.488-5.648-1.456 5.648zm7.978 2.464h5.232V103h-6.624V91.8h1.392v9.824zm13.288-8.24v2.16H41.41v-1.552l-.8-.8h-2.592l-1.008 1.024v6.336l1.072 1.072h2.464l.864-.848V99h1.376v2.336L41.123 103h-3.536l-1.968-1.952v-7.376L37.49 91.8h3.728l1.568 1.584zm1.128 11.136h-.88l3.52-13.168h.88l-3.52 13.168zM52.5 103h-1.744l-2.912-11.2h1.392l2.496 9.504L54.18 91.8h1.312L52.5 103zm10.885-1.808L61.56 103h-3.68l-1.808-1.808v-7.664L57.8 91.8h3.856l1.728 1.728v7.664zm-5.024-8.016l-.912.912v6.56l.96.976h2.624l.96-.976v-6.56l-.912-.912h-2.72zm8.06 8.448h5.233V103H65.03V91.8h1.392v9.824zM23.086 131.8v-10.6l2.08-2.2h4.64l2.08 2.2v2.52h-1.66v-1.76l-1.2-1.24h-3.06l-1.14 1.16v3.46h5.44l2.02 2.12v4.34l-2.08 2.2h-5.04l-2.08-2.2zm1.74-4.86v4.18l1.14 1.16h3.46l1.02-1.06v-3.18l-1.08-1.1h-4.54zm10.268 4.66h2v1.8l-1.2 3.2h-.8v-5zm12.184-8.68v-2.32h-5.2v4.34h5.18l2.02 2.12v4.74l-2.08 2.2h-5.04l-2.08-2.2v-2.52h1.66v1.76l1.22 1.24h3.46l1.02-1.06v-3.58l-1.08-1.1h-5.88V119h8.4v3.92h-1.6zM63.786 134l-1.3-1.38v-6.28l1.3-1.38h3.44l1.28 1.38v6.28l-1.28 1.38h-3.44zm.6-1.36h2.24l.54-.54v-5.24l-.54-.54h-2.24l-.54.54v5.24l.54.54zm-10.58-4.6l-1.3-1.38v-6.28l1.3-1.38h3.44l1.28 1.38v6.28l-1.28 1.38h-3.44zm.6-1.36h2.24l.54-.54v-5.24l-.54-.54h-2.24l-.54.54v5.24l.54.54zm2.28 8.02l6.1-16.38h1.54l-6.1 16.38h-1.54z" fill="#F5CE3E"/><path d="M23.086 131.8h-.5v.199l.137.145.363-.344zm0-10.6l-.363-.344-.137.145v.199h.5zm2.08-2.2v-.5h-.215l-.148.156.363.344zm4.64 0l.363-.344-.148-.156h-.215v.5zm2.08 2.2h.5v-.199l-.137-.145-.363.344zm0 2.52v.5h.5v-.5h-.5zm-1.66 0h-.5v.5h.5v-.5zm0-1.76h.5v-.202l-.14-.146-.36.348zm-1.2-1.24l.36-.348-.148-.152h-.212v.5zm-3.06 0v-.5h-.21l-.147.15.357.35zm-1.14 1.16l-.357-.35-.143.145v.205h.5zm0 3.46h-.5v.5h.5v-.5zm5.44 0l.362-.345-.148-.155h-.214v.5zm2.02 2.12h.5v-.2l-.138-.145-.362.345zm0 4.34l.363.344.137-.145v-.199h-.5zm-2.08 2.2v.5h.215l.148-.156-.363-.344zm-5.04 0l-.363.344.148.156h.215v-.5zm-.34-7.06v-.5h-.5v.5h.5zm0 4.18h-.5v.205l.143.145.357-.35zm1.14 1.16l-.357.35.147.15h.21v-.5zm3.46 0v.5h.213l.147-.153-.36-.347zm1.02-1.06l.36.347.14-.146v-.201h-.5zm0-3.18h.5v-.204l-.143-.146-.357.35zm-1.08-1.1l.357-.35-.147-.15h-.21v.5zm-5.78 4.86v-10.6h-1v10.6h1zm-.137-10.256l2.08-2.2-.726-.688-2.08 2.2.726.688zm1.717-2.044h4.64v-1h-4.64v1zm4.277-.156l2.08 2.2.726-.688-2.08-2.2-.726.688zm1.943 1.856v2.52h1v-2.52h-1zm.5 2.02h-1.66v1h1.66v-1zm-1.16.5v-1.76h-1v1.76h1zm-.14-2.108l-1.2-1.24-.72.696 1.2 1.24.72-.696zm-1.56-1.392h-3.06v1h3.06v-1zm-3.417.15l-1.14 1.16.714.7 1.14-1.16-.714-.7zm-1.283 1.51v3.46h1v-3.46h-1zm.5 3.96h5.44v-1h-5.44v1zm5.078-.155l2.02 2.12.724-.69-2.02-2.12-.724.69zm1.882 1.775v4.34h1v-4.34h-1zm.137 3.996l-2.08 2.2.726.688 2.08-2.2-.726-.688zm-1.717 2.044h-5.04v1h5.04v-1zm-4.677.156l-2.08-2.2-.726.688 2.08 2.2.726-.688zm-1.203-6.716v4.18h1v-4.18h-1zm.143 4.53l1.14 1.16.714-.7-1.14-1.16-.714.7zm1.497 1.31h3.46v-1h-3.46v1zm3.82-.153l1.02-1.06-.72-.694-1.02 1.06.72.694zm1.16-1.407v-3.18h-1v3.18h1zm-.143-3.53l-1.08-1.1-.714.7 1.08 1.1.714-.7zm-1.437-1.25h-4.54v1h4.54v-1zm5.728 5.16v-.5h-.5v.5h.5zm2 0h.5v-.5h-.5v.5zm0 1.8l.468.176.032-.085v-.091h-.5zm-1.2 3.2v.5h.346l.122-.324-.468-.176zm-.8 0h-.5v.5h.5v-.5zm0-4.5h2v-1h-2v1zm1.5-.5v1.8h1v-1.8h-1zm.032 1.624l-1.2 3.2.936.352 1.2-3.2-.936-.352zm-.732 2.876h-.8v1h.8v-1zm-.3.5v-5h-1v5h1zm11.684-13.68h-.5v.5h.5v-.5zm0-2.32h.5v-.5h-.5v.5zm-5.2 0v-.5h-.5v.5h.5zm0 4.34h-.5v.5h.5v-.5zm5.18 0l.362-.345-.148-.155h-.214v.5zm2.02 2.12h.5v-.2l-.138-.145-.362.345zm0 4.74l.363.344.137-.145v-.199h-.5zm-2.08 2.2v.5h.215l.148-.156-.363-.344zm-5.04 0l-.364.344.148.156h.216v-.5zm-2.08-2.2h-.5v.199l.136.145.364-.344zm0-2.52v-.5h-.5v.5h.5zm1.66 0h.5v-.5h-.5v.5zm0 1.76h-.5v.205l.143.146.357-.351zm1.22 1.24l-.357.351.147.149h.21v-.5zm3.46 0v.5h.212l.148-.153-.36-.347zm1.02-1.06l.36.347.14-.146v-.201h-.5zm0-3.58h.5v-.204l-.144-.146-.356.35zm-1.08-1.1l.356-.35-.146-.15h-.21v.5zm-5.88 0h-.5v.5h.5v-.5zm0-7.54v-.5h-.5v.5h.5zm8.4 0h.5v-.5h-.5v.5zm0 3.92v.5h.5v-.5h-.5zm-1.1 0v-2.32h-1v2.32h1zm-.5-2.82h-5.2v1h5.2v-1zm-5.7.5v4.34h1v-4.34h-1zm.5 4.84h5.18v-1h-5.18v1zm4.818-.155l2.02 2.12.724-.69-2.02-2.12-.724.69zm1.882 1.775v4.74h1v-4.74h-1zm.136 4.396l-2.08 2.2.727.688 2.08-2.2-.727-.688zm-1.716 2.044h-5.04v1h5.04v-1zm-4.677.156l-2.08-2.2-.727.688 2.08 2.2.727-.688zm-1.943-1.856v-2.52h-1v2.52h1zm-.5-2.02h1.66v-1h-1.66v1zm1.16-.5v1.76h1v-1.76h-1zm.143 2.111l1.22 1.24.713-.702-1.22-1.24-.713.702zm1.577 1.389h3.46v-1h-3.46v1zm3.82-.153l1.02-1.06-.72-.694-1.02 1.06.72.694zm1.16-1.407v-3.58h-1v3.58h1zm-.144-3.93l-1.08-1.1-.713.7 1.08 1.1.713-.7zm-1.436-1.25h-5.88v1h5.88v-1zm-5.38.5V119h-1v7.54h1zm-.5-7.04h8.4v-1h-8.4v1zm7.9-.5v3.92h1V119h-1zm.5 3.42h-1.6v1h1.6v-1zM63.785 134l-.363.343.148.157h.215v-.5zm-1.3-1.38h-.5v.198l.136.145.364-.343zm0-6.28l-.364-.343-.136.145v.198h.5zm1.3-1.38v-.5h-.215l-.148.157.364.343zm3.44 0l.367-.34-.148-.16h-.219v.5zm1.28 1.38h.5v-.196l-.133-.144-.367.34zm0 6.28l.367.34.133-.144v-.196h-.5zm-1.28 1.38v.5h.219l.148-.16-.367-.34zm-2.84-1.36l-.353.354.146.146h.207v-.5zm2.24 0v.5h.208l.146-.146-.353-.354zm.54-.54l.354.354.146-.147v-.207h-.5zm0-5.24h.5v-.207l-.146-.147-.354.354zm-.54-.54l.354-.354-.146-.146h-.207v.5zm-2.24 0v-.5h-.207l-.146.146.353.354zm-.54.54l-.353-.354-.146.147v.207h.5zm0 5.24h-.5v.207l.147.147.354-.354zm-10.04-4.06l-.364.343.149.157h.215v-.5zm-1.3-1.38h-.5v.198l.136.145.364-.343zm0-6.28l-.364-.343-.136.145v.198h.5zm1.3-1.38v-.5h-.215l-.149.157.364.343zm3.44 0l.367-.34-.148-.16h-.218v.5zm1.28 1.38h.5v-.196l-.133-.144-.367.34zm0 6.28l.367.34.133-.144v-.196h-.5zm-1.28 1.38v.5h.219l.148-.16-.367-.34zm-2.84-1.36l-.353.354.146.146h.208v-.5zm2.24 0v.5h.208l.146-.146-.354-.354zm.54-.54l.354.354.146-.147v-.207h-.5zm0-5.24h.5v-.207l-.146-.147-.354.354zm-.54-.54l.354-.354-.146-.146h-.208v.5zm-2.24 0v-.5h-.207l-.146.146.354.354zm-.54.54l-.353-.354-.147.147v.207h.5zm0 5.24h-.5v.207l.147.147.353-.354zm2.82 8.56l-.468-.174-.251.674h.72v-.5zm6.1-16.38v-.5h-.347l-.121.326.468.174zm1.54 0l.469.174.251-.674h-.72v.5zm-6.1 16.38v.5h.348l.121-.326-.469-.174zm5.924-1.043l-1.3-1.38-.727.686 1.3 1.38.727-.686zm-1.163-1.037v-6.28h-1v6.28h1zm-.137-5.937l1.3-1.38-.727-.686-1.3 1.38.727.686zm.937-1.223h3.44v-1h-3.44v1zm3.073-.16l1.28 1.38.733-.68-1.28-1.38-.733.68zm1.147 1.04v6.28h1v-6.28h-1zm.133 5.94l-1.28 1.38.733.68 1.28-1.38-.733-.68zm-.913 1.22h-3.44v1h3.44v-1zm-2.84-.36h2.24v-1h-2.24v1zm2.593-.146l.54-.54-.707-.708-.54.54.707.708zm.686-.894v-5.24h-1v5.24h1zm-.146-5.594l-.54-.54-.707.708.54.54.707-.708zm-.894-.686h-2.24v1h2.24v-1zm-2.593.146l-.54.54.707.708.54-.54-.707-.708zm-.686.894v5.24h1v-5.24h-1zm.146 5.594l.54.54.707-.708-.54-.54-.707.708zm-9.323-4.757l-1.3-1.38-.727.686 1.3 1.38.727-.686zm-1.163-1.037v-6.28h-1v6.28h1zm-.137-5.937l1.3-1.38-.727-.686-1.3 1.38.727.686zm.937-1.223h3.44v-1h-3.44v1zm3.073-.16l1.28 1.38.733-.68-1.28-1.38-.733.68zm1.147 1.04v6.28h1v-6.28h-1zm.133 5.94l-1.28 1.38.733.68 1.28-1.38-.733-.68zm-.913 1.22h-3.44v1h3.44v-1zm-2.84-.36h2.24v-1h-2.24v1zm2.593-.146l.54-.54-.707-.708-.54.54.707.708zm.686-.894v-5.24h-1v5.24h1zm-.146-5.594l-.54-.54-.707.708.54.54.707-.708zm-.894-.686h-2.24v1h2.24v-1zm-2.593.146l-.54.54.707.708.54-.54-.707-.708zm-.687.894v5.24h1v-5.24h-1zm.147 5.594l.54.54.707-.708-.54-.54-.707.708zm3.642 8.38l6.1-16.38-.937-.348-6.1 16.38.937.348zm5.631-16.054h1.54v-1h-1.54v1zm1.072-.674l-6.1 16.38.937.348 6.1-16.38-.937-.348zM58.225 134.2h-1.54v1h1.54v-1zM54.716 27.09c-3.988-7.518-8.046-13.92-8.093-13.973l-1.716-2.696-1.716 2.696c-.046.052-4.104 6.455-8.092 13.973-5.496 10.344-8.302 17.887-8.302 22.424 0 11.147 8.116 20.22 18.087 20.22s18.087-9.073 18.087-20.22c.023-4.51-2.76-12.055-8.255-22.424zm-9.809 37.978c-7.652 0-13.89-6.973-13.89-15.528 0-6.637 8.858-22.631 13.89-30.927 5.032 8.296 13.89 24.29 13.89 30.927.023 8.555-6.214 15.528-13.89 15.528z" fill="#F5CE3E"/><path d="M50.867 44.433l-.047 2.333c0 .337-.278 8.4-7.026 9.462l-2.087.311.58 4.64 2.087-.31c4.29-.675 7.49-3.345 9.275-7.726 1.299-3.162 1.345-6.17 1.345-6.3l.047-2.332-4.174-.078z" fill="#F5CE3E"/></svg>