<svg width="32" height="32" fill="none" xmlns="http://www.w3.org/2000/svg"><path fill-rule="evenodd" clip-rule="evenodd" d="M16 5.283c2.897 0 3.26.012 4.398.064 1.135.052 1.91.23 2.59.493a5.232 5.232 0 011.888 1.224c.593.59.958 1.181 1.23 1.879.264.674.445 1.445.496 2.575.052 1.131.065 1.492.065 4.373 0 2.881-.013 3.242-.065 4.374-.051 1.129-.232 1.9-.495 2.575a5.198 5.198 0 01-1.23 1.879 5.233 5.233 0 01-1.89 1.223c-.678.262-1.454.442-2.59.493-1.137.052-1.5.064-4.397.064-2.897 0-3.26-.012-4.398-.064-1.135-.051-1.91-.23-2.59-.493a5.232 5.232 0 01-1.888-1.223 5.197 5.197 0 01-1.23-1.88c-.264-.674-.445-1.445-.497-2.574-.051-1.132-.064-1.493-.064-4.374 0-2.88.013-3.242.064-4.373.052-1.13.233-1.9.496-2.575a5.197 5.197 0 011.23-1.88 5.231 5.231 0 011.89-1.223c.678-.262 1.454-.441 2.59-.493 1.137-.052 1.5-.064 4.397-.064zm0 1.912c-2.848 0-3.185.01-4.31.061-1.04.048-1.605.22-1.98.366a3.306 3.306 0 00-1.227.793 3.285 3.285 0 00-.798 1.22c-.146.374-.32.935-.368 1.97-.05 1.118-.062 1.454-.062 4.286 0 2.833.011 3.168.062 4.287.048 1.034.222 1.596.368 1.97.193.494.424.848.798 1.22.373.37.728.6 1.226.793.376.145.94.318 1.98.365 1.125.05 1.463.062 4.311.062s3.186-.011 4.31-.062c1.04-.047 1.605-.22 1.98-.365a3.305 3.305 0 001.227-.794 3.27 3.27 0 00.798-1.22c.146-.373.32-.935.367-1.97.052-1.118.063-1.453.063-4.286 0-2.832-.011-3.168-.063-4.286-.047-1.035-.22-1.596-.367-1.97a3.285 3.285 0 00-.798-1.22 3.306 3.306 0 00-1.226-.793c-.376-.146-.94-.318-1.98-.366-1.125-.05-1.463-.061-4.311-.061zm0 3.249c3.025 0 5.477 2.439 5.477 5.447 0 3.009-2.452 5.447-5.477 5.447-3.025 0-5.477-2.438-5.477-5.447 0-3.008 2.452-5.447 5.477-5.447zm0 8.983c1.964 0 3.555-1.583 3.555-3.536S17.964 12.355 16 12.355c-1.964 0-3.556 1.583-3.556 3.536s1.592 3.536 3.556 3.536zm6.974-9.198c0 .703-.573 1.273-1.28 1.273-.707 0-1.28-.57-1.28-1.273s.573-1.273 1.28-1.273c.707 0 1.28.57 1.28 1.273z" fill="#F6D351"/></svg>