<svg width="27" height="24" fill="none" xmlns="http://www.w3.org/2000/svg"><g clip-path="url(#clip0)" fill="#fff"><path d="M17.531 3.453H8.543C5.63 3.453 3.26 5.588 3.26 8.21v8.095c0 2.624 2.37 4.758 5.284 4.758h8.988c2.914 0 5.284-2.134 5.284-4.758V8.21c0-2.623-2.37-4.758-5.284-4.758zm3.704 12.853c0 1.84-1.662 3.336-3.704 3.336H8.543c-2.042 0-3.704-1.497-3.704-3.336V8.21c0-1.839 1.662-3.335 3.704-3.335h8.988c2.042 0 3.704 1.496 3.704 3.335v8.095z"/><path d="M17.414 11.644c-.14-.844-.567-1.61-1.237-2.213a4.546 4.546 0 00-2.458-1.114 4.86 4.86 0 00-1.286 0c-1.159.155-2.181.707-2.88 1.554-.697.847-.987 1.888-.815 2.932.172 1.043.785 1.964 1.726 2.592.763.51 1.669.779 2.603.779.216 0 .434-.015.652-.044 1.159-.155 2.181-.706 2.879-1.554.698-.847.987-1.888.816-2.932zm-3.927 3.079a3.023 3.023 0 01-2.082-.47c-.602-.402-.994-.991-1.104-1.659a2.325 2.325 0 01.522-1.875c.446-.542 1.1-.895 1.841-.994a3.107 3.107 0 01.823 0c1.231.164 2.181 1.02 2.364 2.128.227 1.378-.834 2.665-2.364 2.87zm5.052-7.419a.842.842 0 00-.559-.209.842.842 0 00-.558.209.682.682 0 00-.232.503c0 .187.085.37.232.503.147.132.35.208.558.208a.842.842 0 00.559-.208.682.682 0 00.231-.503.682.682 0 00-.231-.503z"/></g><defs><clipPath id="clip0"><path fill="#fff" transform="translate(3.26 3.453)" d="M0 0h19.555v17.611H0z"/></clipPath></defs></svg>