<svg width="91" height="138" fill="none" xmlns="http://www.w3.org/2000/svg"><path d="M32.209 93.384v2.16h-1.376v-1.552l-.8-.8H27.44l-1.008 1.024v6.336l1.072 1.072h2.464l.864-.848V99h1.376v2.336L30.545 103h-3.536l-1.968-1.952v-7.376l1.872-1.872h3.728l1.568 1.584zm8.816 7.808L39.2 103h-3.68l-1.808-1.808v-7.664L35.44 91.8h3.856l1.728 1.728v7.664zM36 93.176l-.912.912v6.56l.96.976h2.624l.96-.976v-6.56l-.912-.912H36zm8.06 8.448h5.232V103H42.67V91.8h1.392v9.824zm13.448-.432L55.685 103h-3.68l-1.808-1.808v-7.664l1.728-1.728h3.856l1.728 1.728v7.664zm-5.024-8.016l-.912.912v6.56l.96.976h2.624l.96-.976v-6.56l-.912-.912h-2.72zm13.485.208v3.248l-1.52 1.52h-.832L65.762 103h-1.44l-2.112-4.848h-1.68V103h-1.376V91.8h5.248l1.568 1.584zm-5.44-.192v3.744h3.264l.8-.8v-2.144l-.8-.8H60.53zM17.827 119v13.4h3v1.6h-7.84v-1.6h3v-11.46l-3.26 1.62-.78-1.56 4.04-2h1.84zm13.007 0v13.4h3v1.6h-7.84v-1.6h3v-11.46l-3.26 1.62-.78-1.56 4.04-2h1.84zm13.58 0h9.52v3.92h-1.6v-2.32h-4.68v5.1h4.68v1.6h-4.68v5.1h4.68v-2.32h1.6V134h-9.52v-1.6h1.4v-11.8h-1.4V119zm12.715 0h8l2.08 2.2v3.6l-1.08 1.14 1.48 1.54v4.32l-2.08 2.2h-8.4v-1.6h1.4v-11.8h-1.4V119zm3.24 7.88v5.4h4.36l1.16-1.18v-2.92l-1.26-1.3h-4.26zm0-6.16v4.56h3.96l1.16-1.18v-2.2l-1.14-1.18h-3.98zm18.032 8.56h1.6v2.52l-2.08 2.2h-5.04l-2.08-2.2v-10.6l2.08-2.2h5.04l2.08 2.2v2.52h-1.6v-1.7l-1.26-1.3h-3.46l-1.04 1.06v9.44l1.02 1.06h3.46l1.28-1.3v-1.7z" fill="#F6D351"/><path d="M17.827 119h.5v-.5h-.5v.5zm0 13.4h-.5v.5h.5v-.5zm3 0h.5v-.5h-.5v.5zm0 1.6v.5h.5v-.5h-.5zm-7.84 0h-.5v.5h.5v-.5zm0-1.6v-.5h-.5v.5h.5zm3 0v.5h.5v-.5h-.5zm0-11.46h.5v-.807l-.723.359.223.448zm-3.26 1.62l-.448.224.223.446.447-.222-.222-.448zm-.78-1.56l-.222-.448-.45.223.224.449.448-.224zm4.04-2v-.5h-.117l-.105.052.222.448zm1.34 0v13.4h1V119h-1zm.5 13.9h3v-1h-3v1zm2.5-.5v1.6h1v-1.6h-1zm.5 1.1h-7.84v1h7.84v-1zm-7.34.5v-1.6h-1v1.6h1zm-.5-1.1h3v-1h-3v1zm3.5-.5v-11.46h-1v11.46h1zm-.723-11.908l-3.26 1.62.445.896 3.26-1.62-.445-.896zm-2.59 1.844l-.78-1.56-.895.448.78 1.56.895-.448zm-1.005-.888l4.04-2-.444-.896-4.04 2 .444.896zm3.818-1.948h1.84v-1h-1.84v1zm14.847-.5h.5v-.5h-.5v.5zm0 13.4h-.5v.5h.5v-.5zm3 0h.5v-.5h-.5v.5zm0 1.6v.5h.5v-.5h-.5zm-7.84 0h-.5v.5h.5v-.5zm0-1.6v-.5h-.5v.5h.5zm3 0v.5h.5v-.5h-.5zm0-11.46h.5v-.807l-.722.359.223.448zm-3.26 1.62l-.447.224.223.446.447-.222-.223-.448zm-.78-1.56l-.221-.448-.45.223.224.449.447-.224zm4.04-2v-.5h-.116l-.105.052.221.448zm1.34 0v13.4h1V119h-1zm.5 13.9h3v-1h-3v1zm2.5-.5v1.6h1v-1.6h-1zm.5 1.1h-7.84v1h7.84v-1zm-7.34.5v-1.6h-1v1.6h1zm-.5-1.1h3v-1h-3v1zm3.5-.5v-11.46h-1v11.46h1zm-.722-11.908l-3.26 1.62.445.896 3.26-1.62-.445-.896zm-2.59 1.844l-.78-1.56-.895.448.78 1.56.895-.448zm-1.006-.888l4.04-2-.443-.896-4.04 2 .443.896zm3.819-1.948h1.84v-1h-1.84v1zm15.42-.5v-.5h-.5v.5h.5zm9.52 0h.5v-.5h-.5v.5zm0 3.92v.5h.5v-.5h-.5zm-1.6 0h-.5v.5h.5v-.5zm0-2.32h.5v-.5h-.5v.5zm-4.68 0v-.5h-.5v.5h.5zm0 5.1h-.5v.5h.5v-.5zm4.68 0h.5v-.5h-.5v.5zm0 1.6v.5h.5v-.5h-.5zm-4.68 0v-.5h-.5v.5h.5zm0 5.1h-.5v.5h.5v-.5zm4.68 0v.5h.5v-.5h-.5zm0-2.32v-.5h-.5v.5h.5zm1.6 0h.5v-.5h-.5v.5zm0 3.92v.5h.5v-.5h-.5zm-9.52 0h-.5v.5h.5v-.5zm0-1.6v-.5h-.5v.5h.5zm1.4 0v.5h.5v-.5h-.5zm0-11.8h.5v-.5h-.5v.5zm-1.4 0h-.5v.5h.5v-.5zm0-1.1h9.52v-1h-9.52v1zm9.02-.5v3.92h1V119h-1zm.5 3.42h-1.6v1h1.6v-1zm-1.1.5v-2.32h-1v2.32h1zm-.5-2.82h-4.68v1h4.68v-1zm-5.18.5v5.1h1v-5.1h-1zm.5 5.6h4.68v-1h-4.68v1zm4.18-.5v1.6h1v-1.6h-1zm.5 1.1h-4.68v1h4.68v-1zm-5.18.5v5.1h1v-5.1h-1zm.5 5.6h4.68v-1h-4.68v1zm5.18-.5v-2.32h-1v2.32h1zm-.5-1.82h1.6v-1h-1.6v1zm1.1-.5V134h1v-3.92h-1zm.5 3.42h-9.52v1h9.52v-1zm-9.02.5v-1.6h-1v1.6h1zm-.5-1.1h1.4v-1h-1.4v1zm1.9-.5v-11.8h-1v11.8h1zm-.5-12.3h-1.4v1h1.4v-1zm-.9.5V119h-1v1.6h1zm12.214-1.6v-.5h-.5v.5h.5zm8 0l.364-.344-.148-.156h-.216v.5zm2.08 2.2h.5v-.199l-.136-.145-.364.344zm0 3.6l.363.344.137-.145v-.199h-.5zm-1.08 1.14l-.363-.344-.328.346.33.344.361-.346zm1.48 1.54h.5v-.201l-.14-.145-.36.346zm0 4.32l.364.344.136-.145v-.199h-.5zm-2.08 2.2v.5h.216l.148-.156-.364-.344zm-8.4 0h-.5v.5h.5v-.5zm0-1.6v-.5h-.5v.5h.5zm1.4 0v.5h.5v-.5h-.5zm0-11.8h.5v-.5h-.5v.5zm-1.4 0h-.5v.5h.5v-.5zm3.24 6.28v-.5h-.5v.5h.5zm0 5.4h-.5v.5h.5v-.5zm4.36 0v.5h.21l.147-.149-.357-.351zm1.16-1.18l.357.351.143-.146v-.205h-.5zm0-2.92h.5v-.203l-.14-.145-.36.348zm-1.26-1.3l.36-.348-.148-.152h-.212v.5zm-4.26-6.16v-.5h-.5v.5h.5zm0 4.56h-.5v.5h.5v-.5zm3.96 0v.5h.21l.147-.149-.357-.351zm1.16-1.18l.357.351.143-.146v-.205h-.5zm0-2.2h.5v-.202l-.14-.145-.36.347zm-1.14-1.18l.36-.347-.148-.153h-.212v.5zm-7.22-1.22h8v-1h-8v1zm7.637-.156l2.08 2.2.727-.688-2.08-2.2-.727.688zm1.943 1.856v3.6h1v-3.6h-1zm.137 3.256l-1.08 1.14.726.688 1.08-1.14-.726-.688zm-1.077 1.83l1.48 1.54.72-.692-1.48-1.54-.72.692zm1.34 1.194v4.32h1v-4.32h-1zm.137 3.976l-2.08 2.2.727.688 2.08-2.2-.727-.688zm-1.717 2.044h-8.4v1h8.4v-1zm-7.9.5v-1.6h-1v1.6h1zm-.5-1.1h1.4v-1h-1.4v1zm1.9-.5v-11.8h-1v11.8h1zm-.5-12.3h-1.4v1h1.4v-1zm-.9.5V119h-1v1.6h1zm2.24 6.28v5.4h1v-5.4h-1zm.5 5.9h4.36v-1h-4.36v1zm4.717-.149l1.16-1.18-.713-.702-1.16 1.18.713.702zm1.303-1.531v-2.92h-1v2.92h1zm-.14-3.268l-1.26-1.3-.719.696 1.26 1.3.718-.696zm-1.62-1.452h-4.26v1h4.26v-1zm-4.76-5.66v4.56h1v-4.56h-1zm.5 5.06h3.96v-1h-3.96v1zm4.317-.149l1.16-1.18-.713-.702-1.16 1.18.713.702zm1.303-1.531v-2.2h-1v2.2h1zm-.14-2.547l-1.14-1.18-.72.694 1.14 1.18.72-.694zm-1.5-1.333h-3.98v1h3.98v-1zm14.052 9.06v-.5h-.5v.5h.5zm1.6 0h.5v-.5h-.5v.5zm0 2.52l.364.344.136-.145v-.199h-.5zm-2.08 2.2v.5h.215l.148-.156-.363-.344zm-5.04 0l-.363.344.148.156h.215v-.5zm-2.08-2.2h-.5v.199l.137.145.363-.344zm0-10.6l-.363-.344-.137.145v.199h.5zm2.08-2.2v-.5h-.215l-.148.156.363.344zm5.04 0l.363-.344-.148-.156h-.215v.5zm2.08 2.2h.5v-.199l-.136-.145-.364.344zm0 2.52v.5h.5v-.5h-.5zm-1.6 0h-.5v.5h.5v-.5zm0-1.7h.5v-.203l-.14-.145-.36.348zm-1.26-1.3l.36-.348-.148-.152h-.212v.5zm-3.46 0v-.5h-.21l-.147.15.357.35zm-1.04 1.06l-.357-.35-.143.146v.204h.5zm0 9.44h-.5v.201l.14.146.36-.347zm1.02 1.06l-.36.347.147.153h.213v-.5zm3.46 0v.5h.21l.147-.149-.357-.351zm1.28-1.3l.356.351.144-.146v-.205h-.5zm0-1.2h1.6v-1h-1.6v1zm1.1-.5v2.52h1v-2.52h-1zm.137 2.176l-2.08 2.2.726.688 2.08-2.2-.726-.688zM77.92 133.5h-5.04v1h5.04v-1zm-4.677.156l-2.08-2.2-.726.688 2.08 2.2.727-.688zM71.3 131.8v-10.6h-1v10.6h1zm-.136-10.256l2.08-2.2-.727-.688-2.08 2.2.727.688zm1.716-2.044h5.04v-1h-5.04v1zm4.677-.156l2.08 2.2.727-.688-2.08-2.2-.727.688zM79.5 121.2v2.52h1v-2.52h-1zm.5 2.02h-1.6v1H80v-1zm-1.1.5v-1.7h-1v1.7h1zm-.14-2.048l-1.26-1.3-.719.696 1.26 1.3.718-.696zm-1.62-1.452h-3.46v1h3.46v-1zm-3.817.15l-1.04 1.06.714.7 1.04-1.06-.714-.7zm-1.183 1.41v9.44h1v-9.44h-1zm.14 9.787l1.02 1.06.72-.694-1.02-1.06-.72.694zm1.38 1.213h3.46v-1h-3.46v1zm3.817-.149l1.28-1.3-.713-.702-1.28 1.3.713.702zm1.423-1.651v-1.7h-1v1.7h1z" fill="#F6D351"/><path d="M59.356 6.144h-4.034l-.024 8.166-7.095 5.703V7.077h-4.035v12.054l-6.956-5.599-.117-6.766-4.034.078.904 52.002-.093.13.093.078v.155h.186l9.994 8.063v7.673h4.058V68.8l10.968-8.866-.047-.078h.116l.116-53.713zM55.23 46.766l-7.026 5.651v-5.366l7.049-5.677-.023 5.392zm-11.061-7.285l-6.585-5.314-.093-4.666 6.678 5.392v4.588zm-6.493.311l6.493 5.237v5.755l-6.4-5.159-.093-5.833zM55.252 35.8l-7.05 5.704v-5.755l7.073-5.704-.023 5.755zm.046-15.943v4.615l-7.072 5.703v-4.589l7.072-5.729zm-11.13 4.822v4.615l-6.771-5.47-.093-4.667 6.864 5.522zm-6.191 32.042l-.093-5.444 6.284 5.08v5.34l-6.191-4.976zm10.226 1.27l7.026-5.651v5.262l-7.026 5.651v-5.262z" fill="#F7CE3C"/></svg>