<svg width="132" height="56" fill="none" xmlns="http://www.w3.org/2000/svg"><path d="M83.582 16.95l1.238-.976 1.238.976v7.621h-2.476v-7.62zm-5.651.623v5.732l-2.517 2.512h2.517v10.175l2.826 2.202 2.825-2.202V25.817h2.476v10.217l2.825 2.18 2.826-2.097v-10.3h2.516l-2.537-2.512v-5.753l-6.868-5.42-6.89 5.441zM17.186 32.255c-.66.602-1.567 1.204-3.383.726-.742-.249-3.774-1.516-3.774-1.516l2.207-1.723V12.09l-5.652 4.693v14.038l-3.424 2.7 11.51 4.672 3.816-2.97v-5.17s-.516 1.495-1.3 2.2zM27.541 16.95l1.238-.976 1.237.976v7.621h-2.475v-7.62zm-5.63.623v5.732l-2.517 2.512h2.516v10.175l2.826 2.202 2.826-2.202V25.817h2.475v10.217l2.826 2.18 2.825-2.097v-10.3h2.517l-2.537-2.512v-5.753l-6.89-5.42-6.868 5.441zM67.7 23.014l6.414-4.984-9.034-5.94-5.734 2.617v20.475l5.693 3.946 8.683-4.153-.02-6.541-6.002-5.42zm-.062 10.383l-2.455-1.932v-7.06l2.455 1.91v7.082zm-2.455-11.608v-4.382l3.177 1.91-3.177 2.472zm42.161 10.985l-5.549-4.86V17.428s2.95-.208 4.95 2.097c1.238 1.308 2.001 3.281 2.001 3.281v-6.832l-4.888-3.82-7.694 5.938v1.059l-.041 12.48 8.457 6.583 4.228-3.322v-4.07l-1.464 1.952zM49.28 14.271V29.12l-1.237.955-1.237-.955V14.126l-2.826-2.014-2.826 2.118v.602h.02v15.491l4.353 3.385 3.754-2.907v7.538l-5.878-4.63-4.91 3.82.825.644 5.075 3.966 1.072.83 9.447-7.371V14.167l-2.805-2.055-2.826 2.16zm63.571.083v21.68l2.805 2.18 2.826-2.2v-7.726l.454-.353 3.094 2.388-.041 8.639-4.023 3.156 1.382 1.08 8.333-6.479v-8.286l-4.702-3.634 4.475-3.509-.577-.394-3.816-2.97-4.579 3.572v-7.144l-2.826-2.2-2.805 2.2z" fill="#020202"/></svg>