<svg width="355" height="159" fill="none" xmlns="http://www.w3.org/2000/svg"><path d="M109.307 87.029v-1h-14.87V1H59.611l-.297.446L1.167 88.911 1 89.162v24.774h58.37V158h35.068v-44.064h14.869V87.029zM231.99 130.92l.299-.294V27.492l-.294-.293-25.966-25.907-.293-.292h-55.423l-.293.292L124.054 27.2l-.294.293v103.132l.297.294 27.076 26.793.292.289H204.4l.291-.286 27.299-26.793zM354 87.029v-1h-14.87V1h-34.826l-.297.446-58.147 87.465-.167.251v24.774h58.369V158h35.068v-44.064H354V87.029zM59.37 47.769v38.26H33.404l25.964-38.26zm98.349-6.161l6.737-6.722h26.924l6.95 6.73v75.342l-7.189 7.378h-26.233l-7.189-7.378v-75.35zm146.343 6.16v38.26h-25.965l25.965-38.26z" stroke="#F6D351" stroke-width="2"/></svg>