<svg width="930" height="1101" fill="none" xmlns="http://www.w3.org/2000/svg"><mask id="mask0" maskUnits="userSpaceOnUse" x="0" y="0" width="930" height="1101"><path fill="#C4C4C4" d="M0 0h930v1101H0z"/></mask><g mask="url(#mask0)"><path fill-rule="evenodd" clip-rule="evenodd" d="M926 1060.81V463c0-123.548-48.171-239.817-135.677-327.323C702.991 48.345 586.547 0 463 0 339.452 0 223.183 48.345 135.677 135.677 48.171 223.009 0 339.279 0 463v597.81c0 123.55 48.171 239.82 135.677 327.32 87.332 87.51 203.602 135.68 327.323 135.68 123.721 0 239.991-48.17 327.323-135.68C877.829 1300.8 926 1184.53 926 1060.81zm-463 428.34c-236.178 0-428.344-192.16-428.344-428.34V463C34.656 226.821 226.82 34.656 463 34.656S891.344 226.82 891.344 463v597.81c0 236.18-192.165 428.34-428.344 428.34zM856.863 464.559v595.211c0 105.18-40.894 204.12-115.404 278.46-74.336 74.34-173.278 115.4-278.458 115.4-105.18 0-204.122-40.89-278.459-115.4-74.336-74.34-115.403-173.28-115.403-278.46V464.559c0-105.18 40.894-204.122 115.403-278.458 74.337-74.336 173.279-115.403 278.459-115.403S667.123 111.59 741.459 186.1c74.51 74.336 115.404 173.105 115.404 278.458zM103.795 1059.77c0 198.06 161.149 359.21 359.206 359.21 198.057 0 359.206-161.15 359.206-359.21V464.559c0-198.057-161.149-359.206-359.206-359.206-198.058 0-359.206 161.149-359.206 359.206v595.211zM787.03 464.559v593.131c0 178.82-145.554 324.38-324.377 324.38s-324.377-145.56-324.377-324.38V464.559c0-178.823 145.554-324.377 324.377-324.377S787.03 285.736 787.03 464.559zM173.105 1057.69c0 159.76 129.959 289.72 289.721 289.72 159.763 0 289.722-129.96 289.722-289.72V464.559c0-159.762-129.959-289.721-289.722-289.721-159.763 0-289.721 129.959-289.721 289.721v593.131z" fill="#F6D351"/></g></svg>