<svg width="133" height="56" fill="none" xmlns="http://www.w3.org/2000/svg"><path d="M84.552 16.95l1.252-.976 1.252.976v7.621h-2.504V16.95zm-5.717.623v5.731l-2.545 2.513h2.545v10.175l2.859 2.201 2.858-2.2V25.816h2.504v10.217l2.859 2.18 2.858-2.097v-10.3h2.546l-2.566-2.513v-5.751l-6.949-5.42-6.969 5.441zM17.386 32.254c-.668.603-1.586 1.205-3.422.727-.751-.249-3.819-1.516-3.819-1.516l2.233-1.723V12.09l-5.717 4.693v14.038l-3.464 2.7 11.643 4.672 3.86-2.97v-5.17s-.521 1.494-1.314 2.2zM27.861 16.95l1.252-.976 1.252.976v7.621H27.86V16.95zm-5.696.623v5.731l-2.546 2.513h2.546v10.175l2.858 2.201 2.859-2.2V25.816h2.504v10.217l2.858 2.18 2.859-2.097v-10.3h2.545l-2.566-2.513v-5.751l-6.97-5.42-6.947 5.441zm46.321 5.441l6.489-4.984-9.14-5.94-5.8 2.617v20.475l5.759 3.946 8.784-4.153-.02-6.542-6.073-5.42zm-.063 10.383l-2.483-1.932v-7.06l2.483 1.91v7.082zM65.94 21.789v-4.382l3.213 1.91-3.213 2.471zm42.65 10.984l-5.613-4.859V17.427s2.983-.207 5.007 2.098c1.252 1.308 2.024 3.28 2.024 3.28v-6.831l-4.945-3.821-7.783 5.939v1.059l-.041 12.48 8.555 6.583 4.277-3.323v-4.07l-1.481 1.952zM49.853 14.271v14.848l-1.252.955-1.252-.956V14.127l-2.858-2.015-2.859 2.118v.603h.02v15.491l4.404 3.385 3.797-2.907v7.538l-5.947-4.631-4.966 3.82.835.644 5.133 3.967 1.085.83 9.556-7.372v-21.43l-2.837-2.056-2.859 2.16zm64.308.083v21.679l2.838 2.181 2.858-2.201v-7.725l.459-.353 3.13 2.388-.041 8.639-4.069 3.156 1.398 1.08 8.43-6.48v-8.285l-4.758-3.634 4.528-3.51-.584-.394-3.86-2.97-4.633 3.572v-7.143l-2.858-2.201-2.838 2.201z" fill="#F5CE3E"/></svg>