<svg width="930" height="1101" viewBox="0 0 930 1101" fill="none" xmlns="http://www.w3.org/2000/svg">
<mask id="mask0" mask-type="alpha" maskUnits="userSpaceOnUse" x="0" y="0" width="930" height="1101">
<rect width="930" height="1101" fill="#C4C4C4"/>
</mask>
<g mask="url(#mask0)">
<path fill-rule="evenodd" clip-rule="evenodd" d="M926 1060.81L926 463C926 339.452 877.829 223.183 790.323 135.677C702.991 48.3446 586.547 -2.56388e-05 463 -2.02384e-05C339.452 -1.48379e-05 223.183 48.3446 135.677 135.677C48.1713 223.009 -5.17775e-05 339.279 -4.63695e-05 463L-2.02384e-05 1060.81C-1.48379e-05 1184.36 48.1714 1300.63 135.677 1388.13C223.009 1475.64 339.279 1523.81 463 1523.81C586.721 1523.81 702.991 1475.64 790.323 1388.13C877.829 1300.8 926 1184.53 926 1060.81ZM463 1489.15C226.822 1489.15 34.6557 1296.99 34.6557 1060.81L34.6556 463C34.6556 226.821 226.821 34.6556 463 34.6556C699.179 34.6556 891.344 226.821 891.344 463L891.344 1060.81C891.344 1296.99 699.179 1489.15 463 1489.15ZM856.863 464.559L856.863 1059.77C856.863 1164.95 815.969 1263.89 741.459 1338.23C667.123 1412.57 568.181 1453.63 463.001 1453.63C357.821 1453.63 258.879 1412.74 184.542 1338.23C110.206 1263.89 69.1389 1164.95 69.1389 1059.77L69.1388 464.559C69.1388 359.379 110.033 260.437 184.542 186.101C258.879 111.765 357.821 70.6976 463.001 70.6976C568.181 70.6976 667.123 111.591 741.459 186.101C815.969 260.437 856.863 359.206 856.863 464.559ZM103.795 1059.77C103.795 1257.83 264.944 1418.98 463.001 1418.98C661.058 1418.98 822.207 1257.83 822.207 1059.77L822.207 464.559C822.207 266.502 661.058 105.353 463.001 105.353C264.943 105.353 103.795 266.502 103.795 464.559L103.795 1059.77ZM787.03 464.559L787.03 1057.69C787.03 1236.51 641.476 1382.07 462.653 1382.07C283.83 1382.07 138.276 1236.51 138.276 1057.69L138.276 464.559C138.276 285.736 283.83 140.182 462.653 140.182C641.476 140.182 787.03 285.736 787.03 464.559ZM173.105 1057.69C173.105 1217.45 303.064 1347.41 462.826 1347.41C622.589 1347.41 752.548 1217.45 752.548 1057.69L752.548 464.559C752.548 304.797 622.589 174.838 462.826 174.838C303.063 174.838 173.105 304.797 173.105 464.559L173.105 1057.69Z" fill="#F6D351"/>
</g>
</svg>
