<svg width="431" height="192" viewBox="0 0 431 192" fill="none" xmlns="http://www.w3.org/2000/svg">
<path fill-rule="evenodd" clip-rule="evenodd" d="M-10 71.8804C-9.59323 71.8763 -9.186 71.8742 -8.77829 71.8742L237.002 71.8742C303.204 71.8742 357.055 125.726 357.055 191.928L357.055 192H371.416V192C371.416 117.9 311.102 57.5855 237.002 57.5855L-8.77829 57.5855C-9.18594 57.5855 -9.5932 57.5873 -10 57.591V71.8804ZM-10 43.0157C-9.59329 43.0125 -9.18622 43.0108 -8.77875 43.0108L237.863 43.0108C319.933 43.0108 386.709 109.787 386.709 191.857L386.709 192H401.07L401.07 191.857C401.07 148.273 384.053 107.274 353.249 76.4707C322.446 45.5957 281.447 28.6503 237.863 28.6503L-8.77875 28.6503C-9.18607 28.6503 -9.59317 28.6518 -10 28.6547V43.0157ZM-10 14.3608C-9.80856 14.3602 -9.61707 14.3599 -9.42548 14.3599L238.293 14.3599C336.16 14.3599 415.789 93.9888 415.789 191.856L415.789 192H430.149L430.149 191.856C430.149 140.589 410.188 92.4091 373.928 56.2207C337.74 19.9604 289.56 -0.000640869 238.293 -0.000640869L-9.42548 -0.000640869C-9.61703 -0.000640869 -9.80853 -0.000366211 -10 0.000198364V14.3608Z" fill="#F6D351"/>
</svg>
