<svg width="62" height="103" viewBox="0 0 62 103" fill="none" xmlns="http://www.w3.org/2000/svg">
<path d="M52.6951 70.9224L52.6951 31.2094C52.6951 19.2364 42.9496 9.49072 30.9765 9.49055C19.0034 9.49038 9.25793 19.2357 9.25793 31.2088L9.25793 70.9217C9.25793 82.8948 19.0034 92.6405 30.9765 92.6406C42.9496 92.6408 52.6951 82.8954 52.6951 70.9224ZM11.5899 31.2088C11.5899 20.512 20.2912 11.8108 30.9881 11.8109C41.685 11.8111 50.3863 20.5125 50.3863 31.2094L50.3863 70.9223C50.3863 81.6192 41.685 90.3204 30.9881 90.3203C20.2912 90.3201 11.5899 81.6186 11.5899 70.9218L11.5899 31.2088Z" fill="#F5CE3E"/>
<path d="M57.3713 70.9221L57.3713 31.0699C57.3713 24.0276 54.6333 17.4029 49.6445 12.4257C44.6673 7.44845 38.0427 4.69873 31.0004 4.69862C23.9581 4.69852 17.3335 7.43645 12.3563 12.4252C7.37914 17.4022 4.62952 24.0268 4.62952 31.0691L4.62952 70.9213C4.62952 77.9636 7.36754 84.5882 12.3563 89.5655C17.3335 94.5427 23.9581 97.2924 31.0004 97.2925C38.0427 97.2927 44.6673 94.5547 49.6445 89.566C54.6333 84.5889 57.3713 77.9759 57.3713 70.9221ZM6.94988 31.0692C6.94988 17.8083 17.7395 7.01879 31.0004 7.01898C44.2613 7.01917 55.0509 17.809 55.0509 31.0699L55.0509 70.922C55.0509 84.1829 44.2613 94.9724 31.0004 94.9722C17.7395 94.972 6.94988 84.1822 6.94988 70.9213L6.94988 31.0692Z" fill="#F5CE3E"/>
<path d="M62 71.0263L62 31.0001C62 22.7164 58.7747 14.9316 52.9158 9.08431C47.0685 3.22539 39.2837 7.92285e-05 31 6.25218e-05C22.7163 4.5815e-05 14.9315 3.22533 9.08421 9.08422C3.2253 14.9431 -2.1532e-08 22.7279 -2.93688e-08 31L-6.72888e-08 71.0262C-7.51366e-08 79.3099 3.2253 87.0947 9.08421 92.942C14.9431 98.7893 22.7279 102.026 31 102.026C39.2721 102.026 47.0685 98.7894 52.9158 92.9421C58.7747 87.0832 62 79.2984 62 71.0263ZM2.32036 31C2.32036 15.1868 15.1868 2.32039 31 2.32042C46.8132 2.32045 59.6796 15.1869 59.6796 31.0001L59.6796 71.0263C59.6796 86.8396 46.8132 99.7059 31 99.7059C15.1868 99.7059 2.32036 86.8395 2.32036 71.0262L2.32036 31Z" fill="#F5CE3E"/>
</svg>
