<svg width="27" height="24" viewBox="0 0 27 24" fill="none" xmlns="http://www.w3.org/2000/svg">
<g clip-path="url(#clip0)">
<path d="M17.531 3.45288H8.54313C5.62962 3.45288 3.25928 5.58759 3.25928 8.21146V16.3058C3.25928 18.9297 5.62962 21.0644 8.54313 21.0644H17.531C20.4445 21.0644 22.8148 18.9297 22.8148 16.3058V8.21146C22.8148 5.58759 20.4445 3.45288 17.531 3.45288ZM21.235 16.3058C21.235 18.1451 19.5734 19.6416 17.531 19.6416H8.54313C6.50076 19.6416 4.83915 18.1452 4.83915 16.3058V8.21146C4.83915 6.37213 6.50072 4.8757 8.54313 4.8757H17.531C19.5733 4.8757 21.235 6.37209 21.235 8.21146V16.3058Z" fill="white"/>
<path d="M17.4136 11.6443C17.2746 10.8 16.8468 10.0347 16.1766 9.43112C15.5064 8.82759 14.6567 8.44233 13.7192 8.31716C13.2923 8.26016 12.8595 8.26016 12.4327 8.31716C11.274 8.47192 10.2517 9.02372 9.55392 9.87096C8.85614 10.7182 8.56644 11.7595 8.73827 12.8029C8.91011 13.8463 9.52283 14.7671 10.4636 15.3955C11.2273 15.9057 12.1329 16.1735 13.0667 16.1735C13.2831 16.1735 13.5011 16.1592 13.7191 16.13C14.8778 15.9753 15.9002 15.4235 16.5979 14.5762C17.2957 13.729 17.5854 12.6878 17.4136 11.6443ZM13.4874 14.7226C12.7462 14.8217 12.0066 14.6547 11.4048 14.2527C10.803 13.8507 10.411 13.2617 10.3011 12.5942C10.1912 11.9267 10.3765 11.2606 10.8229 10.7186C11.2693 10.1766 11.9233 9.82363 12.6645 9.72464C12.801 9.70641 12.9384 9.69729 13.0759 9.69729C13.2134 9.69729 13.3509 9.70641 13.4874 9.72467C14.7184 9.88906 15.6682 10.7444 15.8508 11.8531C16.0776 13.231 15.0175 14.5183 13.4874 14.7226Z" fill="white"/>
<path d="M18.539 7.30384C18.3919 7.17137 18.1883 7.09546 17.9804 7.09546C17.7726 7.09546 17.5689 7.17134 17.4218 7.30384C17.2747 7.43634 17.1904 7.6194 17.1904 7.8069C17.1904 7.9944 17.2747 8.17747 17.4218 8.30997C17.5689 8.44243 17.7726 8.51835 17.9804 8.51835C18.1883 8.51835 18.3919 8.44247 18.539 8.30997C18.6861 8.17747 18.7704 7.99409 18.7704 7.8069C18.7704 7.61968 18.6861 7.4363 18.539 7.30384Z" fill="white"/>
</g>
<defs>
<clipPath id="clip0">
<rect width="19.5555" height="17.6115" fill="white" transform="translate(3.25928 3.45288)"/>
</clipPath>
</defs>
</svg>
