<svg width="32" height="32" viewBox="0 0 32 32" fill="none" xmlns="http://www.w3.org/2000/svg">
<path fill-rule="evenodd" clip-rule="evenodd" d="M24.347 8.44902C25.2607 8.69081 25.9812 9.39888 26.2272 10.2969C26.6841 11.9376 26.6666 15.3571 26.6666 15.3571C26.6666 15.3571 26.6666 18.7593 26.2272 20.4C25.9812 21.298 25.2607 22.0061 24.347 22.2479C22.6776 22.6796 15.9999 22.6796 15.9999 22.6796C15.9999 22.6796 9.33989 22.6796 7.65291 22.2306C6.73913 21.9888 6.01865 21.2807 5.77263 20.3827C5.33331 18.7593 5.33331 15.3398 5.33331 15.3398C5.33331 15.3398 5.33331 11.9376 5.77263 10.2969C6.01865 9.39888 6.7567 8.67353 7.65291 8.43175C9.32231 8 15.9999 8 15.9999 8C15.9999 8 22.6776 8 24.347 8.44902ZM14.0604 11.8125L19.6133 14.9557L14.0604 18.0988V11.8125Z" fill="#EEC354"/>
</svg>
