<svg width="91" height="138" viewBox="0 0 91 138" fill="none" xmlns="http://www.w3.org/2000/svg">
<path d="M26.9129 103H25.4729L24.7369 100.184H21.2489L20.5289 103H19.2489L22.2409 91.8H24.0009L26.9129 103ZM21.5209 99.16H24.4649L22.9769 93.512L21.5209 99.16ZM29.4989 101.624H34.7309V103H28.1069V91.8H29.4989V101.624ZM42.7868 93.384V95.544H41.4108V93.992L40.6108 93.192H38.0188L37.0108 94.216V100.552L38.0828 101.624H40.5468L41.4108 100.776V99H42.7868V101.336L41.1228 103H37.5868L35.6188 101.048V93.672L37.4908 91.8H41.2188L42.7868 93.384ZM43.9153 104.52H43.0353L46.5553 91.352H47.4353L43.9153 104.52ZM52.4991 103H50.7551L47.8431 91.8H49.2351L51.7311 101.304L54.1791 91.8H55.4911L52.4991 103ZM63.3843 101.192L61.5603 103H57.8803L56.0723 101.192V93.528L57.8003 91.8H61.6563L63.3843 93.528V101.192ZM58.3603 93.176L57.4483 94.088V100.648L58.4083 101.624H61.0323L61.9923 100.648V94.088L61.0803 93.176H58.3603ZM66.4208 101.624H71.6528V103H65.0288V91.8H66.4208V101.624Z" fill="#F6D351"/>
<path d="M27.2859 132.4H28.8859V130.26H21.8859V128.66L27.7259 119H30.7259V128.66H31.9859V130.26H30.7259V132.4H32.1259V134H27.2859V132.4ZM28.8859 128.66V120.42L23.9059 128.66H28.8859ZM35.0938 131.6H37.0938V133.4L35.8938 136.6H35.0938V131.6ZM40.0977 131.8V121.2L42.1777 119H46.8177L48.8977 121.2V123.72H47.2377V121.96L46.0377 120.72H42.9777L41.8377 121.88V125.34H47.2777L49.2977 127.46V131.8L47.2177 134H42.1777L40.0977 131.8ZM41.8377 126.94V131.12L42.9777 132.28H46.4377L47.4577 131.22V128.04L46.3777 126.94H41.8377ZM63.7855 134L62.4855 132.62V126.34L63.7855 124.96H67.2255L68.5055 126.34V132.62L67.2255 134H63.7855ZM64.3855 132.64H66.6255L67.1655 132.1V126.86L66.6255 126.32H64.3855L63.8455 126.86V132.1L64.3855 132.64ZM53.8055 128.04L52.5055 126.66V120.38L53.8055 119H57.2455L58.5255 120.38V126.66L57.2455 128.04H53.8055ZM54.4055 126.68H56.6455L57.1855 126.14V120.9L56.6455 120.36H54.4055L53.8655 120.9V126.14L54.4055 126.68ZM56.6855 134.7L62.7855 118.32H64.3255L58.2255 134.7H56.6855Z" fill="#F6D351"/>
<path d="M27.2859 132.4V131.9H26.7859V132.4H27.2859ZM28.8859 132.4V132.9H29.3859V132.4H28.8859ZM28.8859 130.26H29.3859V129.76H28.8859V130.26ZM21.8859 130.26H21.3859V130.76H21.8859V130.26ZM21.8859 128.66L21.4581 128.401L21.3859 128.521V128.66H21.8859ZM27.7259 119V118.5H27.4439L27.2981 118.741L27.7259 119ZM30.7259 119H31.2259V118.5H30.7259V119ZM30.7259 128.66H30.2259V129.16H30.7259V128.66ZM31.9859 128.66H32.4859V128.16H31.9859V128.66ZM31.9859 130.26V130.76H32.4859V130.26H31.9859ZM30.7259 130.26V129.76H30.2259V130.26H30.7259ZM30.7259 132.4H30.2259V132.9H30.7259V132.4ZM32.1259 132.4H32.6259V131.9H32.1259V132.4ZM32.1259 134V134.5H32.6259V134H32.1259ZM27.2859 134H26.7859V134.5H27.2859V134ZM28.8859 128.66V129.16H29.3859V128.66H28.8859ZM28.8859 120.42H29.3859V118.626L28.458 120.161L28.8859 120.42ZM23.9059 128.66L23.478 128.401L23.0195 129.16H23.9059V128.66ZM27.2859 132.9H28.8859V131.9H27.2859V132.9ZM29.3859 132.4V130.26H28.3859V132.4H29.3859ZM28.8859 129.76H21.8859V130.76H28.8859V129.76ZM22.3859 130.26V128.66H21.3859V130.26H22.3859ZM22.3138 128.919L28.1538 119.259L27.2981 118.741L21.4581 128.401L22.3138 128.919ZM27.7259 119.5H30.7259V118.5H27.7259V119.5ZM30.2259 119V128.66H31.2259V119H30.2259ZM30.7259 129.16H31.9859V128.16H30.7259V129.16ZM31.4859 128.66V130.26H32.4859V128.66H31.4859ZM31.9859 129.76H30.7259V130.76H31.9859V129.76ZM30.2259 130.26V132.4H31.2259V130.26H30.2259ZM30.7259 132.9H32.1259V131.9H30.7259V132.9ZM31.6259 132.4V134H32.6259V132.4H31.6259ZM32.1259 133.5H27.2859V134.5H32.1259V133.5ZM27.7859 134V132.4H26.7859V134H27.7859ZM29.3859 128.66V120.42H28.3859V128.66H29.3859ZM28.458 120.161L23.478 128.401L24.3339 128.919L29.3139 120.679L28.458 120.161ZM23.9059 129.16H28.8859V128.16H23.9059V129.16ZM35.0938 131.6V131.1H34.5938V131.6H35.0938ZM37.0938 131.6H37.5938V131.1H37.0938V131.6ZM37.0938 133.4L37.5619 133.576L37.5938 133.491V133.4H37.0938ZM35.8937 136.6V137.1H36.2402L36.3619 136.776L35.8937 136.6ZM35.0938 136.6H34.5938V137.1H35.0938V136.6ZM35.0938 132.1H37.0938V131.1H35.0938V132.1ZM36.5938 131.6V133.4H37.5938V131.6H36.5938ZM36.6256 133.224L35.4256 136.424L36.3619 136.776L37.5619 133.576L36.6256 133.224ZM35.8937 136.1H35.0938V137.1H35.8937V136.1ZM35.5938 136.6V131.6H34.5938V136.6H35.5938ZM40.0977 131.8H39.5977V131.999L39.7343 132.144L40.0977 131.8ZM40.0977 121.2L39.7343 120.856L39.5977 121.001V121.2H40.0977ZM42.1777 119V118.5H41.9623L41.8143 118.656L42.1777 119ZM46.8177 119L47.181 118.656L47.033 118.5H46.8177V119ZM48.8977 121.2H49.3977V121.001L49.261 120.856L48.8977 121.2ZM48.8977 123.72V124.22H49.3977V123.72H48.8977ZM47.2377 123.72H46.7377V124.22H47.2377V123.72ZM47.2377 121.96H47.7377V121.758L47.597 121.612L47.2377 121.96ZM46.0377 120.72L46.397 120.372L46.2496 120.22H46.0377V120.72ZM42.9777 120.72V120.22H42.768L42.621 120.37L42.9777 120.72ZM41.8377 121.88L41.481 121.53L41.3377 121.675V121.88H41.8377ZM41.8377 125.34H41.3377V125.84H41.8377V125.34ZM47.2777 125.34L47.6396 124.995L47.4919 124.84H47.2777V125.34ZM49.2977 127.46H49.7977V127.26L49.6596 127.115L49.2977 127.46ZM49.2977 131.8L49.661 132.144L49.7977 131.999V131.8H49.2977ZM47.2177 134V134.5H47.433L47.581 134.344L47.2177 134ZM42.1777 134L41.8143 134.344L41.9623 134.5H42.1777V134ZM41.8377 126.94V126.44H41.3377V126.94H41.8377ZM41.8377 131.12H41.3377V131.325L41.481 131.47L41.8377 131.12ZM42.9777 132.28L42.621 132.63L42.768 132.78H42.9777V132.28ZM46.4377 132.28V132.78H46.6504L46.7979 132.627L46.4377 132.28ZM47.4577 131.22L47.8179 131.567L47.9577 131.421V131.22H47.4577ZM47.4577 128.04H47.9577V127.836L47.8144 127.69L47.4577 128.04ZM46.3777 126.94L46.7344 126.59L46.5875 126.44H46.3777V126.94ZM40.5977 131.8V121.2H39.5977V131.8H40.5977ZM40.461 121.544L42.541 119.344L41.8143 118.656L39.7343 120.856L40.461 121.544ZM42.1777 119.5H46.8177V118.5H42.1777V119.5ZM46.4543 119.344L48.5343 121.544L49.261 120.856L47.181 118.656L46.4543 119.344ZM48.3977 121.2V123.72H49.3977V121.2H48.3977ZM48.8977 123.22H47.2377V124.22H48.8977V123.22ZM47.7377 123.72V121.96H46.7377V123.72H47.7377ZM47.597 121.612L46.397 120.372L45.6784 121.068L46.8784 122.308L47.597 121.612ZM46.0377 120.22H42.9777V121.22H46.0377V120.22ZM42.621 120.37L41.481 121.53L42.1943 122.23L43.3343 121.07L42.621 120.37ZM41.3377 121.88V125.34H42.3377V121.88H41.3377ZM41.8377 125.84H47.2777V124.84H41.8377V125.84ZM46.9157 125.685L48.9357 127.805L49.6596 127.115L47.6396 124.995L46.9157 125.685ZM48.7977 127.46V131.8H49.7977V127.46H48.7977ZM48.9343 131.456L46.8543 133.656L47.581 134.344L49.661 132.144L48.9343 131.456ZM47.2177 133.5H42.1777V134.5H47.2177V133.5ZM42.541 133.656L40.461 131.456L39.7343 132.144L41.8143 134.344L42.541 133.656ZM41.3377 126.94V131.12H42.3377V126.94H41.3377ZM41.481 131.47L42.621 132.63L43.3343 131.93L42.1943 130.77L41.481 131.47ZM42.9777 132.78H46.4377V131.78H42.9777V132.78ZM46.7979 132.627L47.8179 131.567L47.0974 130.873L46.0774 131.933L46.7979 132.627ZM47.9577 131.22V128.04H46.9577V131.22H47.9577ZM47.8144 127.69L46.7344 126.59L46.0209 127.29L47.1009 128.39L47.8144 127.69ZM46.3777 126.44H41.8377V127.44H46.3777V126.44ZM63.7855 134L63.4215 134.343L63.5696 134.5H63.7855V134ZM62.4855 132.62H61.9855V132.818L62.1215 132.963L62.4855 132.62ZM62.4855 126.34L62.1215 125.997L61.9855 126.142V126.34H62.4855ZM63.7855 124.96V124.46H63.5696L63.4215 124.617L63.7855 124.96ZM67.2255 124.96L67.5921 124.62L67.4437 124.46H67.2255V124.96ZM68.5055 126.34H69.0055V126.144L68.8721 126L68.5055 126.34ZM68.5055 132.62L68.8721 132.96L69.0055 132.816V132.62H68.5055ZM67.2255 134V134.5H67.4437L67.5921 134.34L67.2255 134ZM64.3855 132.64L64.0319 132.994L64.1784 133.14H64.3855V132.64ZM66.6255 132.64V133.14H66.8326L66.979 132.994L66.6255 132.64ZM67.1655 132.1L67.519 132.454L67.6655 132.307V132.1H67.1655ZM67.1655 126.86H67.6655V126.653L67.519 126.506L67.1655 126.86ZM66.6255 126.32L66.979 125.966L66.8326 125.82H66.6255V126.32ZM64.3855 126.32V125.82H64.1784L64.0319 125.966L64.3855 126.32ZM63.8455 126.86L63.4919 126.506L63.3455 126.653V126.86H63.8455ZM63.8455 132.1H63.3455V132.307L63.4919 132.454L63.8455 132.1ZM53.8055 128.04L53.4415 128.383L53.5896 128.54H53.8055V128.04ZM52.5055 126.66H52.0055V126.858L52.1415 127.003L52.5055 126.66ZM52.5055 120.38L52.1415 120.037L52.0055 120.182V120.38H52.5055ZM53.8055 119V118.5H53.5896L53.4415 118.657L53.8055 119ZM57.2455 119L57.6121 118.66L57.4637 118.5H57.2455V119ZM58.5255 120.38H59.0255V120.184L58.8921 120.04L58.5255 120.38ZM58.5255 126.66L58.8921 127L59.0255 126.856V126.66H58.5255ZM57.2455 128.04V128.54H57.4637L57.6121 128.38L57.2455 128.04ZM54.4055 126.68L54.0519 127.034L54.1984 127.18H54.4055V126.68ZM56.6455 126.68V127.18H56.8526L56.999 127.034L56.6455 126.68ZM57.1855 126.14L57.539 126.494L57.6855 126.347V126.14H57.1855ZM57.1855 120.9H57.6855V120.693L57.539 120.546L57.1855 120.9ZM56.6455 120.36L56.999 120.006L56.8526 119.86H56.6455V120.36ZM54.4055 120.36V119.86H54.1984L54.0519 120.006L54.4055 120.36ZM53.8655 120.9L53.5119 120.546L53.3655 120.693V120.9H53.8655ZM53.8655 126.14H53.3655V126.347L53.5119 126.494L53.8655 126.14ZM56.6855 134.7L56.2169 134.526L55.9657 135.2H56.6855V134.7ZM62.7855 118.32V117.82H62.4381L62.3169 118.146L62.7855 118.32ZM64.3255 118.32L64.794 118.494L65.0452 117.82H64.3255V118.32ZM58.2255 134.7V135.2H58.5728L58.694 134.874L58.2255 134.7ZM64.1494 133.657L62.8494 132.277L62.1215 132.963L63.4215 134.343L64.1494 133.657ZM62.9855 132.62V126.34H61.9855V132.62H62.9855ZM62.8494 126.683L64.1494 125.303L63.4215 124.617L62.1215 125.997L62.8494 126.683ZM63.7855 125.46H67.2255V124.46H63.7855V125.46ZM66.8589 125.3L68.1389 126.68L68.8721 126L67.5921 124.62L66.8589 125.3ZM68.0055 126.34V132.62H69.0055V126.34H68.0055ZM68.1389 132.28L66.8589 133.66L67.5921 134.34L68.8721 132.96L68.1389 132.28ZM67.2255 133.5H63.7855V134.5H67.2255V133.5ZM64.3855 133.14H66.6255V132.14H64.3855V133.14ZM66.979 132.994L67.519 132.454L66.8119 131.746L66.2719 132.286L66.979 132.994ZM67.6655 132.1V126.86H66.6655V132.1H67.6655ZM67.519 126.506L66.979 125.966L66.2719 126.674L66.8119 127.214L67.519 126.506ZM66.6255 125.82H64.3855V126.82H66.6255V125.82ZM64.0319 125.966L63.4919 126.506L64.199 127.214L64.739 126.674L64.0319 125.966ZM63.3455 126.86V132.1H64.3455V126.86H63.3455ZM63.4919 132.454L64.0319 132.994L64.739 132.286L64.199 131.746L63.4919 132.454ZM54.1694 127.697L52.8694 126.317L52.1415 127.003L53.4415 128.383L54.1694 127.697ZM53.0055 126.66V120.38H52.0055V126.66H53.0055ZM52.8694 120.723L54.1694 119.343L53.4415 118.657L52.1415 120.037L52.8694 120.723ZM53.8055 119.5H57.2455V118.5H53.8055V119.5ZM56.8789 119.34L58.1589 120.72L58.8921 120.04L57.6121 118.66L56.8789 119.34ZM58.0255 120.38V126.66H59.0255V120.38H58.0255ZM58.1589 126.32L56.8789 127.7L57.6121 128.38L58.8921 127L58.1589 126.32ZM57.2455 127.54H53.8055V128.54H57.2455V127.54ZM54.4055 127.18H56.6455V126.18H54.4055V127.18ZM56.999 127.034L57.539 126.494L56.8319 125.786L56.2919 126.326L56.999 127.034ZM57.6855 126.14V120.9H56.6855V126.14H57.6855ZM57.539 120.546L56.999 120.006L56.2919 120.714L56.8319 121.254L57.539 120.546ZM56.6455 119.86H54.4055V120.86H56.6455V119.86ZM54.0519 120.006L53.5119 120.546L54.219 121.254L54.759 120.714L54.0519 120.006ZM53.3655 120.9V126.14H54.3655V120.9H53.3655ZM53.5119 126.494L54.0519 127.034L54.759 126.326L54.219 125.786L53.5119 126.494ZM57.154 134.874L63.254 118.494L62.3169 118.146L56.2169 134.526L57.154 134.874ZM62.7855 118.82H64.3255V117.82H62.7855V118.82ZM63.8569 118.146L57.7569 134.526L58.694 134.874L64.794 118.494L63.8569 118.146ZM58.2255 134.2H56.6855V135.2H58.2255V134.2Z" fill="#F6D351"/>
<path d="M54.7157 27.0901C50.7273 19.5723 46.6693 13.1692 46.623 13.1173L44.907 10.4213L43.1911 13.1173C43.1447 13.1692 39.0867 19.5723 35.0983 27.0901C29.6027 37.4336 26.7969 44.9773 26.7969 49.5139C26.7969 60.661 34.9128 69.7343 44.8838 69.7343C54.8548 69.7343 62.9708 60.661 62.9708 49.5139C62.994 45.0032 60.2114 37.4595 54.7157 27.0901ZM44.907 65.068C37.2548 65.068 31.0172 58.0946 31.0172 49.5398C31.0172 42.9034 39.8751 26.9086 44.907 18.6131C49.9389 26.9086 58.7969 42.9034 58.7969 49.5398C58.8201 58.0946 52.5824 65.068 44.907 65.068Z" fill="#F7CE3C"/>
<path d="M50.8664 44.433L50.8201 46.7661C50.8201 47.1031 50.5418 55.1653 43.794 56.2282L41.707 56.5393L42.2867 61.1796L44.3737 60.8685C48.6635 60.1945 51.8635 57.5244 53.649 53.1433C54.9476 49.9806 54.994 46.9735 54.994 46.8439L55.0403 44.5108L50.8664 44.433Z" fill="#F7CE3C"/>
</svg>
