<svg width="91" height="138" viewBox="0 0 91 138" fill="none" xmlns="http://www.w3.org/2000/svg">
<path d="M32.2087 93.384V95.544H30.8327V93.992L30.0327 93.192H27.4407L26.4327 94.216V100.552L27.5047 101.624H29.9687L30.8327 100.776V99H32.2087V101.336L30.5447 103H27.0087L25.0407 101.048V93.672L26.9127 91.8H30.6407L32.2087 93.384ZM41.0249 101.192L39.2009 103H35.5209L33.7129 101.192V93.528L35.4409 91.8H39.2969L41.0249 93.528V101.192ZM36.0009 93.176L35.0889 94.088V100.648L36.0489 101.624H38.6729L39.6329 100.648V94.088L38.7209 93.176H36.0009ZM44.0614 101.624H49.2934V103H42.6694V91.8H44.0614V101.624ZM57.5093 101.192L55.6853 103H52.0053L50.1973 101.192V93.528L51.9253 91.8H55.7813L57.5093 93.528V101.192ZM52.4853 93.176L51.5733 94.088V100.648L52.5333 101.624H55.1573L56.1173 100.648V94.088L55.2053 93.176H52.4853ZM65.9698 93.384V96.632L64.4498 98.152H63.6178L65.7618 103H64.3218L62.2098 98.152H60.5298V103H59.1538V91.8H64.4018L65.9698 93.384ZM60.5298 93.192V96.936H63.7938L64.5938 96.136V93.992L63.7938 93.192H60.5298Z" fill="#F6D351"/>
<path d="M17.8266 119V132.4H20.8266V134H12.9866V132.4H15.9866V120.94L12.7266 122.56L11.9466 121L15.9866 119H17.8266ZM30.8345 119V132.4H33.8345V134H25.9945V132.4H28.9945V120.94L25.7345 122.56L24.9545 121L28.9945 119H30.8345ZM44.4145 119H53.9345V122.92H52.3345V120.6H47.6545V125.7H52.3345V127.3H47.6545V132.4H52.3345V130.08H53.9345V134H44.4145V132.4H45.8145V120.6H44.4145V119ZM57.1293 119H65.1293L67.2093 121.2V124.8L66.1293 125.94L67.6093 127.48V131.8L65.5293 134H57.1293V132.4H58.5293V120.6H57.1293V119ZM60.3693 126.88V132.28H64.7293L65.8893 131.1V128.18L64.6293 126.88H60.3693ZM60.3693 120.72V125.28H64.3293L65.4893 124.1V121.9L64.3493 120.72H60.3693ZM78.4012 129.28H80.0012V131.8L77.9212 134H72.8812L70.8012 131.8V121.2L72.8812 119H77.9212L80.0012 121.2V123.72H78.4012V122.02L77.1412 120.72H73.6812L72.6412 121.78V131.22L73.6612 132.28H77.1212L78.4012 130.98V129.28Z" fill="#F6D351"/>
<path d="M17.8266 119H18.3266V118.5H17.8266V119ZM17.8266 132.4H17.3266V132.9H17.8266V132.4ZM20.8266 132.4H21.3266V131.9H20.8266V132.4ZM20.8266 134V134.5H21.3266V134H20.8266ZM12.9866 134H12.4866V134.5H12.9866V134ZM12.9866 132.4V131.9H12.4866V132.4H12.9866ZM15.9866 132.4V132.9H16.4866V132.4H15.9866ZM15.9866 120.94H16.4866V120.133L15.7641 120.492L15.9866 120.94ZM12.7266 122.56L12.2794 122.784L12.5025 123.23L12.9491 123.008L12.7266 122.56ZM11.9466 121L11.7248 120.552L11.2749 120.775L11.4994 121.224L11.9466 121ZM15.9866 119V118.5H15.8697L15.7648 118.552L15.9866 119ZM17.3266 119V132.4H18.3266V119H17.3266ZM17.8266 132.9H20.8266V131.9H17.8266V132.9ZM20.3266 132.4V134H21.3266V132.4H20.3266ZM20.8266 133.5H12.9866V134.5H20.8266V133.5ZM13.4866 134V132.4H12.4866V134H13.4866ZM12.9866 132.9H15.9866V131.9H12.9866V132.9ZM16.4866 132.4V120.94H15.4866V132.4H16.4866ZM15.7641 120.492L12.5041 122.112L12.9491 123.008L16.2091 121.388L15.7641 120.492ZM13.1739 122.336L12.3939 120.776L11.4994 121.224L12.2794 122.784L13.1739 122.336ZM12.1685 121.448L16.2085 119.448L15.7648 118.552L11.7248 120.552L12.1685 121.448ZM15.9866 119.5H17.8266V118.5H15.9866V119.5ZM30.8345 119H31.3345V118.5H30.8345V119ZM30.8345 132.4H30.3345V132.9H30.8345V132.4ZM33.8345 132.4H34.3345V131.9H33.8345V132.4ZM33.8345 134V134.5H34.3345V134H33.8345ZM25.9945 134H25.4945V134.5H25.9945V134ZM25.9945 132.4V131.9H25.4945V132.4H25.9945ZM28.9945 132.4V132.9H29.4945V132.4H28.9945ZM28.9945 120.94H29.4945V120.133L28.7719 120.492L28.9945 120.94ZM25.7345 122.56L25.2872 122.784L25.5103 123.23L25.957 123.008L25.7345 122.56ZM24.9545 121L24.7326 120.552L24.2827 120.775L24.5072 121.224L24.9545 121ZM28.9945 119V118.5H28.8775L28.7726 118.552L28.9945 119ZM30.3345 119V132.4H31.3345V119H30.3345ZM30.8345 132.9H33.8345V131.9H30.8345V132.9ZM33.3345 132.4V134H34.3345V132.4H33.3345ZM33.8345 133.5H25.9945V134.5H33.8345V133.5ZM26.4945 134V132.4H25.4945V134H26.4945ZM25.9945 132.9H28.9945V131.9H25.9945V132.9ZM29.4945 132.4V120.94H28.4945V132.4H29.4945ZM28.7719 120.492L25.5119 122.112L25.957 123.008L29.217 121.388L28.7719 120.492ZM26.1817 122.336L25.4017 120.776L24.5072 121.224L25.2872 122.784L26.1817 122.336ZM25.1763 121.448L29.2163 119.448L28.7726 118.552L24.7326 120.552L25.1763 121.448ZM28.9945 119.5H30.8345V118.5H28.9945V119.5ZM44.4145 119V118.5H43.9145V119H44.4145ZM53.9345 119H54.4345V118.5H53.9345V119ZM53.9345 122.92V123.42H54.4345V122.92H53.9345ZM52.3345 122.92H51.8345V123.42H52.3345V122.92ZM52.3345 120.6H52.8345V120.1H52.3345V120.6ZM47.6545 120.6V120.1H47.1545V120.6H47.6545ZM47.6545 125.7H47.1545V126.2H47.6545V125.7ZM52.3345 125.7H52.8345V125.2H52.3345V125.7ZM52.3345 127.3V127.8H52.8345V127.3H52.3345ZM47.6545 127.3V126.8H47.1545V127.3H47.6545ZM47.6545 132.4H47.1545V132.9H47.6545V132.4ZM52.3345 132.4V132.9H52.8345V132.4H52.3345ZM52.3345 130.08V129.58H51.8345V130.08H52.3345ZM53.9345 130.08H54.4345V129.58H53.9345V130.08ZM53.9345 134V134.5H54.4345V134H53.9345ZM44.4145 134H43.9145V134.5H44.4145V134ZM44.4145 132.4V131.9H43.9145V132.4H44.4145ZM45.8145 132.4V132.9H46.3145V132.4H45.8145ZM45.8145 120.6H46.3145V120.1H45.8145V120.6ZM44.4145 120.6H43.9145V121.1H44.4145V120.6ZM44.4145 119.5H53.9345V118.5H44.4145V119.5ZM53.4345 119V122.92H54.4345V119H53.4345ZM53.9345 122.42H52.3345V123.42H53.9345V122.42ZM52.8345 122.92V120.6H51.8345V122.92H52.8345ZM52.3345 120.1H47.6545V121.1H52.3345V120.1ZM47.1545 120.6V125.7H48.1545V120.6H47.1545ZM47.6545 126.2H52.3345V125.2H47.6545V126.2ZM51.8345 125.7V127.3H52.8345V125.7H51.8345ZM52.3345 126.8H47.6545V127.8H52.3345V126.8ZM47.1545 127.3V132.4H48.1545V127.3H47.1545ZM47.6545 132.9H52.3345V131.9H47.6545V132.9ZM52.8345 132.4V130.08H51.8345V132.4H52.8345ZM52.3345 130.58H53.9345V129.58H52.3345V130.58ZM53.4345 130.08V134H54.4345V130.08H53.4345ZM53.9345 133.5H44.4145V134.5H53.9345V133.5ZM44.9145 134V132.4H43.9145V134H44.9145ZM44.4145 132.9H45.8145V131.9H44.4145V132.9ZM46.3145 132.4V120.6H45.3145V132.4H46.3145ZM45.8145 120.1H44.4145V121.1H45.8145V120.1ZM44.9145 120.6V119H43.9145V120.6H44.9145ZM57.1293 119V118.5H56.6293V119H57.1293ZM65.1293 119L65.4926 118.656L65.3447 118.5H65.1293V119ZM67.2093 121.2H67.7093V121.001L67.5726 120.856L67.2093 121.2ZM67.2093 124.8L67.5723 125.144L67.7093 124.999V124.8H67.2093ZM66.1293 125.94L65.7663 125.596L65.4382 125.942L65.7688 126.286L66.1293 125.94ZM67.6093 127.48H68.1093V127.279L67.9698 127.134L67.6093 127.48ZM67.6093 131.8L67.9726 132.144L68.1093 131.999V131.8H67.6093ZM65.5293 134V134.5H65.7447L65.8926 134.344L65.5293 134ZM57.1293 134H56.6293V134.5H57.1293V134ZM57.1293 132.4V131.9H56.6293V132.4H57.1293ZM58.5293 132.4V132.9H59.0293V132.4H58.5293ZM58.5293 120.6H59.0293V120.1H58.5293V120.6ZM57.1293 120.6H56.6293V121.1H57.1293V120.6ZM60.3693 126.88V126.38H59.8693V126.88H60.3693ZM60.3693 132.28H59.8693V132.78H60.3693V132.28ZM64.7293 132.28V132.78H64.9389L65.0859 132.631L64.7293 132.28ZM65.8893 131.1L66.2459 131.451L66.3893 131.305V131.1H65.8893ZM65.8893 128.18H66.3893V127.977L66.2483 127.832L65.8893 128.18ZM64.6293 126.88L64.9883 126.532L64.841 126.38H64.6293V126.88ZM60.3693 120.72V120.22H59.8693V120.72H60.3693ZM60.3693 125.28H59.8693V125.78H60.3693V125.28ZM64.3293 125.28V125.78H64.5389L64.6859 125.631L64.3293 125.28ZM65.4893 124.1L65.8459 124.451L65.9893 124.305V124.1H65.4893ZM65.4893 121.9H65.9893V121.698L65.8489 121.553L65.4893 121.9ZM64.3493 120.72L64.7089 120.373L64.5615 120.22H64.3493V120.72ZM57.1293 119.5H65.1293V118.5H57.1293V119.5ZM64.766 119.344L66.846 121.544L67.5726 120.856L65.4926 118.656L64.766 119.344ZM66.7093 121.2V124.8H67.7093V121.2H66.7093ZM66.8463 124.456L65.7663 125.596L66.4923 126.284L67.5723 125.144L66.8463 124.456ZM65.7688 126.286L67.2488 127.826L67.9698 127.134L66.4898 125.594L65.7688 126.286ZM67.1093 127.48V131.8H68.1093V127.48H67.1093ZM67.246 131.456L65.166 133.656L65.8926 134.344L67.9726 132.144L67.246 131.456ZM65.5293 133.5H57.1293V134.5H65.5293V133.5ZM57.6293 134V132.4H56.6293V134H57.6293ZM57.1293 132.9H58.5293V131.9H57.1293V132.9ZM59.0293 132.4V120.6H58.0293V132.4H59.0293ZM58.5293 120.1H57.1293V121.1H58.5293V120.1ZM57.6293 120.6V119H56.6293V120.6H57.6293ZM59.8693 126.88V132.28H60.8693V126.88H59.8693ZM60.3693 132.78H64.7293V131.78H60.3693V132.78ZM65.0859 132.631L66.2459 131.451L65.5327 130.749L64.3727 131.929L65.0859 132.631ZM66.3893 131.1V128.18H65.3893V131.1H66.3893ZM66.2483 127.832L64.9883 126.532L64.2703 127.228L65.5303 128.528L66.2483 127.832ZM64.6293 126.38H60.3693V127.38H64.6293V126.38ZM59.8693 120.72V125.28H60.8693V120.72H59.8693ZM60.3693 125.78H64.3293V124.78H60.3693V125.78ZM64.6859 125.631L65.8459 124.451L65.1327 123.749L63.9727 124.929L64.6859 125.631ZM65.9893 124.1V121.9H64.9893V124.1H65.9893ZM65.8489 121.553L64.7089 120.373L63.9897 121.067L65.1297 122.247L65.8489 121.553ZM64.3493 120.22H60.3693V121.22H64.3493V120.22ZM78.4012 129.28V128.78H77.9012V129.28H78.4012ZM80.0012 129.28H80.5012V128.78H80.0012V129.28ZM80.0012 131.8L80.3645 132.144L80.5012 131.999V131.8H80.0012ZM77.9212 134V134.5H78.1365L78.2845 134.344L77.9212 134ZM72.8812 134L72.5178 134.344L72.6658 134.5H72.8812V134ZM70.8012 131.8H70.3012V131.999L70.4379 132.144L70.8012 131.8ZM70.8012 121.2L70.4379 120.856L70.3012 121.001V121.2H70.8012ZM72.8812 119V118.5H72.6658L72.5178 118.656L72.8812 119ZM77.9212 119L78.2845 118.656L78.1365 118.5H77.9212V119ZM80.0012 121.2H80.5012V121.001L80.3645 120.856L80.0012 121.2ZM80.0012 123.72V124.22H80.5012V123.72H80.0012ZM78.4012 123.72H77.9012V124.22H78.4012V123.72ZM78.4012 122.02H78.9012V121.817L78.7602 121.672L78.4012 122.02ZM77.1412 120.72L77.5002 120.372L77.3529 120.22H77.1412V120.72ZM73.6812 120.72V120.22H73.4713L73.3243 120.37L73.6812 120.72ZM72.6412 121.78L72.2843 121.43L72.1412 121.576V121.78H72.6412ZM72.6412 131.22H72.1412V131.421L72.2809 131.567L72.6412 131.22ZM73.6612 132.28L73.3009 132.627L73.4484 132.78H73.6612V132.28ZM77.1212 132.28V132.78H77.3306L77.4775 132.631L77.1212 132.28ZM78.4012 130.98L78.7575 131.331L78.9012 131.185V130.98H78.4012ZM78.4012 129.78H80.0012V128.78H78.4012V129.78ZM79.5012 129.28V131.8H80.5012V129.28H79.5012ZM79.6378 131.456L77.5578 133.656L78.2845 134.344L80.3645 132.144L79.6378 131.456ZM77.9212 133.5H72.8812V134.5H77.9212V133.5ZM73.2445 133.656L71.1645 131.456L70.4379 132.144L72.5178 134.344L73.2445 133.656ZM71.3012 131.8V121.2H70.3012V131.8H71.3012ZM71.1645 121.544L73.2445 119.344L72.5178 118.656L70.4379 120.856L71.1645 121.544ZM72.8812 119.5H77.9212V118.5H72.8812V119.5ZM77.5578 119.344L79.6378 121.544L80.3645 120.856L78.2845 118.656L77.5578 119.344ZM79.5012 121.2V123.72H80.5012V121.2H79.5012ZM80.0012 123.22H78.4012V124.22H80.0012V123.22ZM78.9012 123.72V122.02H77.9012V123.72H78.9012ZM78.7602 121.672L77.5002 120.372L76.7821 121.068L78.0421 122.368L78.7602 121.672ZM77.1412 120.22H73.6812V121.22H77.1412V120.22ZM73.3243 120.37L72.2843 121.43L72.9981 122.13L74.0381 121.07L73.3243 120.37ZM72.1412 121.78V131.22H73.1412V121.78H72.1412ZM72.2809 131.567L73.3009 132.627L74.0215 131.933L73.0015 130.873L72.2809 131.567ZM73.6612 132.78H77.1212V131.78H73.6612V132.78ZM77.4775 132.631L78.7575 131.331L78.0449 130.629L76.7649 131.929L77.4775 132.631ZM78.9012 130.98V129.28H77.9012V130.98H78.9012Z" fill="#F6D351"/>
<path d="M59.3564 6.1438H55.3216L55.2984 14.3097L48.2028 20.0129V7.07705H44.168V19.1315L37.2115 13.532L37.0955 6.76596L33.0607 6.84373L33.9651 58.8463L33.8723 58.9759L33.9651 59.0537V59.2093H34.1506L44.1448 67.2715V74.9448H48.2028V68.801L59.1709 59.9351L59.1245 59.8573H59.2404L59.3564 6.1438ZM55.2288 46.766L48.2028 52.4173V47.0511L55.252 41.3739L55.2288 46.766ZM44.168 39.4815L37.5825 34.1671L37.4897 29.5009L44.168 34.893V39.4815ZM37.6752 39.7925L44.168 45.0291V50.7841L37.768 45.6253L37.6752 39.7925ZM55.252 35.8003L48.2028 41.5035V35.7485L55.2752 30.0453L55.252 35.8003ZM55.2984 19.8573V24.4717L48.2259 30.1749V25.5864L55.2984 19.8573ZM44.168 24.6791V29.2935L37.397 23.8236L37.3042 19.1574L44.168 24.6791ZM37.9767 56.7206L37.8839 51.2767L44.168 56.3577V61.6979L37.9767 56.7206ZM48.2028 57.9908L55.2288 52.3395V57.602L48.2028 63.2533V57.9908Z" fill="#F7CE3C"/>
</svg>
