<svg width="32" height="32" viewBox="0 0 32 32" fill="none" xmlns="http://www.w3.org/2000/svg">
<path d="M26.7914 7.62571C27.4589 6.95824 27.4589 5.87605 26.7914 5.20857C26.124 4.5411 25.0418 4.5411 24.3743 5.20857L16 13.5829L7.62571 5.20857C6.95824 4.54109 5.87605 4.5411 5.20857 5.20857C4.5411 5.87605 4.5411 6.95824 5.20857 7.62571L13.5829 16L5.20857 24.3743C4.54109 25.0418 4.5411 26.124 5.20857 26.7914C5.87605 27.4589 6.95824 27.4589 7.62571 26.7914L16 18.4171L24.3743 26.7914C25.0418 27.4589 26.124 27.4589 26.7914 26.7914C27.4589 26.124 27.4589 25.0418 26.7914 24.3743L18.4171 16L26.7914 7.62571Z" fill="#F6D351"/>
</svg>
