<svg width="91" height="138" viewBox="0 0 91 138" fill="none" xmlns="http://www.w3.org/2000/svg">
<path d="M26.9129 103H25.4729L24.7369 100.184H21.2489L20.5289 103H19.2489L22.2409 91.8H24.0009L26.9129 103ZM21.5209 99.16H24.4649L22.9769 93.512L21.5209 99.16ZM29.4989 101.624H34.7309V103H28.1069V91.8H29.4989V101.624ZM42.7868 93.384V95.544H41.4108V93.992L40.6108 93.192H38.0188L37.0108 94.216V100.552L38.0828 101.624H40.5468L41.4108 100.776V99H42.7868V101.336L41.1228 103H37.5868L35.6188 101.048V93.672L37.4908 91.8H41.2188L42.7868 93.384ZM43.9153 104.52H43.0353L46.5553 91.352H47.4353L43.9153 104.52ZM52.4991 103H50.7551L47.8431 91.8H49.2351L51.7311 101.304L54.1791 91.8H55.4911L52.4991 103ZM63.3843 101.192L61.5603 103H57.8803L56.0723 101.192V93.528L57.8003 91.8H61.6563L63.3843 93.528V101.192ZM58.3603 93.176L57.4483 94.088V100.648L58.4083 101.624H61.0323L61.9923 100.648V94.088L61.0803 93.176H58.3603ZM66.4208 101.624H71.6528V103H65.0288V91.8H66.4208V101.624Z" fill="#F6D351"/>
<path d="M25.7259 127.34V125.74H28.8859L29.8459 124.76V121.78L28.8059 120.72H25.7459L24.5459 121.96V123.72H22.8859V121.2L24.9659 119H29.6059L31.6859 121.2V125.34L30.6659 126.4L32.0659 127.86V131.8L29.9859 134H24.9459L22.8659 131.8V129.28H24.5259V131.04L25.7459 132.28H29.2059L30.2259 131.22V128.44L29.1459 127.34H25.7259ZM35.0938 131.6H37.0938V133.4L35.8938 136.6H35.0938V131.6ZM40.0977 129.28H41.7577V131.04L42.9577 132.28H46.2177L47.3577 131.12V127.66H42.1177L40.0977 125.54V121.2L42.1777 119H47.0177L49.0977 121.2V131.8L47.0177 134H42.1777L40.0977 131.8V129.28ZM47.3577 126.06V121.88L46.2177 120.72H42.9577L41.9377 121.78V124.96L43.0177 126.06H47.3577ZM63.7855 134L62.4855 132.62V126.34L63.7855 124.96H67.2255L68.5055 126.34V132.62L67.2255 134H63.7855ZM64.3855 132.64H66.6255L67.1655 132.1V126.86L66.6255 126.32H64.3855L63.8455 126.86V132.1L64.3855 132.64ZM53.8055 128.04L52.5055 126.66V120.38L53.8055 119H57.2455L58.5255 120.38V126.66L57.2455 128.04H53.8055ZM54.4055 126.68H56.6455L57.1855 126.14V120.9L56.6455 120.36H54.4055L53.8655 120.9V126.14L54.4055 126.68ZM56.6855 134.7L62.7855 118.32H64.3255L58.2255 134.7H56.6855Z" fill="#F6D351"/>
<path d="M25.7259 127.34H25.2259V127.84H25.7259V127.34ZM25.7259 125.74V125.24H25.2259V125.74H25.7259ZM28.8859 125.74V126.24H29.0961L29.2431 126.09L28.8859 125.74ZM29.8459 124.76L30.2031 125.11L30.3459 124.964V124.76H29.8459ZM29.8459 121.78H30.3459V121.576L30.2028 121.43L29.8459 121.78ZM28.8059 120.72L29.1628 120.37L29.0158 120.22H28.8059V120.72ZM25.7459 120.72V120.22H25.534L25.3866 120.372L25.7459 120.72ZM24.5459 121.96L24.1866 121.612L24.0459 121.758V121.96H24.5459ZM24.5459 123.72V124.22H25.0459V123.72H24.5459ZM22.8859 123.72H22.3859V124.22H22.8859V123.72ZM22.8859 121.2L22.5226 120.856L22.3859 121.001V121.2H22.8859ZM24.9659 119V118.5H24.7506L24.6026 118.656L24.9659 119ZM29.6059 119L29.9693 118.656L29.8213 118.5H29.6059V119ZM31.6859 121.2H32.1859V121.001L32.0493 120.856L31.6859 121.2ZM31.6859 125.34L32.0462 125.687L32.1859 125.541V125.34H31.6859ZM30.6659 126.4L30.3057 126.053L29.9726 126.399L30.305 126.746L30.6659 126.4ZM32.0659 127.86H32.5659V127.659L32.4268 127.514L32.0659 127.86ZM32.0659 131.8L32.4293 132.144L32.5659 131.999V131.8H32.0659ZM29.9859 134V134.5H30.2013L30.3493 134.344L29.9859 134ZM24.9459 134L24.5826 134.344L24.7306 134.5H24.9459V134ZM22.8659 131.8H22.3659V131.999L22.5026 132.144L22.8659 131.8ZM22.8659 129.28V128.78H22.3659V129.28H22.8659ZM24.5259 129.28H25.0259V128.78H24.5259V129.28ZM24.5259 131.04H24.0259V131.245L24.1695 131.391L24.5259 131.04ZM25.7459 132.28L25.3895 132.631L25.5364 132.78H25.7459V132.28ZM29.2059 132.28V132.78H29.4187L29.5662 132.627L29.2059 132.28ZM30.2259 131.22L30.5862 131.567L30.7259 131.421V131.22H30.2259ZM30.2259 128.44H30.7259V128.236L30.5827 128.09L30.2259 128.44ZM29.1459 127.34L29.5027 126.99L29.3557 126.84H29.1459V127.34ZM26.2259 127.34V125.74H25.2259V127.34H26.2259ZM25.7259 126.24H28.8859V125.24H25.7259V126.24ZM29.2431 126.09L30.2031 125.11L29.4888 124.41L28.5288 125.39L29.2431 126.09ZM30.3459 124.76V121.78H29.3459V124.76H30.3459ZM30.2028 121.43L29.1628 120.37L28.449 121.07L29.489 122.13L30.2028 121.43ZM28.8059 120.22H25.7459V121.22H28.8059V120.22ZM25.3866 120.372L24.1866 121.612L24.9052 122.308L26.1052 121.068L25.3866 120.372ZM24.0459 121.96V123.72H25.0459V121.96H24.0459ZM24.5459 123.22H22.8859V124.22H24.5459V123.22ZM23.3859 123.72V121.2H22.3859V123.72H23.3859ZM23.2493 121.544L25.3293 119.344L24.6026 118.656L22.5226 120.856L23.2493 121.544ZM24.9659 119.5H29.6059V118.5H24.9659V119.5ZM29.2426 119.344L31.3226 121.544L32.0493 120.856L29.9693 118.656L29.2426 119.344ZM31.1859 121.2V125.34H32.1859V121.2H31.1859ZM31.3257 124.993L30.3057 126.053L31.0262 126.747L32.0462 125.687L31.3257 124.993ZM30.305 126.746L31.705 128.206L32.4268 127.514L31.0268 126.054L30.305 126.746ZM31.5659 127.86V131.8H32.5659V127.86H31.5659ZM31.7026 131.456L29.6226 133.656L30.3493 134.344L32.4293 132.144L31.7026 131.456ZM29.9859 133.5H24.9459V134.5H29.9859V133.5ZM25.3093 133.656L23.2293 131.456L22.5026 132.144L24.5826 134.344L25.3093 133.656ZM23.3659 131.8V129.28H22.3659V131.8H23.3659ZM22.8659 129.78H24.5259V128.78H22.8659V129.78ZM24.0259 129.28V131.04H25.0259V129.28H24.0259ZM24.1695 131.391L25.3895 132.631L26.1024 131.929L24.8824 130.689L24.1695 131.391ZM25.7459 132.78H29.2059V131.78H25.7459V132.78ZM29.5662 132.627L30.5862 131.567L29.8657 130.873L28.8457 131.933L29.5662 132.627ZM30.7259 131.22V128.44H29.7259V131.22H30.7259ZM30.5827 128.09L29.5027 126.99L28.7892 127.69L29.8692 128.79L30.5827 128.09ZM29.1459 126.84H25.7259V127.84H29.1459V126.84ZM35.0938 131.6V131.1H34.5938V131.6H35.0938ZM37.0938 131.6H37.5938V131.1H37.0938V131.6ZM37.0938 133.4L37.5619 133.576L37.5938 133.491V133.4H37.0938ZM35.8937 136.6V137.1H36.2402L36.3619 136.776L35.8937 136.6ZM35.0938 136.6H34.5938V137.1H35.0938V136.6ZM35.0938 132.1H37.0938V131.1H35.0938V132.1ZM36.5938 131.6V133.4H37.5938V131.6H36.5938ZM36.6256 133.224L35.4256 136.424L36.3619 136.776L37.5619 133.576L36.6256 133.224ZM35.8937 136.1H35.0938V137.1H35.8937V136.1ZM35.5938 136.6V131.6H34.5938V136.6H35.5938ZM40.0977 129.28V128.78H39.5977V129.28H40.0977ZM41.7577 129.28H42.2577V128.78H41.7577V129.28ZM41.7577 131.04H41.2577V131.242L41.3984 131.388L41.7577 131.04ZM42.9577 132.28L42.5984 132.628L42.7457 132.78H42.9577V132.28ZM46.2177 132.28V132.78H46.4273L46.5743 132.63L46.2177 132.28ZM47.3577 131.12L47.7143 131.47L47.8577 131.325V131.12H47.3577ZM47.3577 127.66H47.8577V127.16H47.3577V127.66ZM42.1177 127.66L41.7557 128.005L41.9034 128.16H42.1177V127.66ZM40.0977 125.54H39.5977V125.74L39.7357 125.885L40.0977 125.54ZM40.0977 121.2L39.7343 120.856L39.5977 121.001V121.2H40.0977ZM42.1777 119V118.5H41.9623L41.8143 118.656L42.1777 119ZM47.0177 119L47.381 118.656L47.233 118.5H47.0177V119ZM49.0977 121.2H49.5977V121.001L49.461 120.856L49.0977 121.2ZM49.0977 131.8L49.461 132.144L49.5977 131.999V131.8H49.0977ZM47.0177 134V134.5H47.233L47.381 134.344L47.0177 134ZM42.1777 134L41.8143 134.344L41.9623 134.5H42.1777V134ZM40.0977 131.8H39.5977V131.999L39.7343 132.144L40.0977 131.8ZM47.3577 126.06V126.56H47.8577V126.06H47.3577ZM47.3577 121.88H47.8577V121.675L47.7143 121.53L47.3577 121.88ZM46.2177 120.72L46.5743 120.37L46.4273 120.22H46.2177V120.72ZM42.9577 120.72V120.22H42.7449L42.5974 120.373L42.9577 120.72ZM41.9377 121.78L41.5774 121.433L41.4377 121.579V121.78H41.9377ZM41.9377 124.96H41.4377V125.164L41.5809 125.31L41.9377 124.96ZM43.0177 126.06L42.6609 126.41L42.8079 126.56H43.0177V126.06ZM40.0977 129.78H41.7577V128.78H40.0977V129.78ZM41.2577 129.28V131.04H42.2577V129.28H41.2577ZM41.3984 131.388L42.5984 132.628L43.317 131.932L42.117 130.692L41.3984 131.388ZM42.9577 132.78H46.2177V131.78H42.9577V132.78ZM46.5743 132.63L47.7143 131.47L47.001 130.77L45.861 131.93L46.5743 132.63ZM47.8577 131.12V127.66H46.8577V131.12H47.8577ZM47.3577 127.16H42.1177V128.16H47.3577V127.16ZM42.4796 127.315L40.4596 125.195L39.7357 125.885L41.7557 128.005L42.4796 127.315ZM40.5977 125.54V121.2H39.5977V125.54H40.5977ZM40.461 121.544L42.541 119.344L41.8143 118.656L39.7343 120.856L40.461 121.544ZM42.1777 119.5H47.0177V118.5H42.1777V119.5ZM46.6543 119.344L48.7343 121.544L49.461 120.856L47.381 118.656L46.6543 119.344ZM48.5977 121.2V131.8H49.5977V121.2H48.5977ZM48.7343 131.456L46.6543 133.656L47.381 134.344L49.461 132.144L48.7343 131.456ZM47.0177 133.5H42.1777V134.5H47.0177V133.5ZM42.541 133.656L40.461 131.456L39.7343 132.144L41.8143 134.344L42.541 133.656ZM40.5977 131.8V129.28H39.5977V131.8H40.5977ZM47.8577 126.06V121.88H46.8577V126.06H47.8577ZM47.7143 121.53L46.5743 120.37L45.861 121.07L47.001 122.23L47.7143 121.53ZM46.2177 120.22H42.9577V121.22H46.2177V120.22ZM42.5974 120.373L41.5774 121.433L42.2979 122.127L43.3179 121.067L42.5974 120.373ZM41.4377 121.78V124.96H42.4377V121.78H41.4377ZM41.5809 125.31L42.6609 126.41L43.3744 125.71L42.2944 124.61L41.5809 125.31ZM43.0177 126.56H47.3577V125.56H43.0177V126.56ZM63.7855 134L63.4215 134.343L63.5696 134.5H63.7855V134ZM62.4855 132.62H61.9855V132.818L62.1215 132.963L62.4855 132.62ZM62.4855 126.34L62.1215 125.997L61.9855 126.142V126.34H62.4855ZM63.7855 124.96V124.46H63.5696L63.4215 124.617L63.7855 124.96ZM67.2255 124.96L67.5921 124.62L67.4437 124.46H67.2255V124.96ZM68.5055 126.34H69.0055V126.144L68.8721 126L68.5055 126.34ZM68.5055 132.62L68.8721 132.96L69.0055 132.816V132.62H68.5055ZM67.2255 134V134.5H67.4437L67.5921 134.34L67.2255 134ZM64.3855 132.64L64.0319 132.994L64.1784 133.14H64.3855V132.64ZM66.6255 132.64V133.14H66.8326L66.979 132.994L66.6255 132.64ZM67.1655 132.1L67.519 132.454L67.6655 132.307V132.1H67.1655ZM67.1655 126.86H67.6655V126.653L67.519 126.506L67.1655 126.86ZM66.6255 126.32L66.979 125.966L66.8326 125.82H66.6255V126.32ZM64.3855 126.32V125.82H64.1784L64.0319 125.966L64.3855 126.32ZM63.8455 126.86L63.4919 126.506L63.3455 126.653V126.86H63.8455ZM63.8455 132.1H63.3455V132.307L63.4919 132.454L63.8455 132.1ZM53.8055 128.04L53.4415 128.383L53.5896 128.54H53.8055V128.04ZM52.5055 126.66H52.0055V126.858L52.1415 127.003L52.5055 126.66ZM52.5055 120.38L52.1415 120.037L52.0055 120.182V120.38H52.5055ZM53.8055 119V118.5H53.5896L53.4415 118.657L53.8055 119ZM57.2455 119L57.6121 118.66L57.4637 118.5H57.2455V119ZM58.5255 120.38H59.0255V120.184L58.8921 120.04L58.5255 120.38ZM58.5255 126.66L58.8921 127L59.0255 126.856V126.66H58.5255ZM57.2455 128.04V128.54H57.4637L57.6121 128.38L57.2455 128.04ZM54.4055 126.68L54.0519 127.034L54.1984 127.18H54.4055V126.68ZM56.6455 126.68V127.18H56.8526L56.999 127.034L56.6455 126.68ZM57.1855 126.14L57.539 126.494L57.6855 126.347V126.14H57.1855ZM57.1855 120.9H57.6855V120.693L57.539 120.546L57.1855 120.9ZM56.6455 120.36L56.999 120.006L56.8526 119.86H56.6455V120.36ZM54.4055 120.36V119.86H54.1984L54.0519 120.006L54.4055 120.36ZM53.8655 120.9L53.5119 120.546L53.3655 120.693V120.9H53.8655ZM53.8655 126.14H53.3655V126.347L53.5119 126.494L53.8655 126.14ZM56.6855 134.7L56.2169 134.526L55.9657 135.2H56.6855V134.7ZM62.7855 118.32V117.82H62.4381L62.3169 118.146L62.7855 118.32ZM64.3255 118.32L64.794 118.494L65.0452 117.82H64.3255V118.32ZM58.2255 134.7V135.2H58.5728L58.694 134.874L58.2255 134.7ZM64.1494 133.657L62.8494 132.277L62.1215 132.963L63.4215 134.343L64.1494 133.657ZM62.9855 132.62V126.34H61.9855V132.62H62.9855ZM62.8494 126.683L64.1494 125.303L63.4215 124.617L62.1215 125.997L62.8494 126.683ZM63.7855 125.46H67.2255V124.46H63.7855V125.46ZM66.8589 125.3L68.1389 126.68L68.8721 126L67.5921 124.62L66.8589 125.3ZM68.0055 126.34V132.62H69.0055V126.34H68.0055ZM68.1389 132.28L66.8589 133.66L67.5921 134.34L68.8721 132.96L68.1389 132.28ZM67.2255 133.5H63.7855V134.5H67.2255V133.5ZM64.3855 133.14H66.6255V132.14H64.3855V133.14ZM66.979 132.994L67.519 132.454L66.8119 131.746L66.2719 132.286L66.979 132.994ZM67.6655 132.1V126.86H66.6655V132.1H67.6655ZM67.519 126.506L66.979 125.966L66.2719 126.674L66.8119 127.214L67.519 126.506ZM66.6255 125.82H64.3855V126.82H66.6255V125.82ZM64.0319 125.966L63.4919 126.506L64.199 127.214L64.739 126.674L64.0319 125.966ZM63.3455 126.86V132.1H64.3455V126.86H63.3455ZM63.4919 132.454L64.0319 132.994L64.739 132.286L64.199 131.746L63.4919 132.454ZM54.1694 127.697L52.8694 126.317L52.1415 127.003L53.4415 128.383L54.1694 127.697ZM53.0055 126.66V120.38H52.0055V126.66H53.0055ZM52.8694 120.723L54.1694 119.343L53.4415 118.657L52.1415 120.037L52.8694 120.723ZM53.8055 119.5H57.2455V118.5H53.8055V119.5ZM56.8789 119.34L58.1589 120.72L58.8921 120.04L57.6121 118.66L56.8789 119.34ZM58.0255 120.38V126.66H59.0255V120.38H58.0255ZM58.1589 126.32L56.8789 127.7L57.6121 128.38L58.8921 127L58.1589 126.32ZM57.2455 127.54H53.8055V128.54H57.2455V127.54ZM54.4055 127.18H56.6455V126.18H54.4055V127.18ZM56.999 127.034L57.539 126.494L56.8319 125.786L56.2919 126.326L56.999 127.034ZM57.6855 126.14V120.9H56.6855V126.14H57.6855ZM57.539 120.546L56.999 120.006L56.2919 120.714L56.8319 121.254L57.539 120.546ZM56.6455 119.86H54.4055V120.86H56.6455V119.86ZM54.0519 120.006L53.5119 120.546L54.219 121.254L54.759 120.714L54.0519 120.006ZM53.3655 120.9V126.14H54.3655V120.9H53.3655ZM53.5119 126.494L54.0519 127.034L54.759 126.326L54.219 125.786L53.5119 126.494ZM57.154 134.874L63.254 118.494L62.3169 118.146L56.2169 134.526L57.154 134.874ZM62.7855 118.82H64.3255V117.82H62.7855V118.82ZM63.8569 118.146L57.7569 134.526L58.694 134.874L64.794 118.494L63.8569 118.146ZM58.2255 134.2H56.6855V135.2H58.2255V134.2Z" fill="#F6D351"/>
<path d="M54.7157 27.0901C50.7273 19.5723 46.6693 13.1692 46.623 13.1173L44.907 10.4213L43.1911 13.1173C43.1447 13.1692 39.0867 19.5723 35.0983 27.0901C29.6027 37.4336 26.7969 44.9773 26.7969 49.5139C26.7969 60.661 34.9128 69.7343 44.8838 69.7343C54.8548 69.7343 62.9708 60.661 62.9708 49.5139C62.994 45.0032 60.2114 37.4595 54.7157 27.0901ZM44.907 65.068C37.2548 65.068 31.0172 58.0946 31.0172 49.5398C31.0172 42.9034 39.8751 26.9086 44.907 18.6131C49.9389 26.9086 58.7969 42.9034 58.7969 49.5398C58.8201 58.0946 52.5824 65.068 44.907 65.068Z" fill="#F7CE3C"/>
<path d="M50.8664 44.433L50.8201 46.7661C50.8201 47.1031 50.5418 55.1653 43.794 56.2282L41.707 56.5393L42.2867 61.1796L44.3737 60.8685C48.6635 60.1945 51.8635 57.5244 53.649 53.1433C54.9476 49.9806 54.994 46.9735 54.994 46.8439L55.0403 44.5108L50.8664 44.433Z" fill="#F7CE3C"/>
</svg>
