<svg width="91" height="138" viewBox="0 0 91 138" fill="none" xmlns="http://www.w3.org/2000/svg">
<path d="M23.0301 103H21.5901L20.8541 100.184H17.3661L16.6461 103H15.3661L18.3581 91.8H20.1181L23.0301 103ZM17.6381 99.16H20.5821L19.0941 93.512L17.6381 99.16ZM32.2721 103H30.9441V93.768L28.6081 98.008H27.8881L25.5521 93.768V103H24.2241V91.8H25.8881L28.3041 96.232L30.7201 91.8H32.2721V103ZM41.1239 103H39.6839L38.9479 100.184H35.4599L34.7399 103H33.4599L36.4519 91.8H38.2119L41.1239 103ZM35.7319 99.16H38.6759L37.1879 93.512L35.7319 99.16ZM49.1339 93.384V96.632L47.6139 98.152H46.7819L48.9259 103H47.4859L45.3739 98.152H43.6939V103H42.3179V91.8H47.5659L49.1339 93.384ZM43.6939 93.192V96.936H46.9579L47.7579 96.136V93.992L46.9579 93.192H43.6939ZM57.9234 95.368H56.5314V93.992L55.7314 93.176H53.0114L51.9874 94.2V100.552L53.0594 101.624H55.3634L56.5314 100.44V98.12H54.4674V96.984H57.9234V103H56.5954V101.736L55.3314 103H52.5634L50.6114 101.032V93.672L52.4834 91.8H56.3394L57.9234 93.384V95.368ZM66.7359 101.192L64.9119 103H61.2319L59.4239 101.192V93.528L61.1519 91.8H65.0079L66.7359 93.528V101.192ZM61.7119 93.176L60.7999 94.088V100.648L61.7599 101.624H64.3839L65.3439 100.648V94.088L64.4319 93.176H61.7119ZM75.1964 93.384V96.632L73.6764 98.152H72.8444L74.9884 103H73.5484L71.4364 98.152H69.7564V103H68.3804V91.8H73.6284L75.1964 93.384ZM69.7564 93.192V96.936H73.0204L73.8204 96.136V93.992L73.0204 93.192H69.7564Z" fill="#F5CE3E"/>
<path d="M7.08336 127.34V125.74H10.2434L11.2034 124.76V121.78L10.1634 120.72H7.10336L5.90336 121.96V123.72H4.24336V121.2L6.32336 119H10.9634L13.0434 121.2V125.34L12.0234 126.4L13.4234 127.86V131.8L11.3434 134H6.30336L4.22336 131.8V129.28H5.88336V131.04L7.10336 132.28H10.5634L11.5834 131.22V128.44L10.5034 127.34H7.08336ZM19.1312 134L17.0512 131.8V121.2L19.1312 119H24.7712L26.8512 121.2V131.8L24.7712 134H19.1312ZM19.9112 132.28H23.9712L25.1112 131.12V121.88L23.9912 120.72H19.9312L18.7912 121.88V131.12L19.9112 132.28ZM20.9512 125.3H22.9512V127.7H20.9512V125.3ZM36.8512 132.4H38.4512V120.6H36.8512V119H41.8912V120.6H40.2912V132.4H41.8912V134H36.8512V132.4ZM44.8832 119H52.8832L54.9632 121.2V124.8L53.8832 125.94L55.3632 127.48V131.8L53.2832 134H44.8832V132.4H46.2832V120.6H44.8832V119ZM48.1232 126.88V132.28H52.4832L53.6432 131.1V128.18L52.3832 126.88H48.1232ZM48.1232 120.72V125.28H52.0832L53.2432 124.1V121.9L52.1032 120.72H48.1232ZM65.9151 119H70.3551V120.6H69.1551V131.8L67.0751 134H61.6351L59.5551 131.8V120.6H58.3551V119H62.7951V120.6H61.3951V131.22L62.4151 132.28H66.2751L67.3151 131.22V120.6H65.9151V119ZM73.1598 118H75.1598V119.8L73.9598 123H73.1598V118ZM86.9645 125.72H85.3045V123.96L84.1045 122.72H81.0445L80.0045 123.78V125.74L80.9845 126.74H85.1445L87.1645 128.86V131.8L85.0845 134H80.0445L77.9645 131.8V129.28H79.6245V131.04L80.8445 132.28H84.3045L85.3245 131.22V129.44L84.3645 128.46H80.2045L78.1645 126.32V123.2L80.2445 121H84.8845L86.9645 123.2V125.72Z" fill="#F5CE3E"/>
<path d="M7.08336 127.34H6.58336V127.84H7.08336V127.34ZM7.08336 125.74V125.24H6.58336V125.74H7.08336ZM10.2434 125.74V126.24H10.4535L10.6005 126.09L10.2434 125.74ZM11.2034 124.76L11.5605 125.11L11.7034 124.964V124.76H11.2034ZM11.2034 121.78H11.7034V121.576L11.5603 121.43L11.2034 121.78ZM10.1634 120.72L10.5203 120.37L10.3733 120.22H10.1634V120.72ZM7.10336 120.72V120.22H6.89144L6.74406 120.372L7.10336 120.72ZM5.90336 121.96L5.54406 121.612L5.40336 121.758V121.96H5.90336ZM5.90336 123.72V124.22H6.40336V123.72H5.90336ZM4.24336 123.72H3.74336V124.22H4.24336V123.72ZM4.24336 121.2L3.88004 120.856L3.74336 121.001V121.2H4.24336ZM6.32336 119V118.5H6.10799L5.96004 118.656L6.32336 119ZM10.9634 119L11.3267 118.656L11.1787 118.5H10.9634V119ZM13.0434 121.2H13.5434V121.001L13.4067 120.856L13.0434 121.2ZM13.0434 125.34L13.4036 125.687L13.5434 125.541V125.34H13.0434ZM12.0234 126.4L11.6631 126.053L11.33 126.399L11.6625 126.746L12.0234 126.4ZM13.4234 127.86H13.9234V127.659L13.7843 127.514L13.4234 127.86ZM13.4234 131.8L13.7867 132.144L13.9234 131.999V131.8H13.4234ZM11.3434 134V134.5H11.5587L11.7067 134.344L11.3434 134ZM6.30336 134L5.94004 134.344L6.08799 134.5H6.30336V134ZM4.22336 131.8H3.72336V131.999L3.86004 132.144L4.22336 131.8ZM4.22336 129.28V128.78H3.72336V129.28H4.22336ZM5.88336 129.28H6.38336V128.78H5.88336V129.28ZM5.88336 131.04H5.38336V131.245L5.52694 131.391L5.88336 131.04ZM7.10336 132.28L6.74694 132.631L6.89387 132.78H7.10336V132.28ZM10.5634 132.28V132.78H10.7761L10.9236 132.627L10.5634 132.28ZM11.5834 131.22L11.9436 131.567L12.0834 131.421V131.22H11.5834ZM11.5834 128.44H12.0834V128.236L11.9401 128.09L11.5834 128.44ZM10.5034 127.34L10.8601 126.99L10.7132 126.84H10.5034V127.34ZM7.58336 127.34V125.74H6.58336V127.34H7.58336ZM7.08336 126.24H10.2434V125.24H7.08336V126.24ZM10.6005 126.09L11.5605 125.11L10.8462 124.41L9.88618 125.39L10.6005 126.09ZM11.7034 124.76V121.78H10.7034V124.76H11.7034ZM11.5603 121.43L10.5203 120.37L9.80645 121.07L10.8465 122.13L11.5603 121.43ZM10.1634 120.22H7.10336V121.22H10.1634V120.22ZM6.74406 120.372L5.54406 121.612L6.26266 122.308L7.46266 121.068L6.74406 120.372ZM5.40336 121.96V123.72H6.40336V121.96H5.40336ZM5.90336 123.22H4.24336V124.22H5.90336V123.22ZM4.74336 123.72V121.2H3.74336V123.72H4.74336ZM4.60668 121.544L6.68668 119.344L5.96004 118.656L3.88004 120.856L4.60668 121.544ZM6.32336 119.5H10.9634V118.5H6.32336V119.5ZM10.6 119.344L12.68 121.544L13.4067 120.856L11.3267 118.656L10.6 119.344ZM12.5434 121.2V125.34H13.5434V121.2H12.5434ZM12.6831 124.993L11.6631 126.053L12.3836 126.747L13.4036 125.687L12.6831 124.993ZM11.6625 126.746L13.0625 128.206L13.7843 127.514L12.3843 126.054L11.6625 126.746ZM12.9234 127.86V131.8H13.9234V127.86H12.9234ZM13.06 131.456L10.98 133.656L11.7067 134.344L13.7867 132.144L13.06 131.456ZM11.3434 133.5H6.30336V134.5H11.3434V133.5ZM6.66668 133.656L4.58668 131.456L3.86004 132.144L5.94004 134.344L6.66668 133.656ZM4.72336 131.8V129.28H3.72336V131.8H4.72336ZM4.22336 129.78H5.88336V128.78H4.22336V129.78ZM5.38336 129.28V131.04H6.38336V129.28H5.38336ZM5.52694 131.391L6.74694 132.631L7.45978 131.929L6.23978 130.689L5.52694 131.391ZM7.10336 132.78H10.5634V131.78H7.10336V132.78ZM10.9236 132.627L11.9436 131.567L11.2231 130.873L10.2031 131.933L10.9236 132.627ZM12.0834 131.22V128.44H11.0834V131.22H12.0834ZM11.9401 128.09L10.8601 126.99L10.1466 127.69L11.2266 128.79L11.9401 128.09ZM10.5034 126.84H7.08336V127.84H10.5034V126.84ZM19.1312 134L18.7678 134.344L18.9158 134.5H19.1312V134ZM17.0512 131.8H16.5512V131.999L16.6878 132.144L17.0512 131.8ZM17.0512 121.2L16.6878 120.856L16.5512 121.001V121.2H17.0512ZM19.1312 119V118.5H18.9158L18.7678 118.656L19.1312 119ZM24.7712 119L25.1345 118.656L24.9865 118.5H24.7712V119ZM26.8512 121.2H27.3512V121.001L27.2145 120.856L26.8512 121.2ZM26.8512 131.8L27.2145 132.144L27.3512 131.999V131.8H26.8512ZM24.7712 134V134.5H24.9865L25.1345 134.344L24.7712 134ZM19.9112 132.28L19.5515 132.627L19.6989 132.78H19.9112V132.28ZM23.9712 132.28V132.78H24.1808L24.3278 132.63L23.9712 132.28ZM25.1112 131.12L25.4678 131.47L25.6112 131.325V131.12H25.1112ZM25.1112 121.88H25.6112V121.678L25.4709 121.533L25.1112 121.88ZM23.9912 120.72L24.3509 120.373L24.2034 120.22H23.9912V120.72ZM19.9312 120.72V120.22H19.7215L19.5746 120.37L19.9312 120.72ZM18.7912 121.88L18.4346 121.53L18.2912 121.675V121.88H18.7912ZM18.7912 131.12H18.2912V131.322L18.4315 131.467L18.7912 131.12ZM20.9512 125.3V124.8H20.4512V125.3H20.9512ZM22.9512 125.3H23.4512V124.8H22.9512V125.3ZM22.9512 127.7V128.2H23.4512V127.7H22.9512ZM20.9512 127.7H20.4512V128.2H20.9512V127.7ZM19.4945 133.656L17.4145 131.456L16.6878 132.144L18.7678 134.344L19.4945 133.656ZM17.5512 131.8V121.2H16.5512V131.8H17.5512ZM17.4145 121.544L19.4945 119.344L18.7678 118.656L16.6878 120.856L17.4145 121.544ZM19.1312 119.5H24.7712V118.5H19.1312V119.5ZM24.4078 119.344L26.4879 121.544L27.2145 120.856L25.1345 118.656L24.4078 119.344ZM26.3512 121.2V131.8H27.3512V121.2H26.3512ZM26.4879 131.456L24.4078 133.656L25.1345 134.344L27.2145 132.144L26.4879 131.456ZM24.7712 133.5H19.1312V134.5H24.7712V133.5ZM19.9112 132.78H23.9712V131.78H19.9112V132.78ZM24.3278 132.63L25.4678 131.47L24.7546 130.77L23.6146 131.93L24.3278 132.63ZM25.6112 131.12V121.88H24.6112V131.12H25.6112ZM25.4709 121.533L24.3509 120.373L23.6315 121.067L24.7515 122.227L25.4709 121.533ZM23.9912 120.22H19.9312V121.22H23.9912V120.22ZM19.5746 120.37L18.4346 121.53L19.1478 122.23L20.2878 121.07L19.5746 120.37ZM18.2912 121.88V131.12H19.2912V121.88H18.2912ZM18.4315 131.467L19.5515 132.627L20.2709 131.933L19.1509 130.773L18.4315 131.467ZM20.9512 125.8H22.9512V124.8H20.9512V125.8ZM22.4512 125.3V127.7H23.4512V125.3H22.4512ZM22.9512 127.2H20.9512V128.2H22.9512V127.2ZM21.4512 127.7V125.3H20.4512V127.7H21.4512ZM36.8512 132.4V131.9H36.3512V132.4H36.8512ZM38.4512 132.4V132.9H38.9512V132.4H38.4512ZM38.4512 120.6H38.9512V120.1H38.4512V120.6ZM36.8512 120.6H36.3512V121.1H36.8512V120.6ZM36.8512 119V118.5H36.3512V119H36.8512ZM41.8912 119H42.3912V118.5H41.8912V119ZM41.8912 120.6V121.1H42.3912V120.6H41.8912ZM40.2912 120.6V120.1H39.7912V120.6H40.2912ZM40.2912 132.4H39.7912V132.9H40.2912V132.4ZM41.8912 132.4H42.3912V131.9H41.8912V132.4ZM41.8912 134V134.5H42.3912V134H41.8912ZM36.8512 134H36.3512V134.5H36.8512V134ZM36.8512 132.9H38.4512V131.9H36.8512V132.9ZM38.9512 132.4V120.6H37.9512V132.4H38.9512ZM38.4512 120.1H36.8512V121.1H38.4512V120.1ZM37.3512 120.6V119H36.3512V120.6H37.3512ZM36.8512 119.5H41.8912V118.5H36.8512V119.5ZM41.3912 119V120.6H42.3912V119H41.3912ZM41.8912 120.1H40.2912V121.1H41.8912V120.1ZM39.7912 120.6V132.4H40.7912V120.6H39.7912ZM40.2912 132.9H41.8912V131.9H40.2912V132.9ZM41.3912 132.4V134H42.3912V132.4H41.3912ZM41.8912 133.5H36.8512V134.5H41.8912V133.5ZM37.3512 134V132.4H36.3512V134H37.3512ZM44.8832 119V118.5H44.3832V119H44.8832ZM52.8832 119L53.2465 118.656L53.0986 118.5H52.8832V119ZM54.9632 121.2H55.4632V121.001L55.3265 120.856L54.9632 121.2ZM54.9632 124.8L55.3262 125.144L55.4632 124.999V124.8H54.9632ZM53.8832 125.94L53.5202 125.596L53.1921 125.942L53.5227 126.286L53.8832 125.94ZM55.3632 127.48H55.8632V127.279L55.7237 127.134L55.3632 127.48ZM55.3632 131.8L55.7265 132.144L55.8632 131.999V131.8H55.3632ZM53.2832 134V134.5H53.4986L53.6465 134.344L53.2832 134ZM44.8832 134H44.3832V134.5H44.8832V134ZM44.8832 132.4V131.9H44.3832V132.4H44.8832ZM46.2832 132.4V132.9H46.7832V132.4H46.2832ZM46.2832 120.6H46.7832V120.1H46.2832V120.6ZM44.8832 120.6H44.3832V121.1H44.8832V120.6ZM48.1232 126.88V126.38H47.6232V126.88H48.1232ZM48.1232 132.28H47.6232V132.78H48.1232V132.28ZM52.4832 132.28V132.78H52.6928L52.8398 132.631L52.4832 132.28ZM53.6432 131.1L53.9998 131.451L54.1432 131.305V131.1H53.6432ZM53.6432 128.18H54.1432V127.977L54.0022 127.832L53.6432 128.18ZM52.3832 126.88L52.7422 126.532L52.5949 126.38H52.3832V126.88ZM48.1232 120.72V120.22H47.6232V120.72H48.1232ZM48.1232 125.28H47.6232V125.78H48.1232V125.28ZM52.0832 125.28V125.78H52.2928L52.4398 125.631L52.0832 125.28ZM53.2432 124.1L53.5998 124.451L53.7432 124.305V124.1H53.2432ZM53.2432 121.9H53.7432V121.698L53.6028 121.553L53.2432 121.9ZM52.1032 120.72L52.4628 120.373L52.3154 120.22H52.1032V120.72ZM44.8832 119.5H52.8832V118.5H44.8832V119.5ZM52.5199 119.344L54.5999 121.544L55.3265 120.856L53.2465 118.656L52.5199 119.344ZM54.4632 121.2V124.8H55.4632V121.2H54.4632ZM54.6002 124.456L53.5202 125.596L54.2462 126.284L55.3262 125.144L54.6002 124.456ZM53.5227 126.286L55.0027 127.826L55.7237 127.134L54.2437 125.594L53.5227 126.286ZM54.8632 127.48V131.8H55.8632V127.48H54.8632ZM54.9999 131.456L52.9199 133.656L53.6465 134.344L55.7265 132.144L54.9999 131.456ZM53.2832 133.5H44.8832V134.5H53.2832V133.5ZM45.3832 134V132.4H44.3832V134H45.3832ZM44.8832 132.9H46.2832V131.9H44.8832V132.9ZM46.7832 132.4V120.6H45.7832V132.4H46.7832ZM46.2832 120.1H44.8832V121.1H46.2832V120.1ZM45.3832 120.6V119H44.3832V120.6H45.3832ZM47.6232 126.88V132.28H48.6232V126.88H47.6232ZM48.1232 132.78H52.4832V131.78H48.1232V132.78ZM52.8398 132.631L53.9998 131.451L53.2866 130.749L52.1266 131.929L52.8398 132.631ZM54.1432 131.1V128.18H53.1432V131.1H54.1432ZM54.0022 127.832L52.7422 126.532L52.0242 127.228L53.2842 128.528L54.0022 127.832ZM52.3832 126.38H48.1232V127.38H52.3832V126.38ZM47.6232 120.72V125.28H48.6232V120.72H47.6232ZM48.1232 125.78H52.0832V124.78H48.1232V125.78ZM52.4398 125.631L53.5998 124.451L52.8866 123.749L51.7266 124.929L52.4398 125.631ZM53.7432 124.1V121.9H52.7432V124.1H53.7432ZM53.6028 121.553L52.4628 120.373L51.7436 121.067L52.8836 122.247L53.6028 121.553ZM52.1032 120.22H48.1232V121.22H52.1032V120.22ZM65.9151 119V118.5H65.4151V119H65.9151ZM70.3551 119H70.8551V118.5H70.3551V119ZM70.3551 120.6V121.1H70.8551V120.6H70.3551ZM69.1551 120.6V120.1H68.6551V120.6H69.1551ZM69.1551 131.8L69.5184 132.144L69.6551 131.999V131.8H69.1551ZM67.0751 134V134.5H67.2904L67.4384 134.344L67.0751 134ZM61.6351 134L61.2718 134.344L61.4197 134.5H61.6351V134ZM59.5551 131.8H59.0551V131.999L59.1918 132.144L59.5551 131.8ZM59.5551 120.6H60.0551V120.1H59.5551V120.6ZM58.3551 120.6H57.8551V121.1H58.3551V120.6ZM58.3551 119V118.5H57.8551V119H58.3551ZM62.7951 119H63.2951V118.5H62.7951V119ZM62.7951 120.6V121.1H63.2951V120.6H62.7951ZM61.3951 120.6V120.1H60.8951V120.6H61.3951ZM61.3951 131.22H60.8951V131.421L61.0348 131.567L61.3951 131.22ZM62.4151 132.28L62.0548 132.627L62.2023 132.78H62.4151V132.28ZM66.2751 132.28V132.78H66.485L66.632 132.63L66.2751 132.28ZM67.3151 131.22L67.672 131.57L67.8151 131.424V131.22H67.3151ZM67.3151 120.6H67.8151V120.1H67.3151V120.6ZM65.9151 120.6H65.4151V121.1H65.9151V120.6ZM65.9151 119.5H70.3551V118.5H65.9151V119.5ZM69.8551 119V120.6H70.8551V119H69.8551ZM70.3551 120.1H69.1551V121.1H70.3551V120.1ZM68.6551 120.6V131.8H69.6551V120.6H68.6551ZM68.7918 131.456L66.7118 133.656L67.4384 134.344L69.5184 132.144L68.7918 131.456ZM67.0751 133.5H61.6351V134.5H67.0751V133.5ZM61.9984 133.656L59.9184 131.456L59.1918 132.144L61.2718 134.344L61.9984 133.656ZM60.0551 131.8V120.6H59.0551V131.8H60.0551ZM59.5551 120.1H58.3551V121.1H59.5551V120.1ZM58.8551 120.6V119H57.8551V120.6H58.8551ZM58.3551 119.5H62.7951V118.5H58.3551V119.5ZM62.2951 119V120.6H63.2951V119H62.2951ZM62.7951 120.1H61.3951V121.1H62.7951V120.1ZM60.8951 120.6V131.22H61.8951V120.6H60.8951ZM61.0348 131.567L62.0548 132.627L62.7754 131.933L61.7554 130.873L61.0348 131.567ZM62.4151 132.78H66.2751V131.78H62.4151V132.78ZM66.632 132.63L67.672 131.57L66.9582 130.87L65.9182 131.93L66.632 132.63ZM67.8151 131.22V120.6H66.8151V131.22H67.8151ZM67.3151 120.1H65.9151V121.1H67.3151V120.1ZM66.4151 120.6V119H65.4151V120.6H66.4151ZM73.1598 118V117.5H72.6598V118H73.1598ZM75.1598 118H75.6598V117.5H75.1598V118ZM75.1598 119.8L75.6279 119.976L75.6598 119.891V119.8H75.1598ZM73.9598 123V123.5H74.3063L74.4279 123.176L73.9598 123ZM73.1598 123H72.6598V123.5H73.1598V123ZM73.1598 118.5H75.1598V117.5H73.1598V118.5ZM74.6598 118V119.8H75.6598V118H74.6598ZM74.6916 119.624L73.4916 122.824L74.4279 123.176L75.6279 119.976L74.6916 119.624ZM73.9598 122.5H73.1598V123.5H73.9598V122.5ZM73.6598 123V118H72.6598V123H73.6598ZM86.9645 125.72V126.22H87.4645V125.72H86.9645ZM85.3045 125.72H84.8045V126.22H85.3045V125.72ZM85.3045 123.96H85.8045V123.758L85.6638 123.612L85.3045 123.96ZM84.1045 122.72L84.4638 122.372L84.3164 122.22H84.1045V122.72ZM81.0445 122.72V122.22H80.8345L80.6875 122.37L81.0445 122.72ZM80.0045 123.78L79.6476 123.43L79.5045 123.576V123.78H80.0045ZM80.0045 125.74H79.5045V125.944L79.6473 126.09L80.0045 125.74ZM80.9845 126.74L80.6273 127.09L80.7744 127.24H80.9845V126.74ZM85.1445 126.74L85.5064 126.395L85.3587 126.24H85.1445V126.74ZM87.1645 128.86H87.6645V128.66L87.5264 128.515L87.1645 128.86ZM87.1645 131.8L87.5278 132.144L87.6645 131.999V131.8H87.1645ZM85.0845 134V134.5H85.2998L85.4478 134.344L85.0845 134ZM80.0445 134L79.6811 134.344L79.8291 134.5H80.0445V134ZM77.9645 131.8H77.4645V131.999L77.6011 132.144L77.9645 131.8ZM77.9645 129.28V128.78H77.4645V129.28H77.9645ZM79.6245 129.28H80.1245V128.78H79.6245V129.28ZM79.6245 131.04H79.1245V131.245L79.268 131.391L79.6245 131.04ZM80.8445 132.28L80.488 132.631L80.635 132.78H80.8445V132.28ZM84.3045 132.28V132.78H84.5172L84.6647 132.627L84.3045 132.28ZM85.3245 131.22L85.6847 131.567L85.8245 131.421V131.22H85.3245ZM85.3245 129.44H85.8245V129.236L85.6816 129.09L85.3245 129.44ZM84.3645 128.46L84.7216 128.11L84.5746 127.96H84.3645V128.46ZM80.2045 128.46L79.8425 128.805L79.9903 128.96H80.2045V128.46ZM78.1645 126.32H77.6645V126.52L77.8025 126.665L78.1645 126.32ZM78.1645 123.2L77.8011 122.856L77.6645 123.001V123.2H78.1645ZM80.2445 121V120.5H80.0291L79.8811 120.656L80.2445 121ZM84.8845 121L85.2478 120.656L85.0998 120.5H84.8845V121ZM86.9645 123.2H87.4645V123.001L87.3278 122.856L86.9645 123.2ZM86.9645 125.22H85.3045V126.22H86.9645V125.22ZM85.8045 125.72V123.96H84.8045V125.72H85.8045ZM85.6638 123.612L84.4638 122.372L83.7452 123.068L84.9452 124.308L85.6638 123.612ZM84.1045 122.22H81.0445V123.22H84.1045V122.22ZM80.6875 122.37L79.6476 123.43L80.3614 124.13L81.4014 123.07L80.6875 122.37ZM79.5045 123.78V125.74H80.5045V123.78H79.5045ZM79.6473 126.09L80.6273 127.09L81.3416 126.39L80.3616 125.39L79.6473 126.09ZM80.9845 127.24H85.1445V126.24H80.9845V127.24ZM84.7825 127.085L86.8025 129.205L87.5264 128.515L85.5064 126.395L84.7825 127.085ZM86.6645 128.86V131.8H87.6645V128.86H86.6645ZM86.8011 131.456L84.7211 133.656L85.4478 134.344L87.5278 132.144L86.8011 131.456ZM85.0845 133.5H80.0445V134.5H85.0845V133.5ZM80.4078 133.656L78.3278 131.456L77.6011 132.144L79.6811 134.344L80.4078 133.656ZM78.4645 131.8V129.28H77.4645V131.8H78.4645ZM77.9645 129.78H79.6245V128.78H77.9645V129.78ZM79.1245 129.28V131.04H80.1245V129.28H79.1245ZM79.268 131.391L80.488 132.631L81.2009 131.929L79.9809 130.689L79.268 131.391ZM80.8445 132.78H84.3045V131.78H80.8445V132.78ZM84.6647 132.627L85.6847 131.567L84.9642 130.873L83.9442 131.933L84.6647 132.627ZM85.8245 131.22V129.44H84.8245V131.22H85.8245ZM85.6816 129.09L84.7216 128.11L84.0073 128.81L84.9673 129.79L85.6816 129.09ZM84.3645 127.96H80.2045V128.96H84.3645V127.96ZM80.5664 128.115L78.5264 125.975L77.8025 126.665L79.8425 128.805L80.5664 128.115ZM78.6645 126.32V123.2H77.6645V126.32H78.6645ZM78.5278 123.544L80.6078 121.344L79.8811 120.656L77.8011 122.856L78.5278 123.544ZM80.2445 121.5H84.8845V120.5H80.2445V121.5ZM84.5211 121.344L86.6011 123.544L87.3278 122.856L85.2478 120.656L84.5211 121.344ZM86.4645 123.2V125.72H87.4645V123.2H86.4645Z" fill="#F5CE3E"/>
<path d="M62.8782 32.1451C63.2492 30.1231 64.3622 22.009 60.1187 15.917C57.0811 11.5619 52.0956 9.33244 45.3477 9.30652H45.1158C44.9072 9.30652 44.6985 9.30652 44.4898 9.30652H43.4927V9.33244C37.5564 9.6176 33.1043 11.7433 30.2521 15.7096C25.3825 22.5016 27.284 31.9378 27.3767 32.3525L27.5159 33.0265C25.7999 39.3 29.0927 45.8328 29.255 46.1438L29.997 47.5956L31.4811 47.3104C31.8289 47.2586 32.1535 47.1808 32.4782 47.103C31.226 50.2398 30.368 54.8541 32.4318 60.4536L33.0347 62.1127L34.6347 61.9313C34.7738 61.9053 36.0724 61.7498 37.7651 61.1795C38.4144 64.4977 40.2695 67.79 43.0753 70.486L44.0028 71.3934L45.1622 70.9527C45.3941 70.8749 51.0521 68.7232 52.8144 61.9572L52.8376 61.9053C53.8115 62.2164 54.484 62.3461 54.5767 62.3461L56.2463 62.6312L56.8956 60.8684C59.0057 55.0875 58.6115 51.0175 57.5912 48.3473C58.4724 48.7103 59.0521 48.8917 59.1448 48.9177L60.6984 49.3843L61.5564 47.8548C64.5709 42.5146 65.0115 36.9928 62.8782 32.1451ZM33.6376 18.6908C35.8637 15.6059 39.713 14.0505 45.1158 14.1283H45.8347C50.9129 14.2579 54.5767 15.8392 56.6869 18.8464C59.1448 22.3201 59.0984 27.0641 58.8434 29.6046C58.797 29.6046 58.7274 29.6046 58.6811 29.6046C58.4724 29.6046 58.2405 29.6046 58.0318 29.5787C57.939 29.5787 57.8463 29.5787 57.7535 29.5528C57.568 29.5528 57.4057 29.5269 57.2202 29.5009C57.1506 29.5009 57.0811 29.5009 57.0115 29.475C56.7796 29.4491 56.5709 29.4232 56.3622 29.3972C56.2927 29.3972 56.2231 29.3713 56.1535 29.3713C55.9448 29.3454 55.7129 29.2936 55.5043 29.2676C55.4579 29.2676 55.3883 29.2417 55.3419 29.2417C55.1332 29.1899 54.9245 29.1639 54.739 29.1121C54.7158 29.1121 54.6927 29.1121 54.6695 29.0862C54.4608 29.0343 54.2521 28.9565 54.0434 28.9047C53.997 28.8788 53.9506 28.8788 53.9042 28.8529C53.6956 28.7751 53.51 28.7232 53.3014 28.6455C53.255 28.6195 53.2318 28.6195 53.1854 28.5936C52.9767 28.5159 52.7912 28.4381 52.5825 28.3344L50.5419 27.3752L49.7303 29.6824C49.3593 30.7453 48.8028 31.8341 48.0608 32.8969L48.0144 32.9488C47.968 33.0265 47.9216 33.0784 47.8753 33.1562L47.8521 33.1821C47.7593 33.2858 47.6898 33.4154 47.597 33.5191C47.597 33.5191 47.597 33.5191 47.5738 33.545C47.4811 33.6487 47.4115 33.7783 47.3187 33.882L47.2956 33.9079C47.2028 34.0116 47.1101 34.1413 47.0405 34.2449L47.0173 34.2709C46.9245 34.3746 46.8318 34.5042 46.739 34.6079C46.739 34.6079 46.739 34.6338 46.7158 34.6338C46.6231 34.7375 46.5072 34.8671 46.4144 34.9708C46.0898 35.3337 45.7651 35.6707 45.4173 36.0337C44.6985 35.2819 43.7477 34.219 42.913 32.871C42.913 32.8451 42.8898 32.8451 42.8898 32.8192C42.797 32.6895 42.7274 32.5599 42.6347 32.4044C42.6115 32.3525 42.5883 32.3266 42.5651 32.2748C42.4956 32.1711 42.4492 32.0674 42.3796 31.9637C42.3564 31.9118 42.3101 31.8341 42.2869 31.7822C42.2405 31.6785 42.1941 31.6007 42.1477 31.4971C42.1014 31.4193 42.0782 31.3674 42.055 31.2897C42.0086 31.186 41.9622 31.1082 41.9158 31.0045C41.8927 30.9267 41.8463 30.8749 41.8231 30.7971C41.7767 30.6934 41.7303 30.6157 41.7072 30.512C41.684 30.4342 41.6608 30.3823 41.6144 30.3046C41.568 30.2009 41.5216 30.0972 41.4985 29.9676C41.4753 29.9157 41.4521 29.8639 41.4289 29.7861C41.3593 29.6046 41.313 29.4491 41.2666 29.2676L40.455 26.7012L38.2521 27.8937C38.0434 27.9974 37.8347 28.127 37.6028 28.2048C37.5796 28.2048 37.5564 28.2307 37.5332 28.2307C37.3245 28.3344 37.0927 28.4122 36.884 28.4899C36.8376 28.5159 36.8144 28.5158 36.768 28.5418C36.5361 28.6195 36.3043 28.6973 36.0724 28.7751C36.026 28.7751 36.0028 28.801 35.9564 28.801C35.7245 28.8788 35.4695 28.9306 35.2144 28.9825C35.1912 28.9825 35.168 28.9825 35.1448 29.0084C34.8898 29.0602 34.6115 29.1121 34.3564 29.1639C34.3332 29.1639 34.3101 29.1639 34.3101 29.1639C34.0318 29.2158 33.7535 29.2417 33.4753 29.2676C33.4289 29.2676 33.4057 29.2676 33.3593 29.2676C33.0811 29.2936 32.8028 29.3195 32.5014 29.3195C32.455 29.3195 32.4086 29.3195 32.3622 29.3195C32.0608 29.3195 31.7825 29.3454 31.4811 29.3454C31.4347 29.3454 31.4115 29.3454 31.3651 29.3454C31.1332 26.8827 31.1564 22.1646 33.6376 18.6908ZM45.4637 49.2806C44.8608 48.5547 44.1419 47.5437 43.5854 46.3253C42.5651 44.1477 42.3101 42.0479 42.8434 39.9481C43.6318 40.7258 44.1883 41.1665 44.2347 41.2184L44.4898 41.4258L45.5332 42.2553L46.7854 41.1406C47.0405 40.9073 47.2956 40.6999 47.5274 40.4666C47.5738 40.4147 47.6202 40.3888 47.6666 40.337C47.8985 40.1296 48.1303 39.8963 48.339 39.6889C48.3622 39.663 48.3854 39.663 48.3854 39.637C48.7101 40.5444 49.1274 41.3998 49.6608 42.2294C49.5216 44.4847 48.1072 46.8697 45.4637 49.2806ZM31.6898 34.2709C31.968 34.2709 32.2463 34.2709 32.5014 34.2449C32.5477 34.2449 32.5941 34.2449 32.6405 34.2449C32.8956 34.2449 33.1506 34.219 33.3825 34.1931H33.4057C33.6608 34.1672 33.9159 34.1413 34.1709 34.1153C34.2173 34.1153 34.2637 34.1153 34.3101 34.0894C34.5419 34.0635 34.797 34.0376 35.0289 33.9857H35.0521C35.284 33.9339 35.539 33.9079 35.7709 33.8561C35.8173 33.8561 35.8637 33.8302 35.9101 33.8302C36.1419 33.7783 36.3738 33.7265 36.6057 33.6746C36.8376 33.6228 37.0463 33.545 37.2782 33.4932C37.3245 33.4672 37.3709 33.4672 37.4173 33.4413C37.626 33.3635 37.8579 33.3117 38.0666 33.2339C38.0666 33.2339 38.0666 33.2599 38.0898 33.2599C38.2057 33.5191 38.3216 33.7783 38.4608 34.0116C38.484 34.0376 38.5072 34.0894 38.5072 34.1153C38.6231 34.3486 38.7622 34.6079 38.9014 34.8412C38.9245 34.8671 38.9477 34.919 38.9477 34.9449C38.5535 37.8483 37.255 40.7518 32.3622 42.1516C31.6898 40.3111 30.855 37.1225 31.6898 34.2709ZM38.6231 45.418C38.8782 46.5327 39.2724 47.6215 39.8057 48.7103C40.4086 49.9546 41.1043 51.0175 41.7535 51.8989L41.4985 52.547C40.5477 54.9319 37.8579 56.2022 35.8869 56.7466C34.5651 51.0434 37.255 47.0252 38.6231 45.418ZM48.6869 60.6092C47.9448 63.4348 46.1129 65.0162 44.9303 65.7679C43.284 63.8755 42.2405 61.7757 41.939 59.7278L41.8463 59.0797C43.0057 58.2242 44.0956 57.1095 44.9072 55.6837C45.9043 57.602 47.3651 58.976 48.8492 59.987L48.6869 60.6092ZM53.5332 57.0836C51.8637 56.4873 49.4289 55.2171 48.4318 52.8062C50.055 51.3026 51.3071 49.7472 52.2347 48.1659L52.3043 48.2177C52.3043 48.2177 53.0695 48.8399 53.6028 50.162C54.2985 51.9766 54.2753 54.3357 53.5332 57.0836ZM58.7274 43.6552C57.2434 43.0071 55.0637 41.8146 53.6724 40.0259C53.51 39.637 53.3477 39.326 53.2318 39.0408C52.5129 37.4854 52.5129 37.4854 52.0724 35.3337L52.026 35.1004L52.0492 35.0745C52.1883 34.8671 52.3043 34.6597 52.4202 34.4523C52.4434 34.4005 52.4898 34.3486 52.5129 34.2709C52.6289 34.0635 52.7448 33.8302 52.8608 33.6228C52.884 33.6228 52.9072 33.6487 52.9535 33.6487C53.1854 33.7265 53.4173 33.7783 53.6492 33.8561C53.7651 33.882 53.8579 33.9079 53.9738 33.9339C54.1361 33.9857 54.2985 34.0116 54.484 34.0376C54.5999 34.0635 54.739 34.0894 54.855 34.1153C55.0173 34.1413 55.1796 34.1672 55.3419 34.1931C55.4811 34.219 55.597 34.2449 55.7361 34.2449C55.8985 34.2709 56.084 34.2968 56.2463 34.3227C56.4782 34.3486 56.7332 34.3746 56.9651 34.4005C57.1274 34.4264 57.2898 34.4264 57.4521 34.4523C57.6144 34.4523 57.7999 34.4783 57.9622 34.4783C58.1013 34.4783 58.2405 34.4783 58.3796 34.5042C58.5651 34.5042 58.7274 34.5042 58.9129 34.5042C58.9593 34.5042 59.0289 34.5042 59.0753 34.5042C60.2811 37.3039 60.1419 40.3888 58.7274 43.6552Z" fill="#F5CE3E"/>
</svg>
