<svg width="32" height="32" viewBox="0 0 32 32" fill="none" xmlns="http://www.w3.org/2000/svg">
<path fill-rule="evenodd" clip-rule="evenodd" d="M16 5.2832C18.8969 5.2832 19.2601 5.29541 20.3978 5.34704C21.5332 5.39854 22.3086 5.57788 22.9871 5.84013C23.6885 6.11118 24.2833 6.4739 24.8764 7.06363C25.4694 7.65339 25.8341 8.24497 26.1067 8.94254C26.3703 9.61728 26.5507 10.3884 26.6025 11.5175C26.6544 12.649 26.6666 13.0102 26.6666 15.8912C26.6666 18.7721 26.6544 19.1333 26.6025 20.2648C26.5507 21.3939 26.3703 22.165 26.1067 22.8397C25.8341 23.5373 25.4694 24.1289 24.8764 24.7187C24.2833 25.3084 23.6885 25.6711 22.9871 25.9422C22.3086 26.2044 21.5332 26.3837 20.3978 26.4352C19.2601 26.4869 18.8969 26.4991 16 26.4991C13.1031 26.4991 12.7398 26.4869 11.6021 26.4352C10.4668 26.3837 9.69139 26.2044 9.01291 25.9422C8.31148 25.6711 7.71663 25.3084 7.12359 24.7187C6.5306 24.1289 6.16587 23.5373 5.89332 22.8397C5.62962 22.165 5.44929 21.3939 5.3975 20.2648C5.34559 19.1333 5.33331 18.7721 5.33331 15.8912C5.33331 13.0102 5.34559 12.649 5.3975 11.5175C5.44929 10.3884 5.62962 9.61728 5.89332 8.94254C6.16587 8.24497 6.5306 7.65339 7.12359 7.06363C7.71663 6.4739 8.31148 6.11118 9.01291 5.84013C9.69139 5.57788 10.4668 5.39854 11.6021 5.34704C12.7398 5.29541 13.1031 5.2832 16 5.2832ZM16 7.19454C13.1519 7.19454 12.8145 7.20536 11.6897 7.2564C10.6497 7.30356 10.0849 7.47637 9.70908 7.62164C9.21119 7.81408 8.85586 8.04395 8.48262 8.41517C8.10934 8.78636 7.8782 9.13973 7.6847 9.63488C7.53862 10.0087 7.36485 10.5704 7.31743 11.6046C7.26611 12.7232 7.25523 13.0587 7.25523 15.8912C7.25523 18.7236 7.26611 19.0591 7.31743 20.1777C7.36485 21.2119 7.53862 21.7736 7.6847 22.1474C7.8782 22.6425 8.10938 22.9959 8.48262 23.3671C8.85586 23.7383 9.21119 23.9682 9.70908 24.1606C10.0849 24.3059 10.6497 24.4787 11.6897 24.5259C12.8144 24.5769 13.1517 24.5877 16 24.5877C18.8483 24.5877 19.1856 24.5769 20.3102 24.5259C21.3502 24.4787 21.915 24.3059 22.2909 24.1606C22.7888 23.9682 23.1441 23.7383 23.5173 23.3671C23.8906 22.9959 24.1218 22.6425 24.3153 22.1474C24.4613 21.7736 24.6351 21.2119 24.6825 20.1777C24.7338 19.0591 24.7447 18.7236 24.7447 15.8912C24.7447 13.0587 24.7338 12.7232 24.6825 11.6046C24.6351 10.5704 24.4613 10.0087 24.3153 9.63488C24.1218 9.13973 23.8906 8.78636 23.5173 8.41517C23.1441 8.04395 22.7888 7.81408 22.2909 7.62164C21.915 7.47637 21.3502 7.30356 20.3102 7.2564C19.1855 7.20536 18.8481 7.19454 16 7.19454ZM16 10.4438C19.0251 10.4438 21.4775 12.8827 21.4775 15.8912C21.4775 18.8996 19.0251 21.3385 16 21.3385C12.9748 21.3385 10.5225 18.8996 10.5225 15.8912C10.5225 12.8827 12.9748 10.4438 16 10.4438ZM16 19.4271C17.9637 19.4271 19.5555 17.844 19.5555 15.8912C19.5555 13.9383 17.9637 12.3552 16 12.3552C14.0363 12.3552 12.4444 13.9383 12.4444 15.8912C12.4444 17.844 14.0363 19.4271 16 19.4271ZM22.9739 10.2286C22.9739 10.9316 22.4008 11.5015 21.6939 11.5015C20.987 11.5015 20.4139 10.9316 20.4139 10.2286C20.4139 9.52557 20.987 8.95563 21.6939 8.95563C22.4008 8.95563 22.9739 9.52557 22.9739 10.2286Z" fill="#F6D351"/>
</svg>
