<svg width="74" height="125" viewBox="0 0 74 125" fill="none" xmlns="http://www.w3.org/2000/svg">
<path d="M3.12 2H7.392V3.28H6.656L9.472 12.72H10.272V14H6.88V12.72H8L7.264 10.256H3.248L2.512 12.72H3.632V14H0.24V12.72H1.04L3.856 3.28H3.12V2ZM5.248 3.52L3.632 8.976H6.88L5.248 3.52ZM11.7956 3.6H18.1956L19.8596 5.36V8.56L18.2436 10.256L19.7316 12.72H20.5796V14H17.7316V12.72H18.1796L16.7396 10.32H14.3876V12.72H15.3476V14H11.7956V12.72H12.9156V4.88H11.7956V3.6ZM14.3876 4.976V8.944H17.5556L18.4836 8V5.92L17.5716 4.976H14.3876ZM22.9831 3.6H29.3831L31.0471 5.36V8.56L29.4311 10.256L30.9191 12.72H31.7671V14H28.9191V12.72H29.3671L27.9271 10.32H25.5751V12.72H26.5351V14H22.9831V12.72H24.1031V4.88H22.9831V3.6ZM25.5751 4.976V8.944H28.7431L29.6711 8V5.92L28.7591 4.976H25.5751ZM39.7706 14V12.72H40.8266L40.1386 10.736H36.1386L35.4506 12.72H36.5226V14H33.1306V12.72H33.9786L36.6826 4.88H36.0106V3.6H40.2826V4.88H39.5946L42.2986 12.72H43.1626V14H39.7706ZM38.1386 4.928L36.5706 9.456H39.7066L38.1386 4.928ZM51.7263 7.376H50.3983V5.968L49.4383 4.976H46.9903L46.1583 5.824V7.392L46.9423 8.192H50.2703L51.8863 9.888V12.24L50.2223 14H46.1903L44.5263 12.24V10.224H45.8543V11.632L46.8303 12.624H49.5983L50.4143 11.776V10.352L49.6463 9.568H46.3183L44.6863 7.856V5.36L46.3503 3.6H50.0623L51.7263 5.36V7.376ZM59.976 14H55.304V12.72H56.904V4.88H54.696V6.736H53.48V3.6H61.8V6.736H60.584V4.88H58.376V12.72H59.976V14ZM63.5613 3.6H71.1773V6.736H69.8973V4.88H66.1533V8.16H69.8973V9.44H66.1533V12.72H69.8973V10.864H71.1773V14H63.5613V12.72H64.6813V4.88H63.5613V3.6Z" fill="#F6D351"/>
<path fill-rule="evenodd" clip-rule="evenodd" d="M68 53.0001L68 93.0263C68 101.298 64.7747 109.083 58.9158 114.942C53.0685 120.789 45.2721 124.026 37 124.026C28.7279 124.026 20.9431 120.789 15.0842 114.942C9.2253 109.095 6 101.31 6 93.0262L6 53C6 44.7279 9.2253 36.9431 15.0842 31.0842C20.9315 25.2253 28.7163 22 37 22C45.2837 22.0001 53.0685 25.2254 58.9158 31.0843C64.7747 36.9316 68 44.7164 68 53.0001ZM37 24.3204C21.1868 24.3204 8.32036 37.1868 8.32036 53L8.32036 93.0262C8.32036 108.839 21.1868 121.706 37 121.706C52.8132 121.706 65.6796 108.84 65.6796 93.0263L65.6796 53.0001C65.6796 37.1868 52.8132 24.3204 37 24.3204ZM63.3713 92.9223L63.3713 53.0702C63.3713 46.0279 60.6333 39.4032 55.6445 34.426C50.6673 29.4488 44.0427 26.6991 37.0004 26.699C29.9581 26.6989 23.3335 29.4369 18.3563 34.4256C13.3791 39.4027 10.6295 46.0273 10.6295 53.0696L10.6295 92.9218C10.6295 99.9641 13.3675 106.589 18.3563 111.566C23.3335 116.543 29.9581 119.293 37.0004 119.293C44.0427 119.293 50.6673 116.555 55.6445 111.566C60.6333 106.589 63.3713 99.9762 63.3713 92.9223ZM12.9499 53.0696C12.9499 39.8088 23.7395 29.0192 37.0004 29.0194C50.2613 29.0195 61.0509 39.8093 61.0509 53.0701L61.0509 92.9223C61.0509 106.183 50.2613 116.973 37.0004 116.973C23.7395 116.972 12.9499 106.183 12.9499 92.9218L12.9499 53.0696ZM58.6951 92.9223L58.6951 53.2094C58.6951 41.2363 48.9496 31.4907 36.9765 31.4906C25.0034 31.4905 15.2579 41.2359 15.2579 53.2089L15.2579 92.9219C15.2579 104.895 25.0034 114.641 36.9765 114.641C48.9496 114.641 58.6951 104.895 58.6951 92.9223ZM17.5899 53.2089C17.5899 42.5121 26.2912 33.8108 36.9881 33.8109C47.685 33.8111 56.3863 42.5125 56.3863 53.2094L56.3863 92.9223C56.3863 103.619 47.685 112.32 36.9881 112.32C26.2912 112.32 17.5899 103.619 17.5899 92.9219L17.5899 53.2089Z" fill="#F7CE3C"/>
</svg>
