<svg width="132" height="56" viewBox="0 0 132 56" fill="none" xmlns="http://www.w3.org/2000/svg">
<path d="M83.5823 16.9501L84.8199 15.9741L86.0575 16.9501V24.5712H83.5823V16.9501ZM77.9307 17.5731V18.2584V23.3045L75.4143 25.8171H77.9307V27.5615V35.4317V35.9924L80.7565 38.1936L83.5823 35.9924V34.8295V27.8937V25.8171H84.8199H86.0575V27.8937V34.8503V36.0339L88.8833 38.2143L91.709 36.117V35.4525V27.5615V25.8171H94.2254L91.6884 23.3045V18.2584V17.5523L84.8199 12.1324L77.9307 17.5731Z" fill="#020202"/>
<path d="M17.1862 32.2545C16.5262 32.8567 15.6187 33.459 13.8035 32.9813C13.061 32.7321 10.0289 31.4654 10.0289 31.4654L12.2359 29.7419V12.0909L6.58436 16.784V17.49V30.8217L3.1604 33.5212L14.6698 38.1936L18.4857 35.224V30.0534C18.4857 30.0534 17.97 31.5485 17.1862 32.2545Z" fill="#020202"/>
<path d="M27.5412 16.9501L28.7787 15.9741L30.0163 16.9501V24.5712H27.5412V16.9501ZM21.9102 17.5731V18.2584V23.3045L19.3938 25.8171H21.9102V27.5615V35.4317V35.9924L24.736 38.1936L27.5618 35.9924V34.8295V27.8937V25.8171H28.7994H30.0369V27.8937V34.8503V36.0339L32.8627 38.2143L35.6885 36.117V35.4525V27.5615V25.8171H38.2049L35.6679 23.3045V18.2584V17.5523L28.7787 12.1324L21.9102 17.5731Z" fill="#020202"/>
<path d="M67.6996 23.0137L74.1143 18.0299L65.08 12.0909L59.3459 14.7074V35.1825L65.0388 39.128C65.0388 39.128 73.2893 35.1825 73.7224 34.9749L73.7018 28.4336L67.6996 23.0137ZM67.6377 33.3967L65.1832 31.4654V24.405L67.6377 26.3155V33.3967ZM65.1832 21.7886V17.407L68.3596 19.3174L65.1832 21.7886Z" fill="#020202"/>
<path d="M107.344 32.7736L101.795 27.9144V17.4277C101.795 17.4277 104.745 17.22 106.745 19.525C107.983 20.8333 108.746 22.806 108.746 22.806V15.9741L103.858 12.1531L96.1642 18.0922V18.819V18.8813V19.1512L96.1229 31.6315L104.58 38.2143L108.808 34.8917V30.8216L107.344 32.7736Z" fill="#020202"/>
<path d="M49.2809 14.2713V14.832V22.4323V29.1189L48.0434 30.0741L46.8058 29.1189V22.4323V20.8125V14.1259L43.98 12.1117L41.1542 14.2298V14.832H41.1748V29.7626V30.3233L45.527 33.7081L49.2809 30.8009V38.3389L43.4025 33.7081L38.4934 37.529L39.3185 38.1728L44.3925 42.139L45.4651 42.9697L54.9119 35.5978V25.1526V22.7438V16.5763V14.832V14.1675L52.1067 12.1117L49.2809 14.2713Z" fill="#020202"/>
<path d="M112.851 14.3543V34.954V35.4109V36.0338L115.656 38.2143L118.482 36.0131V35.4109V28.2882L118.936 27.9352L122.03 30.3232L121.989 38.9618L117.966 42.1182L119.348 43.1981L127.681 36.7191V28.4335L122.979 24.7995L127.454 21.2901L126.877 20.8956L123.061 17.926L118.482 21.4978V15.2888V14.3543L115.656 12.1531L112.851 14.3543Z" fill="#020202"/>
</svg>
