<svg width="431" height="192" fill="none" xmlns="http://www.w3.org/2000/svg"><path fill-rule="evenodd" clip-rule="evenodd" d="M-10 71.88c.407-.004.814-.006 1.222-.006h245.78c66.202 0 120.053 53.852 120.053 120.054V192h14.361c0-74.1-60.314-134.415-134.414-134.415H-8.778c-.408 0-.815.002-1.222.006v14.29zm0-28.864c.407-.003.814-.005 1.221-.005h246.642c82.07 0 148.846 66.776 148.846 148.846V192h14.361v-.143c0-43.584-17.017-84.583-47.821-115.386-30.803-30.875-71.802-47.82-115.386-47.82H-8.779c-.407 0-.814 0-1.221.004v14.36zm0-28.655l.575-.001h247.718c97.867 0 177.496 79.629 177.496 177.496V192h14.36v-.144c0-51.267-19.961-99.447-56.221-135.635C337.74 19.96 289.56-.001 238.293-.001H-9.425L-10 0v14.36z" fill="#F6D351"/></svg>