<svg width="348" height="826" fill="none" xmlns="http://www.w3.org/2000/svg"><path fill-rule="evenodd" clip-rule="evenodd" d="M212.853 825.16c.007-.762.011-1.525.011-2.288V362.101c0-124.11-100.806-225.068-224.731-225.068H-12v-26.922c138.709.001 251.612 113.073 251.612 251.99v460.771c0 .763-.004 1.526-.011 2.288h-26.748zm54.034 0c.006-.762.009-1.525.009-2.288V360.486c0-153.859-125-279.047-278.63-279.047H-12V54.517h.267c81.586 0 158.333 31.903 215.995 89.65 57.795 57.748 89.516 134.611 89.516 216.319v462.386c0 .763-.003 1.525-.009 2.288h-26.882zm53.638 0l.002-1.077V359.678c0-183.473-149.06-332.756-332.259-332.756H-12V0h.268c95.968 0 186.156 37.422 253.898 105.4 67.877 67.843 105.242 158.167 105.242 254.278v464.405l-.001 1.077h-26.882z" fill="#F5CE3E"/></svg>