<svg width="293" height="130" fill="none" xmlns="http://www.w3.org/2000/svg"><path d="M292.346 45.71a85.004 85.004 0 00-.815-.005H128.285c-43.971 0-79.74 34.244-79.74 76.342 0 2.549.131 5.069.388 7.555h-9.584a82.5 82.5 0 01-.342-7.51c0-47.12 40.06-85.473 89.278-85.473h163.246c.272 0 .544.001.815.004v9.086z" fill="#121212"/><path d="M292.346 27.354l-.807-.003H127.72c-54.51 0-98.863 42.462-98.863 94.65 0 2.558.106 5.093.315 7.601h-9.57a101.63 101.63 0 01-.284-7.601c0-27.715 11.303-53.786 31.763-73.374C71.54 28.994 98.77 18.22 127.72 18.22h163.819c.269 0 .538 0 .807.003v9.132z" fill="#121212"/><path d="M292.346 9.132H127.431C62.428 9.132 9.538 59.767 9.538 122c0 2.554.09 5.089.265 7.602H.242C.082 127.082 0 124.547 0 122c0-32.6 13.258-63.237 37.342-86.25C61.38 12.694 93.38 0 127.431 0h164.915v9.132z" fill="#121212"/></svg>