<svg width="303" height="305" fill="none" xmlns="http://www.w3.org/2000/svg"><path fill-rule="evenodd" clip-rule="evenodd" d="M302.771 346.849V151.385c0-40.395-15.751-78.412-44.362-107.023C229.854 15.807 191.781 0 151.385 0S72.973 15.807 44.362 44.362C15.75 72.917 0 110.933 0 151.385v195.464c0 40.396 15.75 78.412 44.362 107.024 28.554 28.611 66.571 44.362 107.023 44.362 40.453 0 78.469-15.751 107.024-44.362 28.611-28.555 44.362-66.571 44.362-107.024zM151.385 486.903c-77.222 0-140.054-62.831-140.054-140.054V151.385c0-77.222 62.832-140.054 140.054-140.054 77.223 0 140.054 62.832 140.054 140.054l.001 195.464c0 77.223-62.832 140.054-140.055 140.054zm128.78-335.008v194.614c0 34.391-13.371 66.741-37.733 91.047-24.305 24.305-56.656 37.733-91.047 37.733-34.39 0-66.74-13.371-91.046-37.733-24.306-24.306-37.733-56.656-37.733-91.047V151.895c0-34.39 13.37-66.74 37.733-91.046 24.305-24.306 56.656-37.733 91.046-37.733 34.391 0 66.741 13.37 91.047 37.733 24.362 24.305 37.733 56.599 37.733 91.046zM33.937 346.509c0 64.758 52.69 117.449 117.448 117.449 64.759 0 117.449-52.691 117.449-117.449V151.895c0-64.758-52.69-117.448-117.449-117.448-64.757 0-117.448 52.69-117.448 117.448v194.614zm223.395-194.614v193.934c0 58.47-47.591 106.061-106.06 106.061-58.47 0-106.06-47.591-106.06-106.061V151.895c0-58.469 47.59-106.06 106.06-106.06 58.469 0 106.06 47.591 106.06 106.06zM56.599 345.829c0 52.237 42.492 94.73 94.73 94.73 52.237 0 94.729-42.493 94.729-94.73V151.895c0-52.237-42.492-94.729-94.729-94.729-52.238 0-94.73 42.492-94.73 94.729v193.934z" fill="#121212"/></svg>