<svg width="293" height="130" fill="none" xmlns="http://www.w3.org/2000/svg"><path d="M0 45.71c.271-.004.543-.005.815-.005h163.247c43.971 0 79.739 34.244 79.739 76.342a73.73 73.73 0 01-.387 7.555h9.583c.227-2.475.342-4.98.342-7.51 0-47.12-40.06-85.473-89.277-85.473H.815c-.272 0-.544.001-.815.004v9.086z" fill="#121212"/><path d="M0 27.354l.807-.003h163.819c54.511 0 98.863 42.462 98.863 94.65 0 2.558-.106 5.093-.315 7.601h9.57c.188-2.518.284-5.052.284-7.601 0-27.715-11.303-53.786-31.763-73.374-20.459-19.633-47.691-30.408-76.639-30.408H.807c-.269 0-.538 0-.807.003v9.132z" fill="#121212"/><path d="M0 9.132h164.916c65.002 0 117.892 50.635 117.892 112.868a108.8 108.8 0 01-.265 7.602h9.561c.161-2.52.242-5.055.242-7.602 0-32.6-13.258-63.237-37.342-86.25C230.968 12.694 198.967 0 164.916 0H0v9.132z" fill="#121212"/></svg>