<svg width="807" height="496" fill="none" xmlns="http://www.w3.org/2000/svg"><path fill-rule="evenodd" clip-rule="evenodd" d="M247.808 0h302.876v18.549H247.808c-126.408 0-229.26 102.851-229.26 229.259 0 126.408 102.852 229.259 229.26 229.259h297.85v-.099H821v18.549H550.684v.099H247.808c-66.218 0-128.448-25.783-175.19-72.617C25.781 376.256 0 314.026 0 247.808S25.782 119.36 72.617 72.618C119.452 25.781 181.683 0 247.808 0zm.557 37.005h302.319v18.548H248.365c-106.005 0-192.256 86.251-192.256 192.255 0 106.005 86.251 192.256 192.256 192.256h297.293v-.1H821v18.549H550.684v.099H248.365c-56.295 0-109.251-21.887-149.038-61.766-39.786-39.787-61.766-92.743-61.766-149.038 0-56.294 21.887-109.25 61.766-149.037 39.787-39.786 92.743-61.766 149.038-61.766zm1.112 37.003h301.207V92.65H249.477c-85.509 0-155.065 69.556-155.065 155.065S163.968 402.78 249.477 402.78h296.181v-.099H821v18.456H550.684v.099H249.477c-95.71 0-173.614-77.904-173.614-173.614 0-95.71 77.904-173.614 173.614-173.614z" fill="#F5CE3E"/></svg>