<svg width="360" height="320" fill="none" xmlns="http://www.w3.org/2000/svg"><mask id="mask0" maskUnits="userSpaceOnUse" x="-1" y="0" width="361" height="320"><path fill="#F6D351" d="M-1 0h361v320H-1z"/></mask><g mask="url(#mask0)"><path fill-rule="evenodd" clip-rule="evenodd" d="M330.771 361.849V166.385c0-40.395-15.751-78.412-44.362-107.023C257.854 30.807 219.781 15 179.385 15S100.973 30.807 72.362 59.362C43.75 87.917 28 125.933 28 166.385v195.464c0 40.396 15.75 78.412 44.362 107.024 28.555 28.611 66.571 44.362 107.023 44.362 40.453 0 78.469-15.751 107.024-44.362 28.611-28.555 44.362-66.571 44.362-107.024zM179.385 501.903c-77.222 0-140.054-62.831-140.054-140.054V166.385c0-77.222 62.832-140.054 140.054-140.054 77.223 0 140.054 62.832 140.054 140.054l.001 195.464c0 77.223-62.832 140.054-140.055 140.054zm128.78-335.008v194.614c0 34.391-13.371 66.741-37.733 91.047-24.305 24.305-56.656 37.733-91.047 37.733-34.39 0-66.74-13.371-91.046-37.733-24.305-24.306-37.733-56.656-37.733-91.047V166.895c0-34.39 13.37-66.741 37.733-91.046 24.305-24.306 56.656-37.733 91.046-37.733 34.391 0 66.741 13.37 91.047 37.733 24.362 24.305 37.733 56.599 37.733 91.046zM61.937 361.509c0 64.758 52.69 117.449 117.448 117.449 64.759 0 117.449-52.691 117.449-117.449V166.895c0-64.758-52.69-117.448-117.449-117.448-64.758 0-117.448 52.69-117.448 117.448v194.614zm223.395-194.614v193.934c0 58.47-47.591 106.061-106.06 106.061s-106.06-47.591-106.06-106.061V166.895c0-58.469 47.591-106.06 106.06-106.06s106.06 47.591 106.06 106.06zM84.599 360.829c0 52.237 42.493 94.73 94.73 94.73s94.729-42.493 94.729-94.73V166.895c0-52.237-42.492-94.729-94.729-94.729s-94.73 42.492-94.73 94.729v193.934z" fill="#121212"/></g></svg>