<svg width="1470" height="888" fill="none" xmlns="http://www.w3.org/2000/svg"><path fill-rule="evenodd" clip-rule="evenodd" d="M443.7 0H986v33.211H443.7c-226.333 0-410.489 184.156-410.489 410.489 0 226.334 184.156 410.489 410.489 410.489H977v-.178h493v33.211H986v.178H443.7c-118.564 0-229.987-46.163-313.679-130.021C46.163 673.687 0 562.264 0 443.7c0-118.564 46.163-229.987 130.021-313.679C213.879 46.163 325.303 0 443.7 0zm.996 66.257H986v33.21H444.696c-189.801 0-344.232 154.432-344.232 344.234 0 189.801 154.431 344.233 344.232 344.233H977v-.179h493v33.212H986v.178H444.696c-100.795 0-195.613-39.189-266.851-110.593-71.237-71.238-110.593-166.056-110.593-266.851 0-100.796 39.19-195.614 110.593-266.851 71.238-71.238 166.056-110.593 266.851-110.593zm1.993 66.255H986v33.377H446.689c-153.103 0-277.645 124.541-277.645 277.644 0 153.104 124.542 277.645 277.645 277.645H977V721h493v33.045H986v.178H446.689c-171.369 0-310.856-139.486-310.856-310.856 0-171.369 139.487-310.855 310.856-310.855z" fill="#F6D351"/></svg>