<svg width="348" height="826" viewBox="0 0 348 826" fill="none" xmlns="http://www.w3.org/2000/svg">
<path fill-rule="evenodd" clip-rule="evenodd" d="M212.853 825.16C212.86 824.398 212.864 823.635 212.864 822.872L212.864 362.101C212.864 237.991 112.058 137.033 -11.8671 137.033L-12 137.033L-12 110.111C126.709 110.112 239.612 223.184 239.612 362.101L239.612 822.872C239.612 823.635 239.608 824.398 239.601 825.16L212.853 825.16ZM266.887 825.16C266.893 824.398 266.896 823.635 266.896 822.872L266.896 360.486C266.896 206.627 141.896 81.4391 -11.7332 81.4391L-12 81.4392L-12 54.5172L-11.7332 54.5171C69.8529 54.5171 146.6 86.4197 204.262 144.167C262.057 201.915 293.778 278.778 293.778 360.486L293.778 822.872C293.778 823.635 293.775 824.397 293.769 825.16L266.887 825.16ZM320.525 825.16C320.526 824.801 320.527 824.442 320.527 824.083L320.527 359.678C320.527 176.205 171.467 26.922 -11.7317 26.922L-12 26.9221L-12 9.74721e-05L-11.7317 1.17259e-08C84.2361 4.20661e-06 174.424 37.4216 242.166 105.4C310.043 173.243 347.408 263.567 347.408 359.678L347.408 824.083C347.408 824.442 347.408 824.801 347.407 825.16L320.525 825.16Z" fill="#F5CE3E"/>
</svg>
