<svg width="62" height="103" fill="none" xmlns="http://www.w3.org/2000/svg"><path d="M52.695 70.922V31.21c0-11.973-9.745-21.718-21.718-21.718-11.974 0-21.72 9.745-21.72 21.718v39.713c0 11.973 9.746 21.719 21.72 21.719 11.973 0 21.718-9.746 21.718-21.719zM11.59 31.21c0-10.697 8.701-19.398 19.398-19.398s19.398 8.701 19.398 19.398v39.713c0 10.697-8.701 19.398-19.398 19.398S11.59 81.62 11.59 70.922V31.209z" fill="#F5CE3E"/><path d="M57.371 70.922V31.07c0-7.042-2.738-13.667-7.727-18.644C44.668 7.448 38.044 4.699 31 4.699c-7.042 0-13.666 2.737-18.644 7.726C7.38 17.402 4.63 24.027 4.63 31.07v39.852c0 7.043 2.738 13.667 7.726 18.644 4.978 4.978 11.602 7.727 18.644 7.728 7.043 0 13.667-2.738 18.645-7.727 4.988-4.977 7.726-11.59 7.726-18.644zM6.95 31.07C6.95 17.81 17.74 7.02 31 7.02c13.261 0 24.05 10.79 24.05 24.05v39.853c0 13.26-10.789 24.05-24.05 24.05-13.26 0-24.05-10.79-24.05-24.05V31.068z" fill="#F5CE3E"/><path d="M62 71.026V31c0-8.284-3.225-16.068-9.084-21.916C47.069 3.225 39.284 0 31 0S14.931 3.225 9.084 9.084C3.225 14.944 0 22.728 0 31v40.026c0 8.284 3.225 16.069 9.084 21.916 5.86 5.847 13.644 9.084 21.916 9.084s16.069-3.237 21.916-9.084C58.775 87.083 62 79.298 62 71.026zM2.32 31C2.32 15.187 15.187 2.32 31 2.32c15.813 0 28.68 12.867 28.68 28.68v40.026c0 15.814-12.867 28.68-28.68 28.68-15.813 0-28.68-12.867-28.68-28.68V31z" fill="#F5CE3E"/></svg>