<svg width="1118" height="130" fill="none" xmlns="http://www.w3.org/2000/svg"><path d="M292.955 47.873c-.27-.003-.541-.005-.812-.005H128.556c-44.063 0-79.905 35.843-79.905 79.906v.047h-9.559c0-49.32 40.145-89.463 89.464-89.463h163.587c.271 0 .542.001.812.004v9.51z" fill="#121212"/><path d="M292.955 28.66a99.72 99.72 0 00-.812-.004h-164.16c-54.625 0-99.07 44.445-99.07 99.07v.095h-9.558v-.095c0-29.01 11.326-56.297 31.829-76.8 20.502-20.55 47.79-31.828 76.799-31.828h164.16c.271 0 .541.001.812.003v9.559z" fill="#121212"/><path d="M292.955 9.588H127.696c-65.138 0-118.138 53-118.138 118.138v.095H0v-.095c0-34.123 13.286-66.19 37.42-90.276C61.506 13.315 93.574.03 127.696.03h165.259v9.558zm531.44 38.182c.272-.002.545-.004.817-.004h163.587c44.061 0 79.901 35.79 79.901 79.787 0 .684 0 1.367-.02 2.048h9.56c.01-.666.02-1.332.02-2.001 0-49.246-40.14-89.33-89.461-89.33H825.212c-.272 0-.545.002-.817.004v9.497z" fill="#121212"/><path d="M824.395 28.587c.27-.002.539-.003.809-.003h164.16c54.626 0 99.066 44.378 99.066 98.921 0 .7 0 1.399-.02 2.096h9.56c.02-.698.02-1.396.02-2.096 0-28.965-11.32-56.213-31.83-76.684-20.5-20.52-47.79-31.781-76.796-31.781h-164.16c-.27 0-.539 0-.809.003v9.544z" fill="#121212"/><path d="M824.395 9.544h165.26c65.135 0 118.135 52.92 118.135 117.961 0 .7 0 1.398-.02 2.096h9.56c.01-.698.02-1.397.02-2.096 0-34.071-13.29-66.09-37.42-90.141C1055.84 13.266 1023.78 0 989.655 0h-165.26v9.544z" fill="#121212"/></svg>